SplineFontDB: 3.2
FontName: HeadingNowTrial-57Extrabold
FullName: Heading Now Trial 57 Extrabold
FamilyName: Heading Now Trial 57 Extrabold
Weight: Heavy
Copyright: Copyright (c) 2017 by Studio Kmzero & Zetafonts. All rights reserved.
Version: 1.001
ItalicAngle: 0
UnderlinePosition: -100
UnderlineWidth: 50
Ascent: 800
Descent: 200
InvalidEm: 0
sfntRevision: 0x00010041
LayerCount: 2
Layer: 0 1 "Back" 1
Layer: 1 1 "Fore" 0
XUID: [1021 504 1408284211 11340379]
StyleMap: 0x0040
FSType: 4
OS2Version: 4
OS2_WeightWidthSlopeOnly: 0
OS2_UseTypoMetrics: 1
CreationTime: 1520599031
ModificationTime: 1773986611
PfmFamily: 81
TTFWeight: 800
TTFWidth: 5
LineGap: 0
VLineGap: 0
Panose: 0 0 9 0 0 0 0 0 0 0
OS2TypoAscent: 1050
OS2TypoAOffset: 0
OS2TypoDescent: -265
OS2TypoDOffset: 0
OS2TypoLinegap: 256
OS2WinAscent: 1050
OS2WinAOffset: 0
OS2WinDescent: 265
OS2WinDOffset: 0
HheadAscent: 1050
HheadAOffset: 0
HheadDescent: -265
HheadDOffset: 0
OS2SubXSize: 650
OS2SubYSize: 600
OS2SubXOff: 0
OS2SubYOff: 75
OS2SupXSize: 650
OS2SupYSize: 600
OS2SupXOff: 0
OS2SupYOff: 350
OS2StrikeYSize: 53
OS2StrikeYPos: 358
OS2CapHeight: 744
OS2XHeight: 595
OS2Vendor: 'UKWN'
OS2CodePages: 0000009f.00000000
OS2UnicodeRanges: 800002a7.40000003.00000000.00000000
Lookup: 1 0 0 "'aalt' Access All Alternates in Latin lookup 0" { "'aalt' Access All Alternates in Latin lookup 0 subtable"  } ['aalt' ('DFLT' <'dflt' > 'latn' <'AZE ' 'CAT ' 'CRT ' 'KAZ ' 'MOL ' 'ROM ' 'TAT ' 'TRK ' 'dflt' > ) ]
Lookup: 3 0 0 "'aalt' Access All Alternates in Latin lookup 1" { "'aalt' Access All Alternates in Latin lookup 1 subtable"  } ['aalt' ('DFLT' <'dflt' > 'latn' <'AZE ' 'CAT ' 'CRT ' 'KAZ ' 'MOL ' 'ROM ' 'TAT ' 'TRK ' 'dflt' > ) ]

StartChar: uniF8FF
Encoding: 63743 63743 2
Width: 1299
GlyphClass: 1
Flags: W
LayerCount: 2
Fore
SplineSet
1279 462 m 1,0,-1
 1279 269 l 1,1,-1
 25 269 l 1,2,-1
 25 462 l 1,3,-1
 511 462 l 1,4,5
 515 518 515 518 555.5 556 c 128,-1,6
 596 594 596 594 652 594 c 256,7,8
 708 594 708 594 748.5 556 c 128,-1,9
 789 518 789 518 793 462 c 1,10,-1
 1279 462 l 1,0,-1
737 547 m 1,11,12
 699 580 699 580 652 580 c 0,13,14
 603 580 603 580 567 547 c 1,15,-1
 737 547 l 1,11,12
750 371 m 1,16,17
 779 406 779 406 779 452 c 0,18,19
 779 500 779 500 747 537 c 1,20,-1
 581 371 l 1,21,-1
 750 371 l 1,16,17
553 533 m 1,22,23
 524 498 524 498 524 452 c 0,24,25
 524 403 524 403 557 367 c 1,26,-1
 724 533 l 1,27,-1
 553 533 l 1,22,23
916 321 m 128,-1,29
 935 339 935 339 935 367 c 0,30,31
 935 394 935 394 916 412 c 128,-1,32
 897 430 897 430 869 430 c 256,33,34
 841 430 841 430 822.5 412 c 128,-1,35
 804 394 804 394 804 367 c 0,36,37
 804 339 804 339 822.5 321 c 128,-1,38
 841 303 841 303 869 303 c 256,39,28
 897 303 897 303 916 321 c 128,-1,29
116 392 m 1,40,-1
 144 392 l 1,41,-1
 144 427 l 1,42,-1
 48 427 l 1,43,-1
 48 392 l 1,44,-1
 77 392 l 1,45,-1
 77 306 l 1,46,-1
 116 306 l 1,47,-1
 116 392 l 1,40,-1
213 306 m 1,48,-1
 254 306 l 1,49,-1
 233 352 l 1,50,51
 247 364 247 364 247 384 c 0,52,53
 247 402 247 402 233.5 414.5 c 128,-1,54
 220 427 220 427 201 427 c 2,55,-1
 151 427 l 1,56,-1
 151 306 l 1,57,-1
 190 306 l 1,58,-1
 190 341 l 1,59,-1
 198 341 l 1,60,-1
 213 306 l 1,48,-1
260 306 m 1,61,-1
 298 306 l 1,62,-1
 298 427 l 1,63,-1
 260 427 l 1,64,-1
 260 306 l 1,61,-1
385 325 m 1,65,-1
 390 306 l 1,66,-1
 432 306 l 1,67,-1
 391 427 l 1,68,-1
 346 427 l 1,69,-1
 305 306 l 1,70,-1
 346 306 l 1,71,-1
 351 325 l 1,72,-1
 385 325 l 1,65,-1
439 306 m 1,73,-1
 521 306 l 1,74,-1
 521 339 l 1,75,-1
 478 339 l 1,76,-1
 478 427 l 1,77,-1
 439 427 l 1,78,-1
 439 306 l 1,73,-1
1019 306 m 1,79,-1
 1059 306 l 1,80,-1
 1059 427 l 1,81,-1
 1020 427 l 1,82,-1
 1020 363 l 1,83,-1
 983 427 l 1,84,-1
 943 427 l 1,85,-1
 943 306 l 1,86,-1
 982 306 l 1,87,-1
 981 365 l 1,88,-1
 1019 306 l 1,79,-1
1071 306 m 1,89,-1
 1153 306 l 1,90,-1
 1153 339 l 1,91,-1
 1110 339 l 1,92,-1
 1110 427 l 1,93,-1
 1071 427 l 1,94,-1
 1071 306 l 1,89,-1
1214 306 m 1,95,-1
 1214 354 l 1,96,-1
 1255 427 l 1,97,-1
 1210 427 l 1,98,-1
 1194 391 l 1,99,-1
 1179 427 l 1,100,-1
 1133 427 l 1,101,-1
 1175 354 l 1,102,-1
 1175 306 l 1,103,-1
 1214 306 l 1,95,-1
888.5 387 m 128,-1,105
 896 379 896 379 896 367 c 0,106,107
 896 354 896 354 888.5 346 c 128,-1,108
 881 338 881 338 869 338 c 0,109,110
 858 338 858 338 850 346 c 128,-1,111
 842 354 842 354 842 367 c 0,112,113
 842 379 842 379 850 387 c 128,-1,114
 858 395 858 395 869 395 c 0,115,104
 881 395 881 395 888.5 387 c 128,-1,105
200 394 m 2,116,117
 203 394 203 394 205.5 391 c 128,-1,118
 208 388 208 388 208 384 c 256,119,120
 208 380 208 380 205.5 376.5 c 128,-1,121
 203 373 203 373 200 373 c 2,122,-1
 190 373 l 1,123,-1
 190 394 l 1,124,-1
 200 394 l 2,116,117
359 357 m 1,125,-1
 367 386 l 1,126,-1
 368 386 l 1,127,-1
 376 357 l 1,128,-1
 359 357 l 1,125,-1
567 357 m 1,129,130
 604 325 604 325 652 325 c 256,131,132
 700 325 700 325 737 357 c 1,133,-1
 567 357 l 1,129,130
508 176 m 1,134,135
 520 169 520 169 534 169 c 0,136,137
 545 169 545 169 552.5 175 c 128,-1,138
 560 181 560 181 560 192 c 0,139,140
 560 205 560 205 537 214 c 0,141,142
 528 217 528 217 524.5 219.5 c 128,-1,143
 521 222 521 222 521 227 c 256,144,145
 521 232 521 232 525 235 c 128,-1,146
 529 238 529 238 535 238 c 0,147,148
 546 238 546 238 555 231 c 1,149,-1
 555 244 l 1,150,151
 545 249 545 249 535 249 c 0,152,153
 523 249 523 249 516 243 c 128,-1,154
 509 237 509 237 509 227 c 0,155,156
 509 218 509 218 514 213.5 c 128,-1,157
 519 209 519 209 531 204 c 0,158,159
 548 199 548 199 548 192 c 0,160,161
 548 180 548 180 534 180 c 0,162,163
 521 180 521 180 508 189 c 1,164,-1
 508 176 l 1,134,135
608.5 180.5 m 128,-1,166
 620 169 620 169 637 169 c 256,167,168
 654 169 654 169 665.5 180.5 c 128,-1,169
 677 192 677 192 677 209 c 256,170,171
 677 226 677 226 665.5 237.5 c 128,-1,172
 654 249 654 249 637 249 c 256,173,174
 620 249 620 249 608.5 237.5 c 128,-1,175
 597 226 597 226 597 209 c 256,176,165
 597 192 597 192 608.5 180.5 c 128,-1,166
756 168 m 1,177,-1
 756 247 l 1,178,-1
 744 247 l 1,179,-1
 744 193 l 1,180,-1
 695 248 l 1,181,-1
 689 248 l 1,182,-1
 689 170 l 1,183,-1
 701 170 l 1,184,-1
 701 222 l 1,185,-1
 750 168 l 1,186,-1
 756 168 l 1,177,-1
74 247 m 1,187,-1
 24 247 l 1,188,-1
 24 170 l 1,189,-1
 36 170 l 1,190,-1
 36 199 l 1,191,-1
 69 199 l 1,192,-1
 69 210 l 1,193,-1
 36 210 l 1,194,-1
 36 236 l 1,195,-1
 74 236 l 1,196,-1
 74 247 l 1,187,-1
84 200 m 2,197,198
 84 187 84 187 93 178 c 128,-1,199
 102 169 102 169 115 169 c 0,200,201
 129 169 129 169 138 177.5 c 128,-1,202
 147 186 147 186 147 200 c 2,203,-1
 147 247 l 1,204,-1
 135 247 l 1,205,-1
 135 200 l 2,206,207
 135 192 135 192 129 186 c 128,-1,208
 123 180 123 180 115 180 c 256,209,210
 107 180 107 180 101.5 185.5 c 128,-1,211
 96 191 96 191 96 200 c 2,212,-1
 96 247 l 1,213,-1
 84 247 l 1,214,-1
 84 200 l 2,197,198
174 247 m 1,215,-1
 162 247 l 1,216,-1
 162 170 l 1,217,-1
 209 170 l 1,218,-1
 209 181 l 1,219,-1
 174 181 l 1,220,-1
 174 247 l 1,215,-1
232 247 m 1,221,-1
 220 247 l 1,222,-1
 220 170 l 1,223,-1
 268 170 l 1,224,-1
 268 181 l 1,225,-1
 232 181 l 1,226,-1
 232 247 l 1,221,-1
340 170 m 1,227,-1
 372 247 l 1,228,-1
 358 247 l 1,229,-1
 336 190 l 1,230,-1
 314 247 l 1,231,-1
 300 247 l 1,232,-1
 332 170 l 1,233,-1
 340 170 l 1,227,-1
432 247 m 1,234,-1
 382 247 l 1,235,-1
 382 170 l 1,236,-1
 432 170 l 1,237,-1
 432 181 l 1,238,-1
 394 181 l 1,239,-1
 394 204 l 1,240,-1
 427 204 l 1,241,-1
 427 214 l 1,242,-1
 394 214 l 1,243,-1
 394 236 l 1,244,-1
 432 236 l 1,245,-1
 432 247 l 1,234,-1
488 170 m 1,246,-1
 502 170 l 1,247,-1
 487 201 l 1,248,249
 499 208 499 208 499 222 c 0,250,251
 499 233 499 233 492 240 c 128,-1,252
 485 247 485 247 474 247 c 2,253,-1
 445 247 l 1,254,-1
 445 170 l 1,255,-1
 457 170 l 1,256,-1
 457 198 l 1,257,-1
 475 198 l 1,258,-1
 488 170 l 1,246,-1
584 247 m 1,259,-1
 572 247 l 1,260,-1
 572 170 l 1,261,-1
 584 170 l 1,262,-1
 584 247 l 1,259,-1
656 188 m 128,-1,264
 648 180 648 180 637 180 c 0,265,266
 625 180 625 180 617 188 c 128,-1,267
 609 196 609 196 609 209 c 0,268,269
 609 221 609 221 617 229 c 128,-1,270
 625 237 625 237 637 237 c 0,271,272
 648 237 648 237 656 229 c 128,-1,273
 664 221 664 221 664 209 c 0,274,263
 664 196 664 196 656 188 c 128,-1,264
483 212 m 128,-1,276
 479 208 479 208 474 208 c 2,277,-1
 457 208 l 1,278,-1
 457 236 l 1,279,-1
 474 236 l 2,280,281
 479 236 479 236 483 232 c 128,-1,282
 487 228 487 228 487 222 c 256,283,275
 487 216 487 216 483 212 c 128,-1,276
1243 183 m 1,284,-1
 1268 207 l 1,285,-1
 1243 231 l 1,286,-1
 1235 224 l 1,287,-1
 1248 213 l 1,288,-1
 790 213 l 1,289,-1
 790 201 l 1,290,-1
 1248 201 l 1,291,-1
 1235 190 l 1,292,-1
 1243 183 l 1,284,-1
504 53.5 m 128,-1,294
 521 37 521 37 546 37 c 256,295,296
 571 37 571 37 588 53.5 c 128,-1,297
 605 70 605 70 605 95 c 0,298,299
 605 119 605 119 588 135.5 c 128,-1,300
 571 152 571 152 546 152 c 256,301,302
 521 152 521 152 504 135.5 c 128,-1,303
 487 119 487 119 487 95 c 0,304,293
 487 70 487 70 504 53.5 c 128,-1,294
814 47 m 1,305,306
 830 37 830 37 852 37 c 0,307,308
 871 37 871 37 883.5 47 c 128,-1,309
 896 57 896 57 896 74 c 0,310,311
 896 101 896 101 860 109 c 0,312,313
 857 110 857 110 853 111 c 128,-1,314
 849 112 849 112 847.5 113.5 c 128,-1,315
 846 115 846 115 846 117 c 0,316,317
 846 121 846 121 857 121 c 0,318,319
 864 121 864 121 873.5 118 c 128,-1,320
 883 115 883 115 889 110 c 1,321,-1
 889 144 l 1,322,323
 871 152 871 152 857 152 c 0,324,325
 836 152 836 152 824 143 c 128,-1,326
 812 134 812 134 812 118 c 0,327,328
 812 104 812 104 819.5 96.5 c 128,-1,329
 827 89 827 89 844 83 c 0,330,331
 847 82 847 82 854 80 c 128,-1,332
 861 78 861 78 861 74 c 0,333,334
 861 68 861 68 852 68 c 0,335,336
 839 68 839 68 814 84 c 1,337,-1
 814 47 l 1,305,306
959 53.5 m 128,-1,339
 976 37 976 37 1000 37 c 0,340,341
 1012 37 1012 37 1026 44 c 1,342,-1
 1027 79 l 1,343,344
 1017 69 1017 69 1002 69 c 0,345,346
 991 69 991 69 984 76.5 c 128,-1,347
 977 84 977 84 977 95 c 256,348,349
 977 106 977 106 984.5 113 c 128,-1,350
 992 120 992 120 1002 120 c 256,351,352
 1012 120 1012 120 1024 113 c 1,353,-1
 1024 146 l 1,354,355
 1014 152 1014 152 1001 152 c 0,356,357
 976 152 976 152 959 135.5 c 128,-1,358
 942 119 942 119 942 95 c 0,359,338
 942 70 942 70 959 53.5 c 128,-1,339
1047 53.5 m 128,-1,361
 1064 37 1064 37 1090 37 c 0,362,363
 1115 37 1115 37 1132 53.5 c 128,-1,364
 1149 70 1149 70 1149 95 c 0,365,366
 1149 119 1149 119 1132 135.5 c 128,-1,367
 1115 152 1115 152 1090 152 c 256,368,369
 1065 152 1065 152 1047.5 135.5 c 128,-1,370
 1030 119 1030 119 1030 95 c 0,371,360
 1030 70 1030 70 1047 53.5 c 128,-1,361
25 118 m 1,372,-1
 61 118 l 1,373,-1
 20 40 l 1,374,-1
 115 40 l 1,375,-1
 115 71 l 1,376,-1
 77 71 l 1,377,-1
 118 149 l 1,378,-1
 25 149 l 1,379,-1
 25 118 l 1,372,-1
204 149 m 1,380,-1
 125 149 l 1,381,-1
 125 40 l 1,382,-1
 205 40 l 1,383,-1
 205 70 l 1,384,-1
 160 70 l 1,385,-1
 160 80 l 1,386,-1
 198 80 l 1,387,-1
 198 110 l 1,388,-1
 160 110 l 1,389,-1
 160 119 l 1,390,-1
 204 119 l 1,391,-1
 204 149 l 1,380,-1
209 118 m 1,392,-1
 235 118 l 1,393,-1
 235 40 l 1,394,-1
 270 40 l 1,395,-1
 270 118 l 1,396,-1
 296 118 l 1,397,-1
 296 149 l 1,398,-1
 209 149 l 1,399,-1
 209 118 l 1,392,-1
325 57 m 1,400,-1
 356 57 l 1,401,-1
 360 40 l 1,402,-1
 398 40 l 1,403,-1
 361 149 l 1,404,-1
 321 149 l 1,405,-1
 284 40 l 1,406,-1
 320 40 l 1,407,-1
 325 57 l 1,400,-1
483 149 m 1,408,-1
 404 149 l 1,409,-1
 404 40 l 1,410,-1
 439 40 l 1,411,-1
 439 74 l 1,412,-1
 476 74 l 1,413,-1
 476 103 l 1,414,-1
 439 103 l 1,415,-1
 439 119 l 1,416,-1
 483 119 l 1,417,-1
 483 149 l 1,408,-1
717 40 m 1,418,-1
 717 149 l 1,419,-1
 682 149 l 1,420,-1
 682 91 l 1,421,-1
 649 149 l 1,422,-1
 613 149 l 1,423,-1
 613 40 l 1,424,-1
 648 40 l 1,425,-1
 647 93 l 1,426,-1
 681 40 l 1,427,-1
 717 40 l 1,418,-1
723 118 m 1,428,-1
 749 118 l 1,429,-1
 749 40 l 1,430,-1
 784 40 l 1,431,-1
 784 118 l 1,432,-1
 809 118 l 1,433,-1
 809 149 l 1,434,-1
 723 149 l 1,435,-1
 723 118 l 1,428,-1
1191 149 m 1,436,-1
 1156 149 l 1,437,-1
 1156 40 l 1,438,-1
 1191 40 l 1,439,-1
 1191 83 l 1,440,-1
 1205 56 l 1,441,-1
 1230 56 l 1,442,-1
 1244 83 l 1,443,-1
 1244 40 l 1,444,-1
 1278 40 l 1,445,-1
 1278 149 l 1,446,-1
 1243 149 l 1,447,-1
 1217 99 l 1,448,-1
 1191 149 l 1,436,-1
563 76.5 m 128,-1,450
 556 69 556 69 546 69 c 256,451,452
 536 69 536 69 529 76.5 c 128,-1,453
 522 84 522 84 522 95 c 256,454,455
 522 106 522 106 529 113 c 128,-1,456
 536 120 536 120 546 120 c 256,457,458
 556 120 556 120 563 113 c 128,-1,459
 570 106 570 106 570 95 c 256,460,449
 570 84 570 84 563 76.5 c 128,-1,450
1107 76.5 m 128,-1,462
 1100 69 1100 69 1090 69 c 0,463,464
 1079 69 1079 69 1072 76.5 c 128,-1,465
 1065 84 1065 84 1065 95 c 256,466,467
 1065 106 1065 106 1072.5 113 c 128,-1,468
 1080 120 1080 120 1090 120 c 256,469,470
 1100 120 1100 120 1107 112.5 c 128,-1,471
 1114 105 1114 105 1114 95 c 0,472,461
 1114 84 1114 84 1107 76.5 c 128,-1,462
341 112 m 1,473,-1
 348 86 l 1,474,-1
 333 86 l 1,475,-1
 340 112 l 1,476,-1
 341 112 l 1,473,-1
906 42 m 128,-1,478
 911 37 911 37 919 37 c 0,479,480
 926 37 926 37 931 42 c 128,-1,481
 936 47 936 47 936 54 c 256,482,483
 936 61 936 61 931 65.5 c 128,-1,484
 926 70 926 70 919 70 c 0,485,486
 911 70 911 70 906 65.5 c 128,-1,487
 901 61 901 61 901 54 c 256,488,477
 901 47 901 47 906 42 c 128,-1,478
EndSplineSet
EndChar

StartChar: A
Encoding: 65 65 3
Width: 524
GlyphClass: 2
Flags: W
AnchorPoint: "Anchor-18" 249 744 basechar 0
AnchorPoint: "Anchor-17" 519 0 basechar 0
AnchorPoint: "Anchor-16" 262 188 basechar 0
AnchorPoint: "Anchor-15" 249 0 basechar 0
LayerCount: 2
Fore
SplineSet
521 0 m 1,0,-1
 335 0 l 1,1,-1
 320 111 l 1,2,-1
 204 111 l 1,3,-1
 189 0 l 1,4,-1
 3 0 l 1,5,-1
 140 744 l 1,6,-1
 384 744 l 1,7,-1
 521 0 l 1,0,-1
256 496 m 1,8,-1
 224 261 l 1,9,-1
 300 261 l 1,10,-1
 268 496 l 1,11,-1
 263 550 l 1,12,-1
 261 550 l 1,13,-1
 256 496 l 1,8,-1
EndSplineSet
Substitution2: "'c2sc' Capitals to Small Capitals in Latin lookup 16 subtable" a.sc
Substitution2: "'aalt' Access All Alternates in Latin lookup 0 subtable" a.sc
EndChar

StartChar: B
Encoding: 66 66 4
Width: 485
GlyphClass: 2
Flags: W
AnchorPoint: "Anchor-18" 241 744 basechar 0
AnchorPoint: "Anchor-15" 241 0 basechar 0
LayerCount: 2
Fore
SplineSet
33 0 m 1,0,-1
 33 744 l 1,1,-1
 239 744 l 2,2,3
 335 744 335 744 389 701.5 c 128,-1,4
 443 659 443 659 443 584 c 2,5,-1
 443 536 l 2,6,7
 443 435 443 435 359 398 c 1,8,-1
 359 397 l 1,9,10
 414 386 414 386 441 348 c 128,-1,11
 468 310 468 310 468 252 c 2,12,-1
 468 189 l 2,13,14
 468 101 468 101 414.5 50.5 c 128,-1,15
 361 0 361 0 257 0 c 2,16,-1
 33 0 l 1,0,-1
232 451 m 2,17,18
 260 451 260 451 271.5 464 c 128,-1,19
 283 477 283 477 283 506 c 2,20,-1
 283 550 l 2,21,22
 283 577 283 577 271.5 588.5 c 128,-1,23
 260 600 260 600 232 600 c 2,24,-1
 209 600 l 1,25,-1
 209 451 l 1,26,-1
 232 451 l 2,17,18
234 144 m 2,27,28
 263 144 263 144 275.5 157.5 c 128,-1,29
 288 171 288 171 288 202 c 2,30,-1
 288 257 l 2,31,32
 288 287 288 287 275 300 c 128,-1,33
 262 313 262 313 232 313 c 2,34,-1
 209 313 l 1,35,-1
 209 144 l 1,36,-1
 234 144 l 2,27,28
EndSplineSet
Substitution2: "'c2sc' Capitals to Small Capitals in Latin lookup 16 subtable" b.sc
Substitution2: "'aalt' Access All Alternates in Latin lookup 0 subtable" b.sc
EndChar

StartChar: C
Encoding: 67 67 5
Width: 495
GlyphClass: 2
Flags: W
AnchorPoint: "Anchor-18" 250 744 basechar 0
AnchorPoint: "Anchor-15" 250 0 basechar 0
LayerCount: 2
Fore
SplineSet
82 49.5 m 128,-1,1
 25 114 25 114 25 242 c 2,2,-1
 25 500 l 2,3,4
 25 758 25 758 250 758 c 0,5,6
 364 758 364 758 419.5 694.5 c 128,-1,7
 475 631 475 631 475 505 c 2,8,-1
 475 443 l 1,9,-1
 293 443 l 1,10,-1
 293 531 l 2,11,12
 293 564 293 564 283.5 580.5 c 128,-1,13
 274 597 274 597 250 597 c 0,14,15
 207 597 207 597 207 531 c 2,16,-1
 207 213 l 2,17,18
 207 147 207 147 250 147 c 0,19,20
 272 147 272 147 282.5 162.5 c 128,-1,21
 293 178 293 178 293 212 c 2,22,-1
 293 312 l 1,23,-1
 475 312 l 1,24,-1
 475 239 l 2,25,26
 475 110 475 110 421.5 47.5 c 128,-1,27
 368 -15 368 -15 250 -15 c 0,28,0
 139 -15 139 -15 82 49.5 c 128,-1,1
EndSplineSet
Substitution2: "'c2sc' Capitals to Small Capitals in Latin lookup 16 subtable" c.sc
Substitution2: "'aalt' Access All Alternates in Latin lookup 0 subtable" c.sc
EndChar

StartChar: D
Encoding: 68 68 6
Width: 506
GlyphClass: 2
Flags: W
AnchorPoint: "Anchor-18" 253 744 basechar 0
AnchorPoint: "Anchor-16" 130 372 basechar 0
AnchorPoint: "Anchor-15" 253 0 basechar 0
LayerCount: 2
Fore
SplineSet
33 0 m 1,0,-1
 33 744 l 1,1,-1
 265 744 l 2,2,3
 377 744 377 744 429 677 c 128,-1,4
 481 610 481 610 481 476 c 2,5,-1
 481 268 l 2,6,7
 481 134 481 134 428.5 67 c 128,-1,8
 376 0 376 0 266 0 c 2,9,-1
 33 0 l 1,0,-1
244 155 m 2,10,11
 272 155 272 155 285.5 173 c 128,-1,12
 299 191 299 191 299 234 c 2,13,-1
 299 510 l 2,14,15
 299 553 299 553 285.5 570.5 c 128,-1,16
 272 588 272 588 244 588 c 2,17,-1
 215 588 l 1,18,-1
 215 155 l 1,19,-1
 244 155 l 2,10,11
EndSplineSet
Substitution2: "'c2sc' Capitals to Small Capitals in Latin lookup 16 subtable" d.sc
Substitution2: "'aalt' Access All Alternates in Latin lookup 0 subtable" d.sc
EndChar

StartChar: E
Encoding: 69 69 7
Width: 420
GlyphClass: 2
Flags: W
AnchorPoint: "Anchor-18" 213 744 basechar 0
AnchorPoint: "Anchor-17" 401 0 basechar 0
AnchorPoint: "Anchor-15" 223 0 basechar 0
LayerCount: 2
Fore
SplineSet
401 0 m 1,0,-1
 33 0 l 1,1,-1
 33 744 l 1,2,-1
 394 744 l 1,3,-1
 394 584 l 1,4,-1
 215 584 l 1,5,-1
 215 454 l 1,6,-1
 374 454 l 1,7,-1
 374 302 l 1,8,-1
 215 302 l 1,9,-1
 215 163 l 1,10,-1
 401 163 l 1,11,-1
 401 0 l 1,0,-1
EndSplineSet
Substitution2: "'c2sc' Capitals to Small Capitals in Latin lookup 16 subtable" e.sc
Substitution2: "'aalt' Access All Alternates in Latin lookup 0 subtable" e.sc
EndChar

StartChar: F
Encoding: 70 70 8
Width: 400
GlyphClass: 2
Flags: W
AnchorPoint: "Anchor-18" 202 744 basechar 0
AnchorPoint: "Anchor-15" 202 0 basechar 0
LayerCount: 2
Fore
SplineSet
215 0 m 1,0,-1
 33 0 l 1,1,-1
 33 744 l 1,2,-1
 389 744 l 1,3,-1
 389 583 l 1,4,-1
 215 583 l 1,5,-1
 215 442 l 1,6,-1
 369 442 l 1,7,-1
 369 281 l 1,8,-1
 215 281 l 1,9,-1
 215 0 l 1,0,-1
EndSplineSet
Substitution2: "'c2sc' Capitals to Small Capitals in Latin lookup 16 subtable" f.sc
Substitution2: "'aalt' Access All Alternates in Latin lookup 0 subtable" f.sc
EndChar

StartChar: G
Encoding: 71 71 9
Width: 494
GlyphClass: 2
Flags: W
AnchorPoint: "Anchor-18" 250 744 basechar 0
AnchorPoint: "Anchor-15" 250 0 basechar 0
LayerCount: 2
Fore
SplineSet
82 50 m 128,-1,1
 25 115 25 115 25 242 c 2,2,-1
 25 500 l 2,3,4
 25 628 25 628 81.5 693 c 128,-1,5
 138 758 138 758 250 758 c 0,6,7
 365 758 365 758 419 696.5 c 128,-1,8
 473 635 473 635 473 508 c 2,9,-1
 473 464 l 1,10,-1
 293 464 l 1,11,-1
 293 538 l 2,12,13
 293 597 293 597 250 597 c 0,14,15
 231 597 231 597 219 581.5 c 128,-1,16
 207 566 207 566 207 537 c 2,17,-1
 207 207 l 2,18,19
 207 136 207 136 255 136 c 0,20,21
 281 136 281 136 294 152 c 128,-1,22
 307 168 307 168 307 204 c 2,23,-1
 307 253 l 1,24,-1
 258 253 l 1,25,-1
 258 391 l 1,26,-1
 474 391 l 1,27,-1
 474 253 l 2,28,29
 474 113 474 113 422 49 c 128,-1,30
 370 -15 370 -15 251 -15 c 0,31,0
 139 -15 139 -15 82 50 c 128,-1,1
EndSplineSet
Substitution2: "'ss03' Style Set 3 in Latin lookup 23 subtable" G.ss03
Substitution2: "'c2sc' Capitals to Small Capitals in Latin lookup 16 subtable" g.sc
AlternateSubs2: "'aalt' Access All Alternates in Latin lookup 1 subtable" g.sc G.ss03
EndChar

StartChar: H
Encoding: 72 72 10
Width: 516
GlyphClass: 2
Flags: W
AnchorPoint: "Anchor-18" 258 744 basechar 0
AnchorPoint: "Anchor-16" 258 592 basechar 0
AnchorPoint: "Anchor-15" 258 0 basechar 0
LayerCount: 2
Fore
SplineSet
300 457 m 1,0,-1
 300 744 l 1,1,-1
 482 744 l 1,2,-1
 482 0 l 1,3,-1
 300 0 l 1,4,-1
 300 296 l 1,5,-1
 215 296 l 1,6,-1
 215 0 l 1,7,-1
 33 0 l 1,8,-1
 33 744 l 1,9,-1
 215 744 l 1,10,-1
 215 457 l 1,11,-1
 300 457 l 1,0,-1
EndSplineSet
Substitution2: "'c2sc' Capitals to Small Capitals in Latin lookup 16 subtable" h.sc
Substitution2: "'aalt' Access All Alternates in Latin lookup 0 subtable" h.sc
EndChar

StartChar: I
Encoding: 73 73 11
Width: 248
GlyphClass: 2
Flags: W
AnchorPoint: "Anchor-18" 124 744 basechar 0
AnchorPoint: "Anchor-17" 181 0 basechar 0
AnchorPoint: "Anchor-15" 124 0 basechar 0
LayerCount: 2
Fore
SplineSet
215 0 m 1,0,-1
 33 0 l 1,1,-1
 33 744 l 1,2,-1
 215 744 l 1,3,-1
 215 0 l 1,0,-1
EndSplineSet
Substitution2: "'ss03' Style Set 3 in Latin lookup 23 subtable" I.ss03
Substitution2: "'c2sc' Capitals to Small Capitals in Latin lookup 16 subtable" i.sc
AlternateSubs2: "'aalt' Access All Alternates in Latin lookup 1 subtable" i.sc I.ss03
EndChar

StartChar: J
Encoding: 74 74 12
Width: 388
GlyphClass: 2
Flags: W
AnchorPoint: "Anchor-18" 283 744 basechar 0
AnchorPoint: "Anchor-15" 236 0 basechar 0
LayerCount: 2
Fore
SplineSet
179 744 m 1,0,-1
 361 744 l 1,1,-1
 361 204 l 2,2,3
 361 91 361 91 308.5 38 c 128,-1,4
 256 -15 256 -15 142 -15 c 0,5,6
 76 -15 76 -15 3 1 c 1,7,-1
 10 159 l 1,8,9
 67 147 67 147 106 147 c 0,10,11
 144 147 144 147 161.5 163.5 c 128,-1,12
 179 180 179 180 179 218 c 2,13,-1
 179 586 l 1,14,-1
 25 586 l 1,15,-1
 25 743 l 1,16,-1
 179 743 l 1,17,-1
 179 744 l 1,0,-1
EndSplineSet
Substitution2: "'ss04' Style Set 4 in Latin lookup 24 subtable" J.ss04
Substitution2: "'ss03' Style Set 3 in Latin lookup 23 subtable" J.ss03
Substitution2: "'c2sc' Capitals to Small Capitals in Latin lookup 16 subtable" j.sc
AlternateSubs2: "'aalt' Access All Alternates in Latin lookup 1 subtable" j.sc J.ss03 J.ss04
EndChar

StartChar: K
Encoding: 75 75 13
Width: 511
GlyphClass: 2
Flags: W
AnchorPoint: "Anchor-18" 254 744 basechar 0
AnchorPoint: "Anchor-15" 254 0 basechar 0
LayerCount: 2
Fore
SplineSet
215 0 m 1,0,-1
 33 0 l 1,1,-1
 33 744 l 1,2,-1
 215 744 l 1,3,-1
 215 462 l 1,4,-1
 237 462 l 1,5,-1
 304 744 l 1,6,-1
 496 744 l 1,7,-1
 380 387 l 1,8,-1
 380 382 l 1,9,-1
 508 0 l 1,10,-1
 315 0 l 1,11,-1
 237 303 l 1,12,-1
 215 303 l 1,13,-1
 215 0 l 1,0,-1
EndSplineSet
Substitution2: "'ss03' Style Set 3 in Latin lookup 23 subtable" K.ss03
Substitution2: "'c2sc' Capitals to Small Capitals in Latin lookup 16 subtable" k.sc
AlternateSubs2: "'aalt' Access All Alternates in Latin lookup 1 subtable" k.sc K.ss03
EndChar

StartChar: L
Encoding: 76 76 14
Width: 390
GlyphClass: 2
Flags: W
AnchorPoint: "Anchor-19" 266 744 basechar 0
AnchorPoint: "Anchor-18" 131 744 basechar 0
AnchorPoint: "Anchor-16" 134 384 basechar 0
AnchorPoint: "Anchor-15" 198 0 basechar 0
LayerCount: 2
Fore
SplineSet
379 0 m 1,0,-1
 33 0 l 1,1,-1
 33 744 l 1,2,-1
 215 744 l 1,3,-1
 215 167 l 1,4,-1
 379 167 l 1,5,-1
 379 0 l 1,0,-1
EndSplineSet
Substitution2: "'c2sc' Capitals to Small Capitals in Latin lookup 16 subtable" l.sc
Substitution2: "'aalt' Access All Alternates in Latin lookup 0 subtable" l.sc
EndChar

StartChar: M
Encoding: 77 77 15
Width: 659
GlyphClass: 2
Flags: W
AnchorPoint: "Anchor-18" 329 744 basechar 0
AnchorPoint: "Anchor-15" 329 0 basechar 0
LayerCount: 2
Fore
SplineSet
212 0 m 1,0,-1
 33 0 l 1,1,-1
 33 744 l 1,2,-1
 252 744 l 1,3,-1
 324 374 l 1,4,-1
 328 328 l 1,5,-1
 331 328 l 1,6,-1
 335 374 l 1,7,-1
 407 744 l 1,8,-1
 626 744 l 1,9,-1
 626 0 l 1,10,-1
 447 0 l 1,11,-1
 447 310 l 1,12,-1
 453 443 l 1,13,-1
 451 443 l 1,14,-1
 445 410 l 1,15,-1
 382 97 l 1,16,-1
 277 97 l 1,17,-1
 214 410 l 1,18,-1
 208 443 l 1,19,-1
 206 443 l 1,20,-1
 212 310 l 1,21,-1
 212 0 l 1,0,-1
EndSplineSet
Substitution2: "'c2sc' Capitals to Small Capitals in Latin lookup 16 subtable" m.sc
Substitution2: "'aalt' Access All Alternates in Latin lookup 0 subtable" m.sc
EndChar

StartChar: N
Encoding: 78 78 16
Width: 533
GlyphClass: 2
Flags: W
AnchorPoint: "Anchor-18" 266 744 basechar 0
AnchorPoint: "Anchor-15" 266 0 basechar 0
LayerCount: 2
Fore
SplineSet
212 0 m 1,0,-1
 33 0 l 1,1,-1
 33 744 l 1,2,-1
 209 744 l 1,3,-1
 308 436 l 1,4,-1
 323 375 l 1,5,-1
 325 375 l 1,6,-1
 321 447 l 1,7,-1
 321 744 l 1,8,-1
 500 744 l 1,9,-1
 500 0 l 1,10,-1
 324 0 l 1,11,-1
 225 302 l 1,12,-1
 210 363 l 1,13,-1
 208 363 l 1,14,-1
 212 292 l 1,15,-1
 212 0 l 1,0,-1
EndSplineSet
Substitution2: "'c2sc' Capitals to Small Capitals in Latin lookup 16 subtable" n.sc
Substitution2: "'aalt' Access All Alternates in Latin lookup 0 subtable" n.sc
EndChar

StartChar: O
Encoding: 79 79 17
Width: 501
GlyphClass: 2
Flags: W
AnchorPoint: "Anchor-19" 308 753 basechar 0
AnchorPoint: "Anchor-18" 254 744 basechar 0
AnchorPoint: "Anchor-17" 366 10 basechar 0
AnchorPoint: "Anchor-16" 254 372 basechar 0
AnchorPoint: "Anchor-15" 254 0 basechar 0
LayerCount: 2
Fore
SplineSet
82 50 m 128,-1,1
 25 115 25 115 25 242 c 2,2,-1
 25 501 l 2,3,4
 25 628 25 628 82 693 c 128,-1,5
 139 758 139 758 250 758 c 0,6,7
 362 758 362 758 419 693 c 128,-1,8
 476 628 476 628 476 501 c 2,9,-1
 476 242 l 2,10,11
 476 115 476 115 419 50 c 128,-1,12
 362 -15 362 -15 251 -15 c 0,13,0
 139 -15 139 -15 82 50 c 128,-1,1
294 213 m 2,15,-1
 294 530 l 2,16,17
 294 597 294 597 251 597 c 0,18,19
 207 597 207 597 207 530 c 2,20,-1
 207 213 l 2,21,22
 207 147 207 147 251 147 c 0,23,14
 294 147 294 147 294 213 c 2,15,-1
EndSplineSet
Substitution2: "'c2sc' Capitals to Small Capitals in Latin lookup 16 subtable" o.sc
Substitution2: "'aalt' Access All Alternates in Latin lookup 0 subtable" o.sc
EndChar

StartChar: P
Encoding: 80 80 18
Width: 487
GlyphClass: 2
Flags: W
AnchorPoint: "Anchor-18" 245 744 basechar 0
AnchorPoint: "Anchor-15" 245 0 basechar 0
LayerCount: 2
Fore
SplineSet
33 0 m 1,0,-1
 33 744 l 1,1,-1
 256 744 l 2,2,3
 363 744 363 744 420.5 685.5 c 128,-1,4
 478 627 478 627 478 511 c 2,5,-1
 478 426 l 2,6,7
 478 306 478 306 424.5 246.5 c 128,-1,8
 371 187 371 187 275 187 c 2,9,-1
 215 187 l 1,10,-1
 215 0 l 1,11,-1
 33 0 l 1,0,-1
240 348 m 2,12,13
 267 348 267 348 281 364.5 c 128,-1,14
 295 381 295 381 295 426 c 2,15,-1
 295 507 l 2,16,17
 295 549 295 549 282 566 c 128,-1,18
 269 583 269 583 242 583 c 2,19,-1
 215 583 l 1,20,-1
 215 348 l 1,21,-1
 240 348 l 2,12,13
EndSplineSet
Substitution2: "'c2sc' Capitals to Small Capitals in Latin lookup 16 subtable" p.sc
Substitution2: "'aalt' Access All Alternates in Latin lookup 0 subtable" p.sc
EndChar

StartChar: Q
Encoding: 81 81 19
Width: 501
GlyphClass: 2
Flags: W
AnchorPoint: "Anchor-19" 308 753 basechar 0
AnchorPoint: "Anchor-18" 243 744 basechar 0
AnchorPoint: "Anchor-17" 366 10 basechar 0
AnchorPoint: "Anchor-16" 254 372 basechar 0
AnchorPoint: "Anchor-15" 243 0 basechar 0
LayerCount: 2
Fore
SplineSet
419 693 m 128,-1,1
 476 628 476 628 476 501 c 2,2,-1
 476 242 l 2,3,4
 476 141 476 141 439.5 78.5 c 128,-1,5
 403 16 403 16 331 -5 c 1,6,-1
 331 -126 l 1,7,-1
 178 -126 l 1,8,-1
 178 -7 l 1,9,10
 25 32 25 32 25 242 c 2,11,-1
 25 501 l 2,12,13
 25 628 25 628 82 693 c 128,-1,14
 139 758 139 758 250 758 c 0,15,0
 362 758 362 758 419 693 c 128,-1,1
207 213 m 2,16,17
 207 147 207 147 251 147 c 0,18,19
 294 147 294 147 294 213 c 2,20,-1
 294 530 l 2,21,22
 294 597 294 597 251 597 c 0,23,24
 207 597 207 597 207 530 c 2,25,-1
 207 213 l 2,16,17
EndSplineSet
Substitution2: "'ss03' Style Set 3 in Latin lookup 23 subtable" Q.ss03
Substitution2: "'c2sc' Capitals to Small Capitals in Latin lookup 16 subtable" q.sc
AlternateSubs2: "'aalt' Access All Alternates in Latin lookup 1 subtable" q.sc Q.ss03
EndChar

StartChar: R
Encoding: 82 82 20
Width: 491
GlyphClass: 2
Flags: W
AnchorPoint: "Anchor-18" 253 744 basechar 0
AnchorPoint: "Anchor-15" 253 0 basechar 0
LayerCount: 2
Fore
SplineSet
33 0 m 1,0,-1
 33 744 l 1,1,-1
 258 744 l 2,2,3
 367 744 367 744 422.5 695 c 128,-1,4
 478 646 478 646 478 553 c 2,5,-1
 478 490 l 2,6,7
 478 430 478 430 454 389.5 c 128,-1,8
 430 349 430 349 384 334 c 1,9,-1
 384 333 l 1,10,11
 429 323 429 323 449.5 282.5 c 128,-1,12
 470 242 470 242 472 176 c 2,13,-1
 474 86 l 2,14,15
 476 24 476 24 486 0 c 1,16,-1
 305 0 l 1,17,18
 298 38 298 38 295 117 c 2,19,-1
 292 197 l 2,20,21
 290 228 290 228 277 242.5 c 128,-1,22
 264 257 264 257 237 257 c 2,23,-1
 215 257 l 1,24,-1
 215 0 l 1,25,-1
 33 0 l 1,0,-1
245 390 m 2,26,27
 269 390 269 390 282 405.5 c 128,-1,28
 295 421 295 421 295 461 c 2,29,-1
 295 527 l 2,30,31
 295 564 295 564 283 579 c 128,-1,32
 271 594 271 594 247 594 c 2,33,-1
 215 594 l 1,34,-1
 215 390 l 1,35,-1
 245 390 l 2,26,27
EndSplineSet
Substitution2: "'ss03' Style Set 3 in Latin lookup 23 subtable" R.ss03
Substitution2: "'c2sc' Capitals to Small Capitals in Latin lookup 16 subtable" r.sc
AlternateSubs2: "'aalt' Access All Alternates in Latin lookup 1 subtable" r.sc R.ss03
EndChar

StartChar: S
Encoding: 83 83 21
Width: 479
GlyphClass: 2
Flags: W
AnchorPoint: "Anchor-18" 240 744 basechar 0
AnchorPoint: "Anchor-15" 240 0 basechar 0
LayerCount: 2
Fore
SplineSet
15 202 m 2,1,-1
 15 247 l 1,2,-1
 193 247 l 1,3,-1
 193 202 l 2,4,5
 193 140 193 140 241 140 c 0,6,7
 259 140 259 140 269.5 151.5 c 128,-1,8
 280 163 280 163 280 181 c 2,9,-1
 280 228 l 2,10,11
 280 248 280 248 272.5 260 c 128,-1,12
 265 272 265 272 248 282 c 128,-1,13
 231 292 231 292 189 312 c 2,14,-1
 171 321 l 2,15,16
 113 349 113 349 80.5 375.5 c 128,-1,17
 48 402 48 402 34 437 c 128,-1,18
 20 472 20 472 19 524 c 2,19,-1
 19 567 l 2,20,21
 19 659 19 659 79 708.5 c 128,-1,22
 139 758 139 758 239 758 c 0,23,24
 345 758 345 758 401.5 701.5 c 128,-1,25
 458 645 458 645 456 541 c 2,26,-1
 456 500 l 1,27,-1
 285 500 l 1,28,-1
 285 541 l 2,29,30
 285 603 285 603 239 603 c 0,31,32
 220 603 220 603 211 593 c 128,-1,33
 202 583 202 583 202 566 c 2,34,-1
 202 524 l 2,35,36
 202 500 202 500 217.5 486 c 128,-1,37
 233 472 233 472 271 455 c 0,38,39
 345 423 345 423 386.5 392 c 128,-1,40
 428 361 428 361 446 322 c 128,-1,41
 464 283 464 283 464 226 c 2,42,-1
 464 178 l 2,43,44
 464 87 464 87 402.5 36 c 128,-1,45
 341 -15 341 -15 241 -15 c 0,46,0
 15 -15 15 -15 15 202 c 2,1,-1
EndSplineSet
Substitution2: "'c2sc' Capitals to Small Capitals in Latin lookup 16 subtable" s.sc
Substitution2: "'aalt' Access All Alternates in Latin lookup 0 subtable" s.sc
EndChar

StartChar: T
Encoding: 84 84 22
Width: 419
GlyphClass: 2
Flags: W
AnchorPoint: "Anchor-18" 210 744 basechar 0
AnchorPoint: "Anchor-16" 210 372 basechar 0
AnchorPoint: "Anchor-15" 209 -1 basechar 0
LayerCount: 2
Fore
SplineSet
301 0 m 1,0,-1
 118 0 l 1,1,-1
 118 577 l 1,2,-1
 8 577 l 1,3,-1
 8 744 l 1,4,-1
 411 744 l 1,5,-1
 411 577 l 1,6,-1
 301 577 l 1,7,-1
 301 0 l 1,0,-1
EndSplineSet
Substitution2: "'c2sc' Capitals to Small Capitals in Latin lookup 16 subtable" t.sc
Substitution2: "'aalt' Access All Alternates in Latin lookup 0 subtable" t.sc
EndChar

StartChar: U
Encoding: 85 85 23
Width: 503
GlyphClass: 2
Flags: W
AnchorPoint: "Anchor-19" 393 744 basechar 0
AnchorPoint: "Anchor-18" 248 744 basechar 0
AnchorPoint: "Anchor-17" 370 10 basechar 0
AnchorPoint: "Anchor-15" 248 0 basechar 0
LayerCount: 2
Fore
SplineSet
81 44 m 128,-1,1
 27 103 27 103 27 231 c 2,2,-1
 27 744 l 1,3,-1
 209 744 l 1,4,-1
 209 211 l 2,5,6
 209 147 209 147 251 147 c 0,7,8
 272 147 272 147 283 163 c 128,-1,9
 294 179 294 179 294 211 c 2,10,-1
 294 744 l 1,11,-1
 476 744 l 1,12,-1
 476 232 l 2,13,14
 476 104 476 104 422 44.5 c 128,-1,15
 368 -15 368 -15 251 -15 c 0,16,0
 135 -15 135 -15 81 44 c 128,-1,1
EndSplineSet
Substitution2: "'c2sc' Capitals to Small Capitals in Latin lookup 16 subtable" u.sc
Substitution2: "'aalt' Access All Alternates in Latin lookup 0 subtable" u.sc
EndChar

StartChar: V
Encoding: 86 86 24
Width: 518
GlyphClass: 2
Flags: W
AnchorPoint: "Anchor-18" 245 744 basechar 0
AnchorPoint: "Anchor-17" 495 744 basechar 0
AnchorPoint: "Anchor-16" 259 556 basechar 0
AnchorPoint: "Anchor-15" 245 0 basechar 0
LayerCount: 2
Fore
SplineSet
139 0 m 1,0,-1
 3 744 l 1,1,-1
 189 744 l 1,2,-1
 252 247 l 1,3,-1
 258 173 l 1,4,-1
 260 173 l 1,5,-1
 266 247 l 1,6,-1
 330 744 l 1,7,-1
 515 744 l 1,8,-1
 379 0 l 1,9,-1
 139 0 l 1,0,-1
EndSplineSet
Substitution2: "'c2sc' Capitals to Small Capitals in Latin lookup 16 subtable" v.sc
Substitution2: "'aalt' Access All Alternates in Latin lookup 0 subtable" v.sc
EndChar

StartChar: W
Encoding: 87 87 25
Width: 792
GlyphClass: 2
Flags: W
AnchorPoint: "Anchor-18" 403 744 basechar 0
AnchorPoint: "Anchor-15" 403 0 basechar 0
LayerCount: 2
Fore
SplineSet
348 0 m 1,0,-1
 114 0 l 1,1,-1
 3 744 l 1,2,-1
 188 744 l 1,3,-1
 234 237 l 1,4,-1
 238 179 l 1,5,-1
 240 179 l 1,6,-1
 244 237 l 1,7,-1
 294 744 l 1,8,-1
 498 744 l 1,9,-1
 548 237 l 1,10,-1
 552 179 l 1,11,-1
 554 179 l 1,12,-1
 558 237 l 1,13,-1
 604 744 l 1,14,-1
 789 744 l 1,15,-1
 678 0 l 1,16,-1
 445 0 l 1,17,-1
 401 481 l 1,18,-1
 398 532 l 1,19,-1
 395 532 l 1,20,-1
 392 481 l 1,21,-1
 348 0 l 1,0,-1
EndSplineSet
Substitution2: "'c2sc' Capitals to Small Capitals in Latin lookup 16 subtable" w.sc
Substitution2: "'aalt' Access All Alternates in Latin lookup 0 subtable" w.sc
EndChar

StartChar: X
Encoding: 88 88 26
Width: 520
GlyphClass: 2
Flags: W
AnchorPoint: "Anchor-18" 261 744 basechar 0
AnchorPoint: "Anchor-15" 261 0 basechar 0
LayerCount: 2
Fore
SplineSet
197 0 m 1,0,-1
 4 0 l 1,1,-1
 117 384 l 1,2,-1
 16 744 l 1,3,-1
 208 744 l 1,4,-1
 251 520 l 1,5,-1
 259 466 l 1,6,-1
 261 466 l 1,7,-1
 268 520 l 1,8,-1
 313 744 l 1,9,-1
 505 744 l 1,10,-1
 403 385 l 1,11,-1
 516 0 l 1,12,-1
 324 0 l 1,13,-1
 270 247 l 1,14,-1
 261 299 l 1,15,-1
 259 299 l 1,16,-1
 250 246 l 1,17,-1
 197 0 l 1,0,-1
EndSplineSet
Substitution2: "'c2sc' Capitals to Small Capitals in Latin lookup 16 subtable" x.sc
Substitution2: "'aalt' Access All Alternates in Latin lookup 0 subtable" x.sc
EndChar

StartChar: Y
Encoding: 89 89 27
Width: 492
GlyphClass: 2
Flags: W
AnchorPoint: "Anchor-18" 247 744 basechar 0
AnchorPoint: "Anchor-15" 247 0 basechar 0
LayerCount: 2
Fore
SplineSet
337 0 m 1,0,-1
 155 0 l 1,1,-1
 155 202 l 1,2,-1
 3 744 l 1,3,-1
 192 744 l 1,4,-1
 242 433 l 1,5,-1
 245 401 l 1,6,-1
 247 401 l 1,7,-1
 251 433 l 1,8,-1
 300 744 l 1,9,-1
 489 744 l 1,10,-1
 337 202 l 1,11,-1
 337 0 l 1,0,-1
EndSplineSet
Substitution2: "'c2sc' Capitals to Small Capitals in Latin lookup 16 subtable" y.sc
Substitution2: "'aalt' Access All Alternates in Latin lookup 0 subtable" y.sc
EndChar

StartChar: Z
Encoding: 90 90 28
Width: 430
GlyphClass: 2
Flags: W
AnchorPoint: "Anchor-18" 215 744 basechar 0
AnchorPoint: "Anchor-16" 215 372 basechar 0
AnchorPoint: "Anchor-15" 215 0 basechar 0
LayerCount: 2
Fore
SplineSet
419 0 m 1,0,-1
 11 0 l 1,1,-1
 11 141 l 1,2,-1
 204 572 l 1,3,-1
 19 572 l 1,4,-1
 19 744 l 1,5,-1
 415 744 l 1,6,-1
 415 611 l 1,7,-1
 218 172 l 1,8,-1
 419 172 l 1,9,-1
 419 0 l 1,0,-1
EndSplineSet
Substitution2: "'c2sc' Capitals to Small Capitals in Latin lookup 16 subtable" z.sc
Substitution2: "'aalt' Access All Alternates in Latin lookup 0 subtable" z.sc
EndChar

StartChar: AE
Encoding: 198 198 29
Width: 682
GlyphClass: 2
Flags: W
AnchorPoint: "Anchor-18" 452 744 basechar 0
AnchorPoint: "Anchor-15" 345 0 basechar 0
LayerCount: 2
Fore
SplineSet
478 301 m 1,0,-1
 478 162 l 1,1,-1
 663 162 l 1,2,-1
 663 0 l 1,3,-1
 296 0 l 1,4,-1
 296 148 l 1,5,-1
 212 148 l 1,6,-1
 182 0 l 1,7,-1
 3 0 l 1,8,-1
 185 744 l 1,9,-1
 657 744 l 1,10,-1
 657 584 l 1,11,-1
 478 584 l 1,12,-1
 478 452 l 1,13,-1
 638 452 l 1,14,-1
 638 301 l 1,15,-1
 478 301 l 1,0,-1
282 491 m 1,16,-1
 238 277 l 1,17,-1
 296 277 l 1,18,-1
 296 605 l 1,19,-1
 292 605 l 1,20,-1
 282 491 l 1,16,-1
EndSplineSet
Substitution2: "'c2sc' Capitals to Small Capitals in Latin lookup 16 subtable" ae.sc
Substitution2: "'aalt' Access All Alternates in Latin lookup 0 subtable" ae.sc
EndChar

StartChar: OE
Encoding: 338 338 30
Width: 668
GlyphClass: 2
Flags: W
AnchorPoint: "Anchor-18" 328 744 basechar 0
AnchorPoint: "Anchor-17" 649 0 basechar 0
AnchorPoint: "Anchor-15" 328 0 basechar 0
LayerCount: 2
Fore
SplineSet
649 163 m 1,0,-1
 649 0 l 1,1,-1
 349 0 l 1,2,3
 308 -15 308 -15 250 -15 c 0,4,5
 136 -15 136 -15 80.5 49 c 128,-1,6
 25 113 25 113 25 243 c 2,7,-1
 25 501 l 2,8,9
 25 631 25 631 80 694.5 c 128,-1,10
 135 758 135 758 250 758 c 0,11,12
 305 758 305 758 347 744 c 1,13,-1
 642 744 l 1,14,-1
 642 584 l 1,15,-1
 463 584 l 1,16,-1
 463 454 l 1,17,-1
 622 454 l 1,18,-1
 622 302 l 1,19,-1
 463 302 l 1,20,-1
 463 163 l 1,21,-1
 649 163 l 1,0,-1
281 178 m 1,23,-1
 281 566 l 1,24,25
 273 597 273 597 251 597 c 0,26,27
 230 597 230 597 218.5 579.5 c 128,-1,28
 207 562 207 562 207 528 c 2,29,-1
 207 216 l 2,30,31
 207 182 207 182 218.5 164.5 c 128,-1,32
 230 147 230 147 251 147 c 0,33,22
 273 147 273 147 281 178 c 1,23,-1
EndSplineSet
Substitution2: "'c2sc' Capitals to Small Capitals in Latin lookup 16 subtable" oe.sc
Substitution2: "'aalt' Access All Alternates in Latin lookup 0 subtable" oe.sc
EndChar

StartChar: Eth
Encoding: 208 208 31
Width: 506
GlyphClass: 2
Flags: W
AnchorPoint: "Anchor-18" 253 744 basechar 0
AnchorPoint: "Anchor-16" 130 372 basechar 0
AnchorPoint: "Anchor-15" 253 0 basechar 0
LayerCount: 2
Fore
SplineSet
265 744 m 2,0,1
 377 744 377 744 429 677 c 128,-1,2
 481 610 481 610 481 476 c 2,3,-1
 481 268 l 2,4,5
 481 134 481 134 428.5 67 c 128,-1,6
 376 0 376 0 266 0 c 2,7,-1
 33 0 l 1,8,-1
 33 324 l 1,9,-1
 3 324 l 1,10,-1
 3 413 l 1,11,-1
 33 413 l 1,12,-1
 33 744 l 1,13,-1
 265 744 l 2,0,1
299 510 m 2,14,15
 299 553 299 553 285.5 570.5 c 128,-1,16
 272 588 272 588 244 588 c 2,17,-1
 215 588 l 1,18,-1
 215 413 l 1,19,-1
 256 413 l 1,20,-1
 256 324 l 1,21,-1
 215 324 l 1,22,-1
 215 155 l 1,23,-1
 244 155 l 2,24,25
 272 155 272 155 285.5 173 c 128,-1,26
 299 191 299 191 299 234 c 2,27,-1
 299 510 l 2,14,15
EndSplineSet
Substitution2: "'c2sc' Capitals to Small Capitals in Latin lookup 16 subtable" eth.sc
Substitution2: "'aalt' Access All Alternates in Latin lookup 0 subtable" eth.sc
EndChar

StartChar: Thorn
Encoding: 222 222 32
Width: 476
GlyphClass: 2
Flags: W
AnchorPoint: "Anchor-18" 241 744 basechar 0
AnchorPoint: "Anchor-15" 241 0 basechar 0
LayerCount: 2
Fore
SplineSet
281 629 m 2,0,1
 366 629 366 629 416.5 576.5 c 128,-1,2
 467 524 467 524 467 440 c 2,3,-1
 467 305 l 2,4,5
 467 217 467 217 418 163.5 c 128,-1,6
 369 110 369 110 286 110 c 2,7,-1
 215 110 l 1,8,-1
 215 0 l 1,9,-1
 33 0 l 1,10,-1
 33 744 l 1,11,-1
 215 744 l 1,12,-1
 215 629 l 1,13,-1
 281 629 l 2,0,1
285 436 m 2,14,15
 285 457 285 457 274.5 468 c 128,-1,16
 264 479 264 479 245 479 c 2,17,-1
 215 479 l 1,18,-1
 215 260 l 1,19,-1
 244 260 l 2,20,21
 263 260 263 260 274 272 c 128,-1,22
 285 284 285 284 285 305 c 2,23,-1
 285 436 l 2,14,15
EndSplineSet
Substitution2: "'c2sc' Capitals to Small Capitals in Latin lookup 16 subtable" thorn.sc
Substitution2: "'aalt' Access All Alternates in Latin lookup 0 subtable" thorn.sc
EndChar

StartChar: uni1E9E
Encoding: 7838 7838 33
Width: 472
GlyphClass: 2
Flags: W
AnchorPoint: "Anchor-18" 236 744 basechar 0
AnchorPoint: "Anchor-15" 236 0 basechar 0
LayerCount: 2
Fore
SplineSet
30 564 m 2,0,1
 30 655 30 655 76.5 699.5 c 128,-1,2
 123 744 123 744 221 744 c 2,3,-1
 421 744 l 1,4,-1
 421 602 l 1,5,-1
 349 428 l 1,6,7
 405 424 405 424 430 381 c 128,-1,8
 455 338 455 338 455 278 c 2,9,-1
 455 206 l 2,10,11
 455 102 455 102 407 51 c 128,-1,12
 359 0 359 0 254 0 c 2,13,-1
 228 0 l 1,14,-1
 228 149 l 1,15,-1
 235 149 l 2,16,17
 253 149 253 149 263.5 161 c 128,-1,18
 274 173 274 173 274 204 c 2,19,-1
 274 284 l 2,20,21
 274 313 274 313 263 324 c 128,-1,22
 252 335 252 335 228 335 c 1,23,-1
 228 439 l 1,24,-1
 278 583 l 1,25,-1
 235 583 l 2,26,27
 215 583 215 583 206.5 571 c 128,-1,28
 198 559 198 559 198 530 c 2,29,-1
 198 0 l 1,30,-1
 30 0 l 1,31,-1
 30 564 l 2,0,1
EndSplineSet
Substitution2: "'c2sc' Capitals to Small Capitals in Latin lookup 16 subtable" germandbls.sc
Substitution2: "'aalt' Access All Alternates in Latin lookup 0 subtable" germandbls.sc
EndChar

StartChar: a
Encoding: 97 97 34
Width: 468
GlyphClass: 2
Flags: W
AnchorPoint: "Anchor-18" 233 595 basechar 0
AnchorPoint: "Anchor-17" 440 0 basechar 0
AnchorPoint: "Anchor-15" 232 0 basechar 0
LayerCount: 2
Fore
SplineSet
440 408 m 2,1,-1
 440 0 l 1,2,-1
 265 0 l 1,3,-1
 265 28 l 1,4,-1
 268 59 l 1,5,-1
 266 59 l 1,6,7
 232 -15 232 -15 157 -15 c 0,8,9
 92 -15 92 -15 54.5 27 c 128,-1,10
 17 69 17 69 17 144 c 2,11,-1
 17 186 l 2,12,13
 17 263 17 263 60.5 305 c 128,-1,14
 104 347 104 347 191 347 c 0,15,16
 228 347 228 347 264 335 c 1,17,-1
 264 418 l 2,18,19
 264 469 264 469 229 469 c 0,20,21
 212 469 212 469 203.5 455.5 c 128,-1,22
 195 442 195 442 195 421 c 2,23,-1
 195 382 l 1,24,-1
 25 382 l 1,25,-1
 25 407 l 2,26,27
 25 502 25 502 76 556 c 128,-1,28
 127 610 127 610 230 610 c 0,29,0
 440 610 440 610 440 408 c 2,1,-1
255.5 145 m 128,-1,31
 264 163 264 163 264 198 c 2,32,-1
 264 260 l 1,33,34
 248 270 248 270 228 270 c 0,35,36
 189 270 189 270 189 217 c 2,37,-1
 189 175 l 2,38,39
 189 149 189 149 197.5 138 c 128,-1,40
 206 127 206 127 225 127 c 0,41,30
 247 127 247 127 255.5 145 c 128,-1,31
EndSplineSet
Substitution2: "'ss01' Style Set 1 in Latin lookup 21 subtable" a.ss01
Substitution2: "'salt' Stylistic Alternatives in Latin lookup 20 subtable" a.ss01
Substitution2: "'smcp' Lowercase to Small Capitals in Latin lookup 17 subtable" a.sc
AlternateSubs2: "'aalt' Access All Alternates in Latin lookup 1 subtable" a.sc a.ss01
EndChar

StartChar: b
Encoding: 98 98 35
Width: 473
GlyphClass: 2
Flags: W
AnchorPoint: "Anchor-18" 233 766 basechar 0
AnchorPoint: "Anchor-15" 233 0 basechar 0
LayerCount: 2
Fore
SplineSet
421.5 553 m 128,-1,1
 453 496 453 496 453 369 c 2,2,-1
 453 233 l 2,3,4
 453 101 453 101 421.5 43 c 128,-1,5
 390 -15 390 -15 316 -15 c 0,6,7
 279 -15 279 -15 248.5 5 c 128,-1,8
 218 25 218 25 202 62 c 1,9,-1
 199 62 l 1,10,-1
 203 24 l 1,11,-1
 203 0 l 1,12,-1
 28 0 l 1,13,-1
 28 766 l 1,14,-1
 204 766 l 1,15,-1
 204 576 l 1,16,-1
 201 534 l 1,17,-1
 202 534 l 1,18,19
 219 571 219 571 249 590.5 c 128,-1,20
 279 610 279 610 316 610 c 0,21,0
 390 610 390 610 421.5 553 c 128,-1,1
278 397 m 2,22,23
 278 431 278 431 271 450 c 128,-1,24
 264 469 264 469 242 469 c 256,25,26
 220 469 220 469 212 450.5 c 128,-1,27
 204 432 204 432 204 400 c 2,28,-1
 204 192 l 2,29,30
 204 162 204 162 212.5 144.5 c 128,-1,31
 221 127 221 127 242 127 c 0,32,33
 264 127 264 127 271 143.5 c 128,-1,34
 278 160 278 160 278 195 c 2,35,-1
 278 397 l 2,22,23
EndSplineSet
Substitution2: "'smcp' Lowercase to Small Capitals in Latin lookup 17 subtable" b.sc
Substitution2: "'aalt' Access All Alternates in Latin lookup 0 subtable" b.sc
EndChar

StartChar: c
Encoding: 99 99 36
Width: 445
GlyphClass: 2
Flags: W
AnchorPoint: "Anchor-18" 226 595 basechar 0
AnchorPoint: "Anchor-16" 229 298 basechar 0
AnchorPoint: "Anchor-15" 226 0 basechar 0
LayerCount: 2
Fore
SplineSet
71.5 47.5 m 128,-1,1
 20 109 20 109 20 228 c 2,2,-1
 20 371 l 2,3,4
 20 489 20 489 72.5 549.5 c 128,-1,5
 125 610 125 610 230 610 c 0,6,7
 323 610 323 610 376.5 553.5 c 128,-1,8
 430 497 430 497 430 382 c 2,9,-1
 430 344 l 1,10,-1
 265 344 l 1,11,-1
 265 415 l 2,12,13
 265 442 265 442 257 455.5 c 128,-1,14
 249 469 249 469 231 469 c 0,15,16
 195 469 195 469 195 412 c 2,17,-1
 195 186 l 2,18,19
 195 126 195 126 231 126 c 0,20,21
 265 126 265 126 265 183 c 2,22,-1
 265 259 l 1,23,-1
 430 259 l 1,24,-1
 430 218 l 2,25,26
 430 -14 430 -14 226 -14 c 0,27,0
 123 -14 123 -14 71.5 47.5 c 128,-1,1
EndSplineSet
Substitution2: "'smcp' Lowercase to Small Capitals in Latin lookup 17 subtable" c.sc
Substitution2: "'aalt' Access All Alternates in Latin lookup 0 subtable" c.sc
EndChar

StartChar: d
Encoding: 100 100 37
Width: 473
GlyphClass: 2
Flags: W
AnchorPoint: "Anchor-19" 465 766 basechar 0
AnchorPoint: "Anchor-18" 233 766 basechar 0
AnchorPoint: "Anchor-16" 303 688 basechar 0
AnchorPoint: "Anchor-15" 233 0 basechar 0
LayerCount: 2
Fore
SplineSet
269 766 m 1,0,-1
 445 766 l 1,1,-1
 445 0 l 1,2,-1
 270 0 l 1,3,-1
 270 24 l 1,4,-1
 274 62 l 1,5,-1
 271 62 l 1,6,7
 256 25 256 25 225.5 5 c 128,-1,8
 195 -15 195 -15 157 -15 c 0,9,10
 83 -15 83 -15 51.5 43 c 128,-1,11
 20 101 20 101 20 233 c 2,12,-1
 20 369 l 2,13,14
 20 496 20 496 52 553 c 128,-1,15
 84 610 84 610 158 610 c 0,16,17
 195 610 195 610 225 590.5 c 128,-1,18
 255 571 255 571 271 534 c 1,19,-1
 273 534 l 1,20,-1
 269 576 l 1,21,-1
 269 766 l 1,0,-1
260.5 144.5 m 128,-1,23
 269 162 269 162 269 192 c 2,24,-1
 269 400 l 2,25,26
 269 432 269 432 261 450.5 c 128,-1,27
 253 469 253 469 232 469 c 0,28,29
 210 469 210 469 202.5 450 c 128,-1,30
 195 431 195 431 195 397 c 2,31,-1
 195 195 l 2,32,33
 195 160 195 160 202 143.5 c 128,-1,34
 209 127 209 127 231 127 c 0,35,22
 252 127 252 127 260.5 144.5 c 128,-1,23
EndSplineSet
Substitution2: "'smcp' Lowercase to Small Capitals in Latin lookup 17 subtable" d.sc
Substitution2: "'aalt' Access All Alternates in Latin lookup 0 subtable" d.sc
EndChar

StartChar: e
Encoding: 101 101 38
Width: 448
GlyphClass: 2
Flags: W
AnchorPoint: "Anchor-18" 224 595 basechar 0
AnchorPoint: "Anchor-17" 329 8 basechar 0
AnchorPoint: "Anchor-15" 224 0 basechar 0
LayerCount: 2
Fore
SplineSet
429 252 m 1,0,-1
 195 252 l 1,1,-1
 195 187 l 2,2,3
 195 155 195 155 203 138 c 128,-1,4
 211 121 211 121 230 121 c 256,5,6
 249 121 249 121 257 134.5 c 128,-1,7
 265 148 265 148 265 177 c 2,8,-1
 265 209 l 1,9,-1
 428 209 l 1,10,-1
 428 178 l 2,11,12
 426 86 426 86 373 35.5 c 128,-1,13
 320 -15 320 -15 226 -15 c 0,14,15
 124 -15 124 -15 72 48.5 c 128,-1,16
 20 112 20 112 20 227 c 2,17,-1
 20 371 l 2,18,19
 20 485 20 485 73 547.5 c 128,-1,20
 126 610 126 610 228 610 c 0,21,22
 325 610 325 610 377 554 c 128,-1,23
 429 498 429 498 429 392 c 2,24,-1
 429 252 l 1,0,-1
203 460 m 128,-1,26
 195 444 195 444 195 411 c 2,27,-1
 195 350 l 1,28,-1
 265 350 l 1,29,-1
 265 410 l 2,30,31
 266 444 266 444 257.5 460 c 128,-1,32
 249 476 249 476 230 476 c 256,33,25
 211 476 211 476 203 460 c 128,-1,26
EndSplineSet
Substitution2: "'ss03' Style Set 3 in Latin lookup 23 subtable" e.ss03
Substitution2: "'smcp' Lowercase to Small Capitals in Latin lookup 17 subtable" e.sc
AlternateSubs2: "'aalt' Access All Alternates in Latin lookup 1 subtable" e.sc e.ss03
EndChar

StartChar: f
Encoding: 102 102 39
Width: 337
GlyphClass: 2
Flags: W
AnchorPoint: "Anchor-18" 164 766 basechar 0
AnchorPoint: "Anchor-15" 164 0 basechar 0
LayerCount: 2
Fore
SplineSet
254.5 655.5 m 128,-1,1
 242 650 242 650 237.5 636.5 c 128,-1,2
 233 623 233 623 232 595 c 1,3,-1
 334 595 l 1,4,-1
 334 454 l 1,5,-1
 232 454 l 1,6,-1
 232 0 l 1,7,-1
 56 0 l 1,8,-1
 56 454 l 1,9,-1
 5 454 l 1,10,-1
 5 595 l 1,11,-1
 57 595 l 1,12,13
 61 700 61 700 107 743 c 128,-1,14
 153 786 153 786 252 786 c 0,15,16
 281 786 281 786 308 782 c 128,-1,17
 335 778 335 778 339 777 c 1,18,-1
 331 658 l 1,19,20
 311 661 311 661 294 661 c 0,21,0
 267 661 267 661 254.5 655.5 c 128,-1,1
EndSplineSet
Substitution2: "'smcp' Lowercase to Small Capitals in Latin lookup 17 subtable" f.sc
Substitution2: "'aalt' Access All Alternates in Latin lookup 0 subtable" f.sc
EndChar

StartChar: g
Encoding: 103 103 40
Width: 473
GlyphClass: 2
Flags: W
AnchorPoint: "Anchor-18" 241 595 basechar 0
AnchorPoint: "Anchor-15" 241 -163 basechar 0
LayerCount: 2
Fore
SplineSet
270 595 m 1,0,-1
 445 595 l 1,1,-1
 445 46 l 2,2,3
 445 -69 445 -69 384.5 -124 c 128,-1,4
 324 -179 324 -179 199 -179 c 0,5,6
 129 -179 129 -179 63 -161 c 1,7,-1
 69 -25 l 1,8,9
 86 -31 86 -31 115.5 -35 c 128,-1,10
 145 -39 145 -39 173 -39 c 0,11,12
 220 -39 220 -39 243 -19 c 128,-1,13
 266 1 266 1 269 42 c 2,14,-1
 269 46 l 1,15,-1
 274 96 l 1,16,-1
 271 96 l 1,17,18
 256 59 256 59 225.5 39.5 c 128,-1,19
 195 20 195 20 158 20 c 0,20,21
 84 20 84 20 52 77 c 128,-1,22
 20 134 20 134 20 266 c 2,23,-1
 20 372 l 2,24,25
 20 497 20 497 52 553.5 c 128,-1,26
 84 610 84 610 158 610 c 0,27,28
 195 610 195 610 225.5 590.5 c 128,-1,29
 256 571 256 571 271 534 c 1,30,-1
 274 534 l 1,31,-1
 270 570 l 1,32,-1
 270 595 l 1,0,-1
269 226 m 2,34,-1
 269 400 l 2,35,36
 269 469 269 469 232 469 c 0,37,38
 210 469 210 469 202.5 450.5 c 128,-1,39
 195 432 195 432 195 399 c 2,40,-1
 195 224 l 2,41,42
 195 195 195 195 202.5 179.5 c 128,-1,43
 210 164 210 164 231 164 c 0,44,33
 269 164 269 164 269 226 c 2,34,-1
EndSplineSet
Substitution2: "'ss02' Style Set 2 in Latin lookup 22 subtable" g.ss02
Substitution2: "'smcp' Lowercase to Small Capitals in Latin lookup 17 subtable" g.sc
AlternateSubs2: "'aalt' Access All Alternates in Latin lookup 1 subtable" g.sc g.ss02
EndChar

StartChar: h
Encoding: 104 104 41
Width: 480
GlyphClass: 2
Flags: W
AnchorPoint: "Anchor-18" 115 743 basechar 0
AnchorPoint: "Anchor-16" 163 686 basechar 0
AnchorPoint: "Anchor-15" 238 0 basechar 0
LayerCount: 2
Fore
SplineSet
452 442 m 2,1,-1
 452 0 l 1,2,-1
 277 0 l 1,3,-1
 277 417 l 2,4,5
 277 441 277 441 268 453.5 c 128,-1,6
 259 466 259 466 243 466 c 0,7,8
 224 466 224 466 214 449 c 128,-1,9
 204 432 204 432 204 405 c 2,10,-1
 204 0 l 1,11,-1
 28 0 l 1,12,-1
 28 766 l 1,13,-1
 203 766 l 1,14,-1
 203 571 l 1,15,-1
 200 534 l 1,16,-1
 203 534 l 1,17,18
 220 572 220 572 250 591 c 128,-1,19
 280 610 280 610 318 610 c 0,20,0
 452 610 452 610 452 442 c 2,1,-1
EndSplineSet
Substitution2: "'smcp' Lowercase to Small Capitals in Latin lookup 17 subtable" h.sc
Substitution2: "'aalt' Access All Alternates in Latin lookup 0 subtable" h.sc
EndChar

StartChar: i
Encoding: 105 105 42
Width: 233
GlyphClass: 2
Flags: W
AnchorPoint: "Anchor-18" 116 595 basechar 0
AnchorPoint: "Anchor-17" 169 0 basechar 0
AnchorPoint: "Anchor-15" 116 0 basechar 0
LayerCount: 2
Fore
SplineSet
43 659 m 128,-1,1
 20 679 20 679 20 725 c 0,2,3
 20 770 20 770 43 790.5 c 128,-1,4
 66 811 66 811 117 811 c 256,5,6
 168 811 168 811 191 790.5 c 128,-1,7
 214 770 214 770 214 725 c 0,8,9
 214 679 214 679 191 659 c 128,-1,10
 168 639 168 639 117 639 c 256,11,0
 66 639 66 639 43 659 c 128,-1,1
204 0 m 1,12,-1
 28 0 l 1,13,-1
 28 595 l 1,14,-1
 204 595 l 1,15,-1
 204 0 l 1,12,-1
EndSplineSet
Substitution2: "Single Substitution lookup 25 subtable" dotlessi
Substitution2: "'ss03' Style Set 3 in Latin lookup 23 subtable" i.ss03
Substitution2: "'smcp' Lowercase to Small Capitals in Latin lookup 17 subtable" i.sc
Substitution2: "'locl' Localized Forms in Latin lookup 6 subtable" i.loclTRK
AlternateSubs2: "'aalt' Access All Alternates in Latin lookup 1 subtable" i.loclTRK i.sc i.ss03
EndChar

StartChar: dotlessi
Encoding: 305 305 43
Width: 233
GlyphClass: 2
Flags: W
AnchorPoint: "Anchor-18" 116 595 basechar 0
AnchorPoint: "Anchor-17" 169 0 basechar 0
AnchorPoint: "Anchor-15" 116 0 basechar 0
LayerCount: 2
Fore
SplineSet
204 0 m 1,0,-1
 28 0 l 1,1,-1
 28 595 l 1,2,-1
 204 595 l 1,3,-1
 204 0 l 1,0,-1
EndSplineSet
Substitution2: "'ss03' Style Set 3 in Latin lookup 23 subtable" dotlessi.ss03
Substitution2: "'aalt' Access All Alternates in Latin lookup 0 subtable" dotlessi.ss03
EndChar

StartChar: j
Encoding: 106 106 44
Width: 234
GlyphClass: 2
Flags: W
AnchorPoint: "Anchor-18" 118 595 basechar 0
AnchorPoint: "Anchor-15" 118 -163 basechar 0
LayerCount: 2
Fore
SplineSet
44 659 m 128,-1,1
 21 679 21 679 21 725 c 0,2,3
 21 770 21 770 44 790.5 c 128,-1,4
 67 811 67 811 118 811 c 256,5,6
 169 811 169 811 192 790.5 c 128,-1,7
 215 770 215 770 215 725 c 0,8,9
 215 679 215 679 192 659 c 128,-1,10
 169 639 169 639 118 639 c 256,11,0
 67 639 67 639 44 659 c 128,-1,1
-50 -171 m 1,13,-1
 -46 -36 l 1,14,15
 -30 -39 -30 -39 -15 -39 c 0,16,17
 11 -39 11 -39 20.5 -24.5 c 128,-1,18
 30 -10 30 -10 30 35 c 2,19,-1
 30 595 l 1,20,-1
 205 595 l 1,21,-1
 205 43 l 2,22,23
 205 -69 205 -69 157.5 -123.5 c 128,-1,24
 110 -178 110 -178 5 -178 c 0,25,12
 -22 -178 -22 -178 -50 -171 c 1,13,-1
EndSplineSet
Substitution2: "Single Substitution lookup 25 subtable" uni0237
Substitution2: "'ss03' Style Set 3 in Latin lookup 23 subtable" j.ss03
Substitution2: "'smcp' Lowercase to Small Capitals in Latin lookup 17 subtable" j.sc
AlternateSubs2: "'aalt' Access All Alternates in Latin lookup 1 subtable" j.sc j.ss03
EndChar

StartChar: uni0237
Encoding: 567 567 45
Width: 234
GlyphClass: 2
Flags: W
AnchorPoint: "Anchor-18" 118 595 basechar 0
AnchorPoint: "Anchor-15" 118 -163 basechar 0
LayerCount: 2
Fore
SplineSet
-50 -171 m 1,1,-1
 -46 -36 l 1,2,3
 -30 -39 -30 -39 -15 -39 c 0,4,5
 11 -39 11 -39 20.5 -24.5 c 128,-1,6
 30 -10 30 -10 30 35 c 2,7,-1
 30 595 l 1,8,-1
 205 595 l 1,9,-1
 205 43 l 2,10,11
 205 -69 205 -69 157.5 -123.5 c 128,-1,12
 110 -178 110 -178 5 -178 c 0,13,0
 -22 -178 -22 -178 -50 -171 c 1,1,-1
EndSplineSet
Substitution2: "'ss03' Style Set 3 in Latin lookup 23 subtable" uni0237.ss03
Substitution2: "'smcp' Lowercase to Small Capitals in Latin lookup 17 subtable" j.sc
AlternateSubs2: "'aalt' Access All Alternates in Latin lookup 1 subtable" j.sc uni0237.ss03
EndChar

StartChar: k
Encoding: 107 107 46
Width: 484
GlyphClass: 2
Flags: W
AnchorPoint: "Anchor-18" 243 766 basechar 0
AnchorPoint: "Anchor-15" 243 0 basechar 0
LayerCount: 2
Fore
SplineSet
205 0 m 1,0,-1
 28 0 l 1,1,-1
 28 766 l 1,2,-1
 205 766 l 1,3,-1
 205 376 l 1,4,-1
 226 376 l 1,5,-1
 281 595 l 1,6,-1
 471 595 l 1,7,-1
 379 302 l 1,8,-1
 486 0 l 1,9,-1
 290 0 l 1,10,-1
 226 234 l 1,11,-1
 205 234 l 1,12,-1
 205 0 l 1,0,-1
EndSplineSet
Substitution2: "'ss03' Style Set 3 in Latin lookup 23 subtable" k.ss03
Substitution2: "'smcp' Lowercase to Small Capitals in Latin lookup 17 subtable" k.sc
AlternateSubs2: "'aalt' Access All Alternates in Latin lookup 1 subtable" k.sc k.ss03
EndChar

StartChar: l
Encoding: 108 108 47
Width: 233
GlyphClass: 2
Flags: W
AnchorPoint: "Anchor-19" 222 766 basechar 0
AnchorPoint: "Anchor-18" 116 743 basechar 0
AnchorPoint: "Anchor-16" 116 383 basechar 0
AnchorPoint: "Anchor-15" 116 0 basechar 0
LayerCount: 2
Fore
SplineSet
204 0 m 1,0,-1
 28 0 l 1,1,-1
 28 766 l 1,2,-1
 204 766 l 1,3,-1
 204 0 l 1,0,-1
EndSplineSet
Substitution2: "'ss03' Style Set 3 in Latin lookup 23 subtable" l.ss03
Substitution2: "'smcp' Lowercase to Small Capitals in Latin lookup 17 subtable" l.sc
AlternateSubs2: "'aalt' Access All Alternates in Latin lookup 1 subtable" l.sc l.ss03
EndChar

StartChar: m
Encoding: 109 109 48
Width: 726
GlyphClass: 2
Flags: W
AnchorPoint: "Anchor-18" 360 595 basechar 0
AnchorPoint: "Anchor-15" 360 0 basechar 0
LayerCount: 2
Fore
SplineSet
28 0 m 1,0,-1
 28 595 l 1,1,-1
 203 595 l 1,2,-1
 203 571 l 1,3,-1
 200 533 l 1,4,-1
 202 533 l 1,5,6
 219 571 219 571 250.5 590.5 c 128,-1,7
 282 610 282 610 324 610 c 0,8,9
 367 610 367 610 398.5 589.5 c 128,-1,10
 430 569 430 569 442 532 c 1,11,-1
 444 532 l 1,12,13
 461 569 461 569 492 589.5 c 128,-1,14
 523 610 523 610 563 610 c 0,15,16
 698 610 698 610 698 418 c 2,17,-1
 698 0 l 1,18,-1
 522 0 l 1,19,-1
 522 412 l 2,20,21
 522 438 522 438 515 452 c 128,-1,22
 508 466 508 466 489 466 c 0,23,24
 472 466 472 466 461.5 449.5 c 128,-1,25
 451 433 451 433 451 406 c 2,26,-1
 451 0 l 1,27,-1
 275 0 l 1,28,-1
 275 414 l 2,29,30
 275 466 275 466 243 466 c 0,31,32
 225 466 225 466 214.5 449.5 c 128,-1,33
 204 433 204 433 204 406 c 2,34,-1
 204 0 l 1,35,-1
 28 0 l 1,0,-1
EndSplineSet
Substitution2: "'smcp' Lowercase to Small Capitals in Latin lookup 17 subtable" m.sc
Substitution2: "'aalt' Access All Alternates in Latin lookup 0 subtable" m.sc
EndChar

StartChar: n
Encoding: 110 110 49
Width: 480
GlyphClass: 2
Flags: W
AnchorPoint: "Anchor-18" 238 595 basechar 0
AnchorPoint: "Anchor-15" 238 0 basechar 0
LayerCount: 2
Fore
SplineSet
452 441 m 2,1,-1
 452 0 l 1,2,-1
 277 0 l 1,3,-1
 277 417 l 2,4,5
 277 441 277 441 268 453.5 c 128,-1,6
 259 466 259 466 243 466 c 0,7,8
 224 466 224 466 214 449 c 128,-1,9
 204 432 204 432 204 405 c 2,10,-1
 204 0 l 1,11,-1
 28 0 l 1,12,-1
 28 595 l 1,13,-1
 203 595 l 1,14,-1
 203 572 l 1,15,-1
 200 533 l 1,16,-1
 202 533 l 1,17,18
 220 571 220 571 249.5 590.5 c 128,-1,19
 279 610 279 610 318 610 c 0,20,0
 452 610 452 610 452 441 c 2,1,-1
EndSplineSet
Substitution2: "'smcp' Lowercase to Small Capitals in Latin lookup 17 subtable" n.sc
Substitution2: "'aalt' Access All Alternates in Latin lookup 0 subtable" n.sc
EndChar

StartChar: o
Encoding: 111 111 50
Width: 465
GlyphClass: 2
Flags: W
AnchorPoint: "Anchor-19" 232 610 basechar 0
AnchorPoint: "Anchor-18" 232 595 basechar 0
AnchorPoint: "Anchor-17" 351 13 basechar 0
AnchorPoint: "Anchor-16" 232 298 basechar 0
AnchorPoint: "Anchor-15" 232 0 basechar 0
LayerCount: 2
Fore
SplineSet
73 46.5 m 128,-1,1
 20 108 20 108 20 226 c 2,2,-1
 20 371 l 2,3,4
 20 489 20 489 73.5 549.5 c 128,-1,5
 127 610 127 610 232 610 c 0,6,7
 338 610 338 610 391.5 549.5 c 128,-1,8
 445 489 445 489 445 371 c 2,9,-1
 445 226 l 2,10,11
 445 107 445 107 391.5 46 c 128,-1,12
 338 -15 338 -15 232 -15 c 256,13,0
 126 -15 126 -15 73 46.5 c 128,-1,1
269 186 m 2,15,-1
 269 410 l 2,16,17
 269 469 269 469 232 469 c 256,18,19
 195 469 195 469 195 410 c 2,20,-1
 195 186 l 2,21,22
 195 126 195 126 232 126 c 256,23,14
 269 126 269 126 269 186 c 2,15,-1
EndSplineSet
Substitution2: "'smcp' Lowercase to Small Capitals in Latin lookup 17 subtable" o.sc
Substitution2: "'aalt' Access All Alternates in Latin lookup 0 subtable" o.sc
EndChar

StartChar: p
Encoding: 112 112 51
Width: 473
GlyphClass: 2
Flags: W
AnchorPoint: "Anchor-18" 233 595 basechar 0
AnchorPoint: "Anchor-15" 233 0 basechar 0
LayerCount: 2
Fore
SplineSet
421.5 552.5 m 128,-1,1
 453 495 453 495 453 362 c 2,2,-1
 453 226 l 2,3,4
 453 99 453 99 421.5 42 c 128,-1,5
 390 -15 390 -15 316 -15 c 0,6,7
 279 -15 279 -15 248.5 5 c 128,-1,8
 218 25 218 25 202 62 c 1,9,-1
 199 62 l 1,10,-1
 204 20 l 1,11,-1
 204 -178 l 1,12,-1
 28 -178 l 1,13,-1
 28 595 l 1,14,-1
 203 595 l 1,15,-1
 203 571 l 1,16,-1
 199 534 l 1,17,-1
 203 534 l 1,18,19
 218 571 218 571 248.5 590.5 c 128,-1,20
 279 610 279 610 316 610 c 0,21,0
 390 610 390 610 421.5 552.5 c 128,-1,1
278 400 m 2,22,23
 278 434 278 434 271 451.5 c 128,-1,24
 264 469 264 469 242 469 c 256,25,26
 220 469 220 469 212 451.5 c 128,-1,27
 204 434 204 434 204 403 c 2,28,-1
 204 195 l 2,29,30
 204 163 204 163 212 145 c 128,-1,31
 220 127 220 127 242 127 c 256,32,33
 264 127 264 127 271 144.5 c 128,-1,34
 278 162 278 162 278 198 c 2,35,-1
 278 400 l 2,22,23
EndSplineSet
Substitution2: "'smcp' Lowercase to Small Capitals in Latin lookup 17 subtable" p.sc
Substitution2: "'aalt' Access All Alternates in Latin lookup 0 subtable" p.sc
EndChar

StartChar: q
Encoding: 113 113 52
Width: 473
GlyphClass: 2
Flags: W
AnchorPoint: "Anchor-18" 233 595 basechar 0
AnchorPoint: "Anchor-15" 233 0 basechar 0
LayerCount: 2
Fore
SplineSet
270 595 m 1,0,-1
 445 595 l 1,1,-1
 445 -178 l 1,2,-1
 269 -178 l 1,3,-1
 269 20 l 1,4,-1
 274 62 l 1,5,-1
 271 62 l 1,6,7
 256 25 256 25 225.5 5 c 128,-1,8
 195 -15 195 -15 158 -15 c 0,9,10
 84 -15 84 -15 52 42 c 128,-1,11
 20 99 20 99 20 226 c 2,12,-1
 20 362 l 2,13,14
 20 495 20 495 51.5 552.5 c 128,-1,15
 83 610 83 610 157 610 c 0,16,17
 195 610 195 610 225 590.5 c 128,-1,18
 255 571 255 571 270 534 c 1,19,-1
 274 534 l 1,20,-1
 270 571 l 1,21,-1
 270 595 l 1,0,-1
261 145 m 128,-1,23
 269 163 269 163 269 195 c 2,24,-1
 269 403 l 2,25,26
 269 434 269 434 261 451.5 c 128,-1,27
 253 469 253 469 231 469 c 256,28,29
 209 469 209 469 202 451.5 c 128,-1,30
 195 434 195 434 195 400 c 2,31,-1
 195 198 l 2,32,33
 195 162 195 162 202 144.5 c 128,-1,34
 209 127 209 127 232 127 c 0,35,22
 253 127 253 127 261 145 c 128,-1,23
EndSplineSet
Substitution2: "'smcp' Lowercase to Small Capitals in Latin lookup 17 subtable" q.sc
Substitution2: "'aalt' Access All Alternates in Latin lookup 0 subtable" q.sc
EndChar

StartChar: r
Encoding: 114 114 53
Width: 348
GlyphClass: 2
Flags: W
AnchorPoint: "Anchor-18" 178 595 basechar 0
AnchorPoint: "Anchor-15" 111 0 basechar 0
LayerCount: 2
Fore
SplineSet
340 604 m 1,1,-1
 340 440 l 1,2,3
 325 445 325 445 300 445 c 0,4,5
 254 445 254 445 229 414.5 c 128,-1,6
 204 384 204 384 204 325 c 2,7,-1
 204 0 l 1,8,-1
 28 0 l 1,9,-1
 28 595 l 1,10,-1
 203 595 l 1,11,-1
 203 572 l 1,12,-1
 198 530 l 1,13,-1
 200 530 l 1,14,15
 212 568 212 568 239.5 589 c 128,-1,16
 267 610 267 610 299 610 c 0,17,0
 325 610 325 610 340 604 c 1,1,-1
EndSplineSet
Substitution2: "'smcp' Lowercase to Small Capitals in Latin lookup 17 subtable" r.sc
Substitution2: "'aalt' Access All Alternates in Latin lookup 0 subtable" r.sc
EndChar

StartChar: s
Encoding: 115 115 54
Width: 449
GlyphClass: 2
Flags: W
AnchorPoint: "Anchor-18" 225 595 basechar 0
AnchorPoint: "Anchor-15" 225 0 basechar 0
LayerCount: 2
Fore
SplineSet
68 33.5 m 128,-1,1
 15 81 15 81 15 174 c 2,2,-1
 15 208 l 1,3,-1
 185 208 l 1,4,-1
 185 173 l 2,5,6
 185 116 185 116 228 116 c 0,7,8
 243 116 243 116 251.5 125.5 c 128,-1,9
 260 135 260 135 260 151 c 2,10,-1
 260 189 l 2,11,12
 260 210 260 210 247.5 221.5 c 128,-1,13
 235 233 235 233 198 244 c 0,14,15
 100 271 100 271 62 312.5 c 128,-1,16
 24 354 24 354 24 424 c 2,17,-1
 24 456 l 2,18,19
 24 610 24 610 219 610 c 0,20,21
 321 610 321 610 370 567 c 128,-1,22
 419 524 419 524 419 437 c 2,23,-1
 419 411 l 1,24,-1
 261 411 l 1,25,-1
 261 438 l 2,26,27
 261 480 261 480 228 480 c 0,28,29
 197 480 197 480 197 450 c 2,30,-1
 197 419 l 2,31,32
 197 400 197 400 210 389 c 128,-1,33
 223 378 223 378 261 368 c 0,34,35
 353 344 353 344 393.5 303 c 128,-1,36
 434 262 434 262 434 188 c 2,37,-1
 434 149 l 2,38,39
 434 70 434 70 381 28 c 128,-1,40
 328 -14 328 -14 225 -14 c 0,41,0
 121 -14 121 -14 68 33.5 c 128,-1,1
EndSplineSet
Substitution2: "'smcp' Lowercase to Small Capitals in Latin lookup 17 subtable" s.sc
Substitution2: "'aalt' Access All Alternates in Latin lookup 0 subtable" s.sc
EndChar

StartChar: t
Encoding: 116 116 55
Width: 337
GlyphClass: 2
Flags: W
AnchorPoint: "Anchor-19" 250 889 basechar 0
AnchorPoint: "Anchor-18" 149 688 basechar 0
AnchorPoint: "Anchor-16" 154 298 basechar 0
AnchorPoint: "Anchor-15" 197 0 basechar 0
LayerCount: 2
Fore
SplineSet
331 149 m 1,1,-1
 331 1 l 1,2,3
 278 -15 278 -15 213 -15 c 0,4,5
 56 -15 56 -15 56 164 c 2,6,-1
 56 454 l 1,7,-1
 5 454 l 1,8,-1
 5 595 l 1,9,-1
 56 595 l 1,10,-1
 56 722 l 1,11,-1
 231 722 l 1,12,-1
 231 595 l 1,13,-1
 326 595 l 1,14,-1
 326 454 l 1,15,-1
 231 454 l 1,16,-1
 231 209 l 2,17,18
 231 175 231 175 242.5 159.5 c 128,-1,19
 254 144 254 144 280 144 c 0,20,0
 302 144 302 144 331 149 c 1,1,-1
EndSplineSet
Substitution2: "'smcp' Lowercase to Small Capitals in Latin lookup 17 subtable" t.sc
Substitution2: "'aalt' Access All Alternates in Latin lookup 0 subtable" t.sc
EndChar

StartChar: u
Encoding: 117 117 56
Width: 480
GlyphClass: 2
Flags: W
AnchorPoint: "Anchor-19" 361 595 basechar 0
AnchorPoint: "Anchor-18" 240 595 basechar 0
AnchorPoint: "Anchor-17" 452 0 basechar 0
AnchorPoint: "Anchor-15" 238 0 basechar 0
LayerCount: 2
Fore
SplineSet
276 595 m 1,0,-1
 452 595 l 1,1,-1
 452 0 l 1,2,-1
 277 0 l 1,3,-1
 277 23 l 1,4,-1
 280 62 l 1,5,-1
 278 62 l 1,6,7
 260 24 260 24 230.5 4.5 c 128,-1,8
 201 -15 201 -15 163 -15 c 0,9,10
 28 -15 28 -15 28 154 c 2,11,-1
 28 595 l 1,12,-1
 203 595 l 1,13,-1
 203 178 l 2,14,15
 203 154 203 154 212 141.5 c 128,-1,16
 221 129 221 129 237 129 c 0,17,18
 256 129 256 129 266 146 c 128,-1,19
 276 163 276 163 276 190 c 2,20,-1
 276 595 l 1,0,-1
EndSplineSet
Substitution2: "'smcp' Lowercase to Small Capitals in Latin lookup 17 subtable" u.sc
Substitution2: "'aalt' Access All Alternates in Latin lookup 0 subtable" u.sc
EndChar

StartChar: v
Encoding: 118 118 57
Width: 459
GlyphClass: 2
Flags: W
AnchorPoint: "Anchor-18" 230 595 basechar 0
AnchorPoint: "Anchor-15" 230 0 basechar 0
LayerCount: 2
Fore
SplineSet
345 0 m 1,0,-1
 113 0 l 1,1,-1
 0 595 l 1,2,-1
 177 595 l 1,3,-1
 223 250 l 1,4,-1
 227 175 l 1,5,-1
 230 175 l 1,6,-1
 233 251 l 1,7,-1
 280 595 l 1,8,-1
 459 595 l 1,9,-1
 345 0 l 1,0,-1
EndSplineSet
Substitution2: "'smcp' Lowercase to Small Capitals in Latin lookup 17 subtable" v.sc
Substitution2: "'aalt' Access All Alternates in Latin lookup 0 subtable" v.sc
EndChar

StartChar: w
Encoding: 119 119 58
Width: 696
GlyphClass: 2
Flags: W
AnchorPoint: "Anchor-18" 351 595 basechar 0
AnchorPoint: "Anchor-15" 351 0 basechar 0
LayerCount: 2
Fore
SplineSet
305 0 m 1,0,-1
 92 0 l 1,1,-1
 0 595 l 1,2,-1
 176 595 l 1,3,-1
 212 251 l 1,4,-1
 214 175 l 1,5,-1
 217 175 l 1,6,-1
 222 251 l 1,7,-1
 266 595 l 1,8,-1
 430 595 l 1,9,-1
 473 251 l 1,10,-1
 478 175 l 1,11,-1
 481 175 l 1,12,-1
 484 251 l 1,13,-1
 519 595 l 1,14,-1
 696 595 l 1,15,-1
 604 0 l 1,16,-1
 390 0 l 1,17,-1
 352 340 l 1,18,-1
 349 379 l 1,19,-1
 346 379 l 1,20,-1
 343 340 l 1,21,-1
 305 0 l 1,0,-1
EndSplineSet
Substitution2: "'smcp' Lowercase to Small Capitals in Latin lookup 17 subtable" w.sc
Substitution2: "'aalt' Access All Alternates in Latin lookup 0 subtable" w.sc
EndChar

StartChar: x
Encoding: 120 120 59
Width: 479
GlyphClass: 2
Flags: W
AnchorPoint: "Anchor-18" 240 595 basechar 0
AnchorPoint: "Anchor-15" 240 0 basechar 0
LayerCount: 2
Fore
SplineSet
184 0 m 1,0,-1
 -1 0 l 1,1,-1
 108 310 l 1,2,-1
 11 595 l 1,3,-1
 194 595 l 1,4,-1
 234 428 l 1,5,-1
 238 398 l 1,6,-1
 241 398 l 1,7,-1
 246 428 l 1,8,-1
 285 595 l 1,9,-1
 470 595 l 1,10,-1
 372 310 l 1,11,-1
 480 0 l 1,12,-1
 296 0 l 1,13,-1
 246 184 l 1,14,-1
 241 210 l 1,15,-1
 238 210 l 1,16,-1
 233 184 l 1,17,-1
 184 0 l 1,0,-1
EndSplineSet
Substitution2: "'smcp' Lowercase to Small Capitals in Latin lookup 17 subtable" x.sc
Substitution2: "'aalt' Access All Alternates in Latin lookup 0 subtable" x.sc
EndChar

StartChar: y
Encoding: 121 121 60
Width: 459
GlyphClass: 2
Flags: W
AnchorPoint: "Anchor-18" 230 595 basechar 0
AnchorPoint: "Anchor-15" 226 -156 basechar 0
LayerCount: 2
Fore
SplineSet
79 -54 m 1,0,1
 132 -46 132 -46 155.5 -31.5 c 128,-1,2
 179 -17 179 -17 187 14 c 2,3,-1
 188 17 l 1,4,-1
 120 17 l 1,5,-1
 0 595 l 1,6,-1
 178 595 l 1,7,-1
 224 262 l 1,8,-1
 228 195 l 1,9,-1
 230 195 l 1,10,-1
 235 263 l 1,11,-1
 281 595 l 1,12,-1
 459 595 l 1,13,-1
 347 36 l 2,14,15
 326 -66 326 -66 266 -119.5 c 128,-1,16
 206 -173 206 -173 95 -184 c 1,17,-1
 79 -54 l 1,0,1
EndSplineSet
Substitution2: "'smcp' Lowercase to Small Capitals in Latin lookup 17 subtable" y.sc
Substitution2: "'aalt' Access All Alternates in Latin lookup 0 subtable" y.sc
EndChar

StartChar: z
Encoding: 122 122 61
Width: 401
GlyphClass: 2
Flags: W
AnchorPoint: "Anchor-18" 203 595 basechar 0
AnchorPoint: "Anchor-16" 203 298 basechar 0
AnchorPoint: "Anchor-15" 203 0 basechar 0
LayerCount: 2
Fore
SplineSet
389 0 m 1,0,-1
 12 0 l 1,1,-1
 12 122 l 1,2,-1
 180 454 l 1,3,-1
 26 454 l 1,4,-1
 26 595 l 1,5,-1
 388 595 l 1,6,-1
 388 461 l 1,7,-1
 217 142 l 1,8,-1
 389 142 l 1,9,-1
 389 0 l 1,0,-1
EndSplineSet
Substitution2: "'smcp' Lowercase to Small Capitals in Latin lookup 17 subtable" z.sc
Substitution2: "'aalt' Access All Alternates in Latin lookup 0 subtable" z.sc
EndChar

StartChar: ae
Encoding: 230 230 62
Width: 692
GlyphClass: 2
Flags: W
AnchorPoint: "Anchor-18" 344 595 basechar 0
AnchorPoint: "Anchor-17" 573 8 basechar 0
AnchorPoint: "Anchor-15" 344 0 basechar 0
LayerCount: 2
Fore
SplineSet
52.5 26.5 m 128,-1,1
 17 68 17 68 17 144 c 2,2,-1
 17 190 l 2,3,4
 17 264 17 264 60.5 305.5 c 128,-1,5
 104 347 104 347 190 347 c 0,6,7
 228 347 228 347 264 335 c 1,8,-1
 264 418 l 2,9,10
 264 469 264 469 229 469 c 0,11,12
 211 469 211 469 202.5 455.5 c 128,-1,13
 194 442 194 442 194 421 c 2,14,-1
 194 382 l 1,15,-1
 24 382 l 1,16,-1
 24 411 l 2,17,18
 24 503 24 503 75 556.5 c 128,-1,19
 126 610 126 610 229 610 c 0,20,21
 301 610 301 610 345 572 c 1,22,23
 394 610 394 610 473 610 c 0,24,25
 569 610 569 610 621 554 c 128,-1,26
 673 498 673 498 673 392 c 2,27,-1
 673 252 l 1,28,-1
 440 252 l 1,29,-1
 440 187 l 2,30,31
 440 154 440 154 447.5 137.5 c 128,-1,32
 455 121 455 121 474 121 c 256,33,34
 493 121 493 121 501 134.5 c 128,-1,35
 509 148 509 148 510 177 c 2,36,-1
 510 212 l 1,37,-1
 672 212 l 1,38,-1
 672 178 l 2,39,40
 671 86 671 86 618 35.5 c 128,-1,41
 565 -15 565 -15 470 -15 c 0,42,43
 348 -15 348 -15 300 80 c 1,44,45
 280 36 280 36 246.5 10.5 c 128,-1,46
 213 -15 213 -15 152 -15 c 0,47,0
 88 -15 88 -15 52.5 26.5 c 128,-1,1
440 350 m 1,48,-1
 509 350 l 1,49,-1
 509 414 l 2,50,51
 509 446 509 446 501 461 c 128,-1,52
 493 476 493 476 475 476 c 256,53,54
 457 476 457 476 448.5 461 c 128,-1,55
 440 446 440 446 440 415 c 2,56,-1
 440 350 l 1,48,-1
264 189 m 2,58,-1
 264 261 l 1,59,60
 248 271 248 271 228 271 c 0,61,62
 189 271 189 271 189 220 c 2,63,-1
 189 173 l 2,64,65
 189 149 189 149 197.5 138.5 c 128,-1,66
 206 128 206 128 224 128 c 0,67,57
 264 128 264 128 264 189 c 2,58,-1
EndSplineSet
Substitution2: "'smcp' Lowercase to Small Capitals in Latin lookup 17 subtable" ae.sc
Substitution2: "'aalt' Access All Alternates in Latin lookup 0 subtable" ae.sc
EndChar

StartChar: oe
Encoding: 339 339 63
Width: 708
GlyphClass: 2
Flags: W
AnchorPoint: "Anchor-19" 237 610 basechar 0
AnchorPoint: "Anchor-18" 350 595 basechar 0
AnchorPoint: "Anchor-17" 583 8 basechar 0
AnchorPoint: "Anchor-16" 237 298 basechar 0
AnchorPoint: "Anchor-15" 350 0 basechar 0
LayerCount: 2
Fore
SplineSet
631 555 m 128,-1,1
 683 499 683 499 683 393 c 2,2,-1
 683 253 l 1,3,-1
 450 253 l 1,4,-1
 450 187 l 2,5,6
 450 154 450 154 457.5 137.5 c 128,-1,7
 465 121 465 121 484 121 c 256,8,9
 503 121 503 121 511 135 c 128,-1,10
 519 149 519 149 520 178 c 2,11,-1
 520 210 l 1,12,-1
 682 210 l 1,13,-1
 682 179 l 2,14,15
 681 87 681 87 628 36 c 128,-1,16
 575 -15 575 -15 480 -15 c 0,17,18
 410 -15 410 -15 362 16 c 1,19,20
 311 -15 311 -15 237 -15 c 0,21,22
 131 -15 131 -15 78 46.5 c 128,-1,23
 25 108 25 108 25 226 c 2,24,-1
 25 370 l 2,25,26
 25 489 25 489 78.5 549.5 c 128,-1,27
 132 610 132 610 237 610 c 0,28,29
 311 610 311 610 362 579 c 1,30,31
 411 611 411 611 483 611 c 0,32,0
 579 611 579 611 631 555 c 128,-1,1
450 351 m 1,33,-1
 519 351 l 1,34,-1
 519 411 l 2,35,36
 520 445 520 445 512 461 c 128,-1,37
 504 477 504 477 485 477 c 256,38,39
 466 477 466 477 458 461 c 128,-1,40
 450 445 450 445 450 412 c 2,41,-1
 450 351 l 1,33,-1
274 410 m 2,42,43
 274 469 274 469 237 469 c 256,44,45
 200 469 200 469 200 410 c 2,46,-1
 200 186 l 2,47,48
 200 126 200 126 237 126 c 256,49,50
 274 126 274 126 274 186 c 2,51,-1
 274 410 l 2,42,43
EndSplineSet
Substitution2: "'smcp' Lowercase to Small Capitals in Latin lookup 17 subtable" oe.sc
Substitution2: "'aalt' Access All Alternates in Latin lookup 0 subtable" oe.sc
EndChar

StartChar: eth
Encoding: 240 240 64
Width: 465
GlyphClass: 1
Flags: W
LayerCount: 2
Fore
SplineSet
368 734 m 1,0,1
 445 657 445 657 445 500 c 2,2,-1
 445 229 l 2,3,4
 445 110 445 110 392 48 c 128,-1,5
 339 -14 339 -14 232 -14 c 256,6,7
 125 -14 125 -14 72.5 49 c 128,-1,8
 20 112 20 112 20 229 c 2,9,-1
 20 324 l 2,10,11
 20 434 20 434 67.5 496 c 128,-1,12
 115 558 115 558 196 558 c 0,13,14
 251 558 251 558 283 534 c 1,15,16
 280 582 280 582 261 614 c 1,17,-1
 232 582 l 1,18,-1
 175 631 l 1,19,-1
 204 664 l 1,20,21
 188 673 188 673 150 685 c 1,22,-1
 230 809 l 1,23,24
 269 799 269 799 306 780 c 1,25,-1
 340 818 l 1,26,-1
 398 768 l 1,27,-1
 368 734 l 1,0,1
269 360 m 2,28,29
 269 417 269 417 232 417 c 256,30,31
 195 417 195 417 195 357 c 2,32,-1
 195 188 l 2,33,34
 195 158 195 158 203.5 142.5 c 128,-1,35
 212 127 212 127 232 127 c 0,36,37
 269 127 269 127 269 187 c 2,38,-1
 269 360 l 2,28,29
EndSplineSet
Substitution2: "'smcp' Lowercase to Small Capitals in Latin lookup 17 subtable" eth.sc
Substitution2: "'aalt' Access All Alternates in Latin lookup 0 subtable" eth.sc
EndChar

StartChar: thorn
Encoding: 254 254 65
Width: 478
GlyphClass: 2
Flags: W
AnchorPoint: "Anchor-18" 233 766 basechar 0
AnchorPoint: "Anchor-15" 233 0 basechar 0
LayerCount: 2
Fore
SplineSet
421.5 553 m 128,-1,1
 453 496 453 496 453 369 c 2,2,-1
 453 233 l 2,3,4
 453 101 453 101 421.5 43 c 128,-1,5
 390 -15 390 -15 316 -15 c 0,6,7
 279 -15 279 -15 248.5 5 c 128,-1,8
 218 25 218 25 202 62 c 1,9,-1
 199 62 l 1,10,-1
 203 24 l 1,11,-1
 203 -178 l 1,12,-1
 28 -178 l 1,13,-1
 28 766 l 1,14,-1
 204 766 l 1,15,-1
 204 576 l 1,16,-1
 199 534 l 1,17,-1
 202 534 l 1,18,19
 219 571 219 571 249 590.5 c 128,-1,20
 279 610 279 610 316 610 c 0,21,0
 390 610 390 610 421.5 553 c 128,-1,1
278 397 m 2,22,23
 278 431 278 431 271 450 c 128,-1,24
 264 469 264 469 242 469 c 256,25,26
 220 469 220 469 212 450.5 c 128,-1,27
 204 432 204 432 204 400 c 2,28,-1
 204 192 l 2,29,30
 204 162 204 162 212.5 144.5 c 128,-1,31
 221 127 221 127 242 127 c 0,32,33
 264 127 264 127 271 143.5 c 128,-1,34
 278 160 278 160 278 195 c 2,35,-1
 278 397 l 2,22,23
EndSplineSet
Substitution2: "'smcp' Lowercase to Small Capitals in Latin lookup 17 subtable" thorn.sc
Substitution2: "'aalt' Access All Alternates in Latin lookup 0 subtable" thorn.sc
EndChar

StartChar: germandbls
Encoding: 223 223 66
Width: 471
GlyphClass: 2
Flags: W
AnchorPoint: "Anchor-18" 236 595 basechar 0
AnchorPoint: "Anchor-15" 236 0 basechar 0
LayerCount: 2
Fore
SplineSet
25 585 m 2,0,1
 25 684 25 684 75.5 732 c 128,-1,2
 126 780 126 780 228 780 c 256,3,4
 330 780 330 780 381 733 c 128,-1,5
 432 686 432 686 432 603 c 2,6,-1
 432 550 l 2,7,8
 432 504 432 504 422 473 c 128,-1,9
 412 442 412 442 391 420 c 1,10,11
 422 400 422 400 434 367.5 c 128,-1,12
 446 335 446 335 446 285 c 2,13,-1
 446 203 l 2,14,15
 446 106 446 106 396.5 53 c 128,-1,16
 347 0 347 0 257 0 c 2,17,-1
 220 0 l 1,18,-1
 220 148 l 1,19,-1
 225 148 l 2,20,21
 265 148 265 148 265 193 c 2,22,-1
 265 309 l 2,23,24
 265 349 265 349 226 349 c 2,25,-1
 219 349 l 1,26,-1
 219 485 l 1,27,-1
 224 485 l 2,28,29
 243 485 243 485 253.5 496 c 128,-1,30
 264 507 264 507 264 537 c 2,31,-1
 264 587 l 2,32,33
 264 630 264 630 228 630 c 256,34,35
 192 630 192 630 192 586 c 2,36,-1
 192 0 l 1,37,-1
 25 0 l 1,38,-1
 25 585 l 2,0,1
EndSplineSet
Substitution2: "'smcp' Lowercase to Small Capitals in Latin lookup 17 subtable" germandbls.sc
Substitution2: "'aalt' Access All Alternates in Latin lookup 0 subtable" germandbls.sc
EndChar

StartChar: zero
Encoding: 48 48 67
Width: 528
GlyphClass: 2
Flags: W
LayerCount: 2
Fore
SplineSet
34.0166015625 270.192382812 m 4,0,1
 34.1005859375 293.631835938 34.1005859375 293.631835938 33.794921875 349.0703125 c 132,-1,2
 33.4892578125 404.506835938 33.4892578125 404.506835938 33.9013671875 444.541015625 c 132,-1,3
 34.3125 484.578125 34.3125 484.578125 36.0380859375 521.869140625 c 4,4,5
 38.376953125 572.44140625 38.376953125 572.44140625 60.76171875 630.680664062 c 4,6,7
 91.658203125 711.064453125 91.658203125 711.064453125 183.015625 735.583007812 c 4,8,9
 266.805664062 758.0703125 266.805664062 758.0703125 348 735 c 4,10,11
 454.01171875 704.875 454.01171875 704.875 484.333007812 590.861328125 c 4,12,13
 495.021484375 550.66796875 495.021484375 550.66796875 495.600585938 505.138671875 c 4,14,15
 497.701171875 340.498046875 497.701171875 340.498046875 495.676757812 199.16015625 c 4,16,17
 494.154296875 92.67578125 494.154296875 92.67578125 435.80078125 30.8115234375 c 4,18,19
 366.698242188 -42.4482421875 366.698242188 -42.4482421875 233.09375 -30.5869140625 c 4,20,21
 50.5849609375 -14.39453125 50.5849609375 -14.39453125 35.1953125 185.591796875 c 4,22,23
 34.83203125 190.321289062 34.83203125 190.321289062 34.0166015625 270.192382812 c 4,0,1
305.73046875 233.372070312 m 4,24,25
 305.666015625 463.349609375 305.666015625 463.349609375 305.41796875 510.787109375 c 4,26,27
 305.288085938 535.609375 305.288085938 535.609375 299.984375 553.421875 c 4,28,29
 294.565429688 571.624023438 294.565429688 571.624023438 278.278320312 578.514648438 c 132,-1,30
 261.993164062 585.404296875 261.993164062 585.404296875 248.06640625 574.720703125 c 4,31,32
 239.901367188 568.319335938 239.901367188 568.319335938 234.092773438 556.776367188 c 132,-1,33
 228.28515625 545.233398438 228.28515625 545.233398438 227.83203125 534.763671875 c 4,34,35
 225.485351562 480.526367188 225.485351562 480.526367188 225.537109375 352.786132812 c 4,36,37
 225.578125 250.55859375 225.578125 250.55859375 227.362304688 175.118164062 c 4,38,39
 227.80859375 156.2421875 227.80859375 156.2421875 237.7421875 145.64453125 c 132,-1,40
 247.676757812 135.044921875 247.676757812 135.044921875 264.202148438 134.6640625 c 4,41,42
 299.387695312 133.849609375 299.387695312 133.849609375 303.35546875 172.829101562 c 4,43,44
 304.071289062 179.864257812 304.071289062 179.864257812 305.73046875 233.372070312 c 4,24,25
EndSplineSet
EndChar

StartChar: one
Encoding: 49 49 68
Width: 312
GlyphClass: 1
Flags: W
LayerCount: 2
Fore
SplineSet
29.53125 679.799804688 m 1,0,1
 80.5908203125 691.560546875 80.5908203125 691.560546875 117.86328125 741.663085938 c 0,2,3
 127.684570312 754.864257812 127.684570312 754.864257812 142.748046875 755.3671875 c 0,4,5
 161.72265625 756 161.72265625 756 270 756 c 1,6,-1
 270 -2.3115234375 l 1,7,-1
 97.83203125 -2.3115234375 l 1,8,-1
 97.83203125 544.580078125 l 1,9,10
 86.2861328125 540.545898438 86.2861328125 540.545898438 61.376953125 531.842773438 c 128,-1,11
 36.4677734375 523.139648438 36.4677734375 523.139648438 21.677734375 517.971679688 c 1,12,13
 21.677734375 552.869140625 21.677734375 552.869140625 21.6728515625 554.456054688 c 0,14,15
 21.3857421875 645.021484375 21.3857421875 645.021484375 21.6044921875 660.353515625 c 0,16,17
 21.6826171875 665.83203125 21.6826171875 665.83203125 29.53125 679.799804688 c 1,0,1
EndSplineSet
EndChar

StartChar: two
Encoding: 50 50 69
Width: 507
GlyphClass: 1
Flags: W
LayerCount: 2
Fore
SplineSet
372.510742188 726.70703125 m 5,0,1
 457.572265625 682.08984375 457.572265625 682.08984375 463.751953125 571.543945312 c 4,2,3
 472.305664062 418.572265625 472.305664062 418.572265625 375.416992188 283.262695312 c 4,4,5
 370.1953125 275.971679688 370.1953125 275.971679688 281.012695312 157.00390625 c 5,6,-1
 463.819335938 157.00390625 l 5,7,-1
 463.819335938 -7.3759765625 l 5,8,-1
 55.521484375 -7.3759765625 l 5,9,10
 55.521484375 109.567382812 55.521484375 109.567382812 56.171875 132.567382812 c 4,11,12
 56.380859375 139.994140625 56.380859375 139.994140625 70.13671875 155.4609375 c 4,13,14
 131.833984375 224.838867188 131.833984375 224.838867188 175.784179688 281.46875 c 132,-1,15
 219.734375 338.09765625 219.734375 338.09765625 253.846679688 399.322265625 c 4,16,17
 295.145507812 473.44140625 295.145507812 473.44140625 289.4375 545.547851562 c 4,18,19
 286.4921875 582.7421875 286.4921875 582.7421875 259.202148438 584.978515625 c 4,20,21
 225.72265625 587.721679688 225.72265625 587.721679688 221.9140625 550.225585938 c 4,22,23
 221.525390625 546.401367188 221.525390625 546.401367188 221.525390625 490.587890625 c 5,24,-1
 54.0732421875 490.587890625 l 5,25,26
 47.15625 548.8203125 47.15625 548.8203125 58.0146484375 598.83984375 c 132,-1,27
 68.8740234375 648.857421875 68.8740234375 648.857421875 101.032226562 687.11328125 c 132,-1,28
 133.19140625 725.368164062 133.19140625 725.368164062 183.774414062 739.794921875 c 4,29,30
 281.994140625 767.807617188 281.994140625 767.807617188 372.510742188 726.70703125 c 5,0,1
EndSplineSet
EndChar

StartChar: three
Encoding: 51 51 70
Width: 492
GlyphClass: 1
Flags: W
LayerCount: 2
Fore
SplineSet
242.096679688 761.463867188 m 4,0,1
 322.293945312 761.2421875 322.293945312 761.2421875 368.934570312 738.400390625 c 4,2,3
 446.750976562 700.2890625 446.750976562 700.2890625 457.892578125 627.147460938 c 4,4,5
 466.323242188 571.83203125 466.323242188 571.83203125 462.419921875 498.958007812 c 4,6,7
 458.30859375 422.15625 458.30859375 422.15625 389.907226562 388.0078125 c 5,8,9
 391.240234375 383.3828125 391.240234375 383.3828125 391.340820312 383.334960938 c 4,10,11
 468.201171875 346.251953125 468.201171875 346.251953125 468.036132812 251.80078125 c 4,12,13
 467.866210938 155.801757812 467.866210938 155.801757812 463.137695312 116.720703125 c 4,14,15
 452.07421875 25.388671875 452.07421875 25.388671875 366.4921875 -11.1708984375 c 4,16,17
 257.72265625 -57.6337890625 257.72265625 -57.6337890625 140.358398438 -16.7197265625 c 4,18,19
 46.591796875 15.970703125 46.591796875 15.970703125 30.9111328125 126.690429688 c 4,20,21
 28.890625 140.959960938 28.890625 140.959960938 27.9208984375 156.879882812 c 132,-1,22
 26.951171875 172.798828125 26.951171875 172.798828125 26.3291015625 193.735351562 c 132,-1,23
 25.70703125 214.672851562 25.70703125 214.672851562 25.1357421875 225.3203125 c 5,24,-1
 206.494140625 225.3203125 l 5,25,26
 206.494140625 180.302734375 206.494140625 180.302734375 206.65234375 177.4921875 c 4,27,28
 209.18359375 132.293945312 209.18359375 132.293945312 246.8984375 132.953125 c 4,29,30
 285.165039062 133.625 285.165039062 133.625 285.975585938 179.010742188 c 4,31,32
 286.134765625 187.921875 286.134765625 187.921875 286.071289062 239.010742188 c 4,33,34
 286.033203125 269.138671875 286.033203125 269.138671875 273.296875 282.556640625 c 132,-1,35
 260.560546875 295.975585938 260.560546875 295.975585938 230.579101562 297.145507812 c 4,36,37
 226.701171875 297.295898438 226.701171875 297.295898438 163.58984375 297.295898438 c 5,38,-1
 163.58984375 445.775390625 l 5,39,40
 216.033203125 445.775390625 216.033203125 445.775390625 219.106445312 445.873046875 c 4,41,42
 253.080078125 446.954101562 253.080078125 446.954101562 266.611328125 460.607421875 c 132,-1,43
 280.142578125 474.259765625 280.142578125 474.259765625 280.661132812 508.224609375 c 4,44,45
 281.138671875 539.549804688 281.138671875 539.549804688 277.530273438 567.911132812 c 4,46,47
 274.161132812 594.38671875 274.161132812 594.38671875 242.963867188 594.591796875 c 132,-1,48
 211.639648438 594.795898438 211.639648438 594.795898438 206.840820312 569.213867188 c 4,49,50
 206.0234375 564.860351562 206.0234375 564.860351562 201.208007812 508.02734375 c 5,51,-1
 30.7861328125 508.02734375 l 5,52,53
 16.3505859375 605.1640625 16.3505859375 605.1640625 59.1162109375 674.639648438 c 132,-1,54
 101.880859375 744.116210938 101.880859375 744.116210938 195.90625 757.889648438 c 4,55,56
 201.387695312 758.692382812 201.387695312 758.692382812 242.096679688 761.463867188 c 4,0,1
EndSplineSet
EndChar

StartChar: four
Encoding: 52 52 71
Width: 540
GlyphClass: 1
Flags: W
LayerCount: 2
Fore
SplineSet
461.030273438 259.986328125 m 5,0,1
 468.944335938 250.147460938 468.944335938 250.147460938 472.859375 249.84765625 c 4,2,3
 477.907226562 249.459960938 477.907226562 249.459960938 514.771484375 249.459960938 c 5,4,-1
 514.771484375 87.595703125 l 5,5,-1
 461.064453125 87.595703125 l 5,6,-1
 461.064453125 -25 l 5,7,-1
 296 -25 l 5,8,-1
 296 87.61328125 l 5,9,-1
 41.771484375 87.61328125 l 5,10,11
 42.3935546875 103.03125 42.3935546875 103.03125 42.40625 149.403320312 c 132,-1,12
 42.41796875 195.776367188 42.41796875 195.776367188 45.33203125 226.514648438 c 132,-1,13
 48.24609375 257.252929688 48.24609375 257.252929688 56.84765625 287.098632812 c 4,14,15
 76.392578125 354.920898438 76.392578125 354.920898438 96.1826171875 428.411132812 c 132,-1,16
 115.973632812 501.901367188 115.973632812 501.901367188 141.931640625 601.309570312 c 132,-1,17
 167.890625 700.716796875 167.890625 700.716796875 179.213867188 743.26953125 c 4,18,19
 179.278320312 743.512695312 179.278320312 743.512695312 181.638671875 749 c 5,20,-1
 361.516601562 749 l 5,21,22
 336.936523438 657.649414062 336.936523438 657.649414062 291.583984375 489.095703125 c 132,-1,23
 246.231445312 320.541992188 246.231445312 320.541992188 227.296875 250.173828125 c 5,24,-1
 294.435546875 250.173828125 l 5,25,-1
 294.435546875 391.37890625 l 5,26,-1
 461.012695312 391.37890625 l 5,27,28
 461.012695312 305.213867188 461.012695312 305.213867188 461.030273438 259.986328125 c 5,0,1
EndSplineSet
EndChar

StartChar: five
Encoding: 53 53 72
Width: 499
GlyphClass: 1
Flags: WO
LayerCount: 2
Fore
SplineSet
43.388671875 695.28515625 m 4,0,1
 43.396484375 706.099609375 43.396484375 706.099609375 43.396484375 724.873046875 c 5,2,-1
 418.140625 724.873046875 l 5,3,-1
 418.140625 568 l 5,4,-1
 209 568 l 5,5,6
 205.629882812 502.436523438 205.629882812 502.436523438 202.58984375 443.282226562 c 5,7,8
 258.338867188 477.137695312 258.338867188 477.137695312 322.758789062 468.274414062 c 4,9,10
 425.27734375 454.166992188 425.27734375 454.166992188 447.965820312 355.905273438 c 4,11,12
 478.760742188 222.547851562 478.760742188 222.547851562 447.169921875 89.9951171875 c 4,13,14
 422.791015625 -12.2998046875 422.791015625 -12.2998046875 318.686523438 -38.3984375 c 4,15,16
 213.149414062 -64.84765625 213.149414062 -64.84765625 125.286132812 -25.6611328125 c 4,17,18
 41.048828125 11.9033203125 41.048828125 11.9033203125 27.8154296875 111.431640625 c 4,19,20
 24.5263671875 136.170898438 24.5263671875 136.170898438 24.521484375 203.859375 c 4,21,22
 24.5205078125 208.178710938 24.5205078125 208.178710938 28.3251953125 214.2265625 c 132,-1,23
 32.12890625 220.274414062 32.12890625 220.274414062 34.923828125 220.329101562 c 4,24,25
 72.76171875 221.067382812 72.76171875 221.067382812 203.928710938 221.067382812 c 5,26,27
 203.928710938 161.92578125 203.928710938 161.92578125 204.262695312 158.021484375 c 4,28,29
 206.061523438 136.995117188 206.061523438 136.995117188 214.752929688 127.576171875 c 132,-1,30
 223.443359375 118.158203125 223.443359375 118.158203125 240.397460938 117.876953125 c 4,31,32
 277.91796875 117.247070312 277.91796875 117.247070312 279.67578125 156.967773438 c 4,33,34
 282.0390625 210.458984375 282.0390625 210.458984375 279.336914062 297.625 c 4,35,36
 278.287109375 331.442382812 278.287109375 331.442382812 247.401367188 336.294921875 c 4,37,38
 218.202148438 340.88671875 218.202148438 340.88671875 204.443359375 313.758789062 c 4,39,40
 197.15234375 299.383789062 197.15234375 299.383789062 178.930664062 300.609375 c 4,41,42
 158.127929688 302.012695312 158.127929688 302.012695312 26.6552734375 309.196289062 c 5,43,44
 37.8173828125 565.471679688 37.8173828125 565.471679688 43.388671875 695.28515625 c 4,0,1
EndSplineSet
EndChar

StartChar: six
Encoding: 54 54 73
Width: 525
GlyphClass: 1
Flags: W
LayerCount: 2
Fore
SplineSet
134.22265625 9.6015625 m 4,0,1
 56.150390625 56.5166015625 56.150390625 56.5166015625 39.0419921875 161.97265625 c 4,2,3
 34.505859375 189.932617188 34.505859375 189.932617188 34.37890625 228.193359375 c 4,4,5
 33.572265625 472.659179688 33.572265625 472.659179688 35.8330078125 533.440429688 c 4,6,7
 37.7470703125 584.904296875 37.7470703125 584.904296875 62.771484375 646.8515625 c 4,8,9
 92.3173828125 719.99609375 92.3173828125 719.99609375 177.560546875 742.060546875 c 4,10,11
 255.349609375 762.197265625 255.349609375 762.197265625 330.469726562 740.461914062 c 4,12,13
 386.147460938 724.350585938 386.147460938 724.350585938 421.712890625 679.286132812 c 132,-1,14
 457.27734375 634.221679688 457.27734375 634.221679688 460.012695312 576.357421875 c 4,15,16
 460.185546875 572.715820312 460.185546875 572.715820312 460.185546875 503.401367188 c 5,17,-1
 374.26171875 503.401367188 l 5,18,-1
 287.364257812 503.401367188 l 5,19,20
 287.364257812 544.625 287.364257812 544.625 287.274414062 547.125976562 c 4,21,22
 285.8671875 586.318359375 285.8671875 586.318359375 256.001953125 589.015625 c 4,23,24
 218.189453125 592.431640625 218.189453125 592.431640625 215.51171875 552.493164062 c 4,25,26
 214.23046875 533.393554688 214.23046875 533.393554688 214.051757812 512.587890625 c 132,-1,27
 213.873046875 491.782226562 213.873046875 491.782226562 214.319335938 463.999023438 c 132,-1,28
 214.765625 436.215820312 214.765625 436.215820312 214.765625 423.690429688 c 5,29,30
 218.112304688 423.690429688 218.112304688 423.690429688 218.259765625 423.810546875 c 4,31,32
 260.365234375 458.017578125 260.365234375 458.017578125 311.416015625 459.3203125 c 132,-1,33
 362.467773438 460.624023438 362.467773438 460.624023438 403.467773438 429.87890625 c 132,-1,34
 444.467773438 399.134765625 444.467773438 399.134765625 458.67578125 345.995117188 c 4,35,36
 490.192382812 228.134765625 490.192382812 228.134765625 454.999023438 110.99609375 c 4,37,38
 437.161132812 51.61328125 437.161132812 51.61328125 390 18 c 132,-1,39
 342.837890625 -15.6123046875 342.837890625 -15.6123046875 274.473632812 -19.11328125 c 4,40,41
 190.61328125 -23.408203125 190.61328125 -23.408203125 134.22265625 9.6015625 c 4,0,1
275.516601562 152.659179688 m 5,42,43
 285.200195312 169.140625 285.200195312 169.140625 289.0234375 190.40625 c 132,-1,44
 292.84765625 211.671875 292.84765625 211.671875 292.875 222.600585938 c 132,-1,45
 292.90234375 233.529296875 292.90234375 233.529296875 289.657226562 263.684570312 c 132,-1,46
 286.412109375 293.83984375 286.412109375 293.83984375 286.041015625 298.373046875 c 4,47,48
 284.895507812 312.3515625 284.895507812 312.3515625 274.943359375 319.869140625 c 132,-1,49
 264.9921875 327.38671875 264.9921875 327.38671875 249.400390625 326.670898438 c 4,50,51
 234.040039062 325.96875 234.040039062 325.96875 225.237304688 317.361328125 c 132,-1,52
 216.435546875 308.752929688 216.435546875 308.752929688 215.775390625 294.627929688 c 4,53,54
 212.20703125 218.224609375 212.20703125 218.224609375 216.271484375 177.577148438 c 4,55,56
 218.599609375 154.29296875 218.599609375 154.29296875 235.20703125 147.48828125 c 132,-1,57
 251.814453125 140.68359375 251.814453125 140.68359375 275.516601562 152.659179688 c 5,42,43
EndSplineSet
EndChar

StartChar: seven
Encoding: 55 55 74
Width: 507
GlyphClass: 1
Flags: W
LayerCount: 2
Fore
SplineSet
427.615234375 482.491210938 m 4,0,1
 386.482421875 331.905273438 386.482421875 331.905273438 293.466796875 -8.826171875 c 5,2,-1
 117.208007812 -8.826171875 l 5,3,4
 138.78125 70.85546875 138.78125 70.85546875 194.08984375 275.1484375 c 132,-1,5
 249.400390625 479.44140625 249.400390625 479.44140625 279.603515625 591 c 5,6,-1
 198 591 l 5,7,-1
 198 491.744140625 l 5,8,-1
 28.51953125 491.744140625 l 5,9,-1
 28.51953125 734.5234375 l 5,10,-1
 459.571289062 734.5234375 l 5,11,12
 469.1953125 602.430664062 469.1953125 602.430664062 437.626953125 517.243164062 c 4,13,14
 437.161132812 515.989257812 437.161132812 515.989257812 427.615234375 482.491210938 c 4,0,1
EndSplineSet
EndChar

StartChar: eight
Encoding: 56 56 75
Width: 507
GlyphClass: 1
Flags: W
LayerCount: 2
Fore
SplineSet
64.41015625 449.00390625 m 5,0,1
 47.822265625 480.461914062 47.822265625 480.461914062 44.443359375 520.302734375 c 132,-1,2
 41.064453125 560.143554688 41.064453125 560.143554688 45.8994140625 593.05078125 c 4,3,4
 52.337890625 672.375976562 52.337890625 672.375976562 104.140625 712.662109375 c 132,-1,5
 155.944335938 752.948242188 155.944335938 752.948242188 231.30078125 751.959960938 c 4,6,7
 298.631835938 751.078125 298.631835938 751.078125 339 738 c 4,8,9
 440.793945312 705.020507812 440.793945312 705.020507812 448.553710938 589.176757812 c 4,10,11
 450.806640625 555.591796875 450.806640625 555.591796875 448.463867188 518.30078125 c 4,12,13
 443.702148438 442.62890625 443.702148438 442.62890625 380.359375 397.552734375 c 5,14,15
 457.336914062 357.245117188 457.336914062 357.245117188 462.865234375 277.912109375 c 4,16,17
 469.092773438 188.489257812 469.092773438 188.489257812 459.217773438 124.049804688 c 4,18,19
 445.93359375 37.3740234375 445.93359375 37.3740234375 353.048828125 1.8056640625 c 4,20,21
 244.879882812 -39.6201171875 244.879882812 -39.6201171875 139.474609375 2.01171875 c 4,22,23
 31.755859375 44.552734375 31.755859375 44.552734375 27.703125 166.9296875 c 4,24,25
 27.2666015625 180.125 27.2666015625 180.125 27.41796875 203.459960938 c 132,-1,26
 27.5693359375 226.795898438 27.5693359375 226.795898438 27.376953125 240.002929688 c 4,27,28
 25.2333984375 348.530273438 25.2333984375 348.530273438 109.336914062 395.973632812 c 5,29,30
 79.9365234375 430.514648438 79.9365234375 430.514648438 64.41015625 449.00390625 c 5,0,1
288.234375 224.287109375 m 5,31,32
 285.170898438 287.317382812 285.170898438 287.317382812 284.423828125 292.481445312 c 4,33,34
 280.013671875 322.98046875 280.013671875 322.98046875 246.668945312 323.518554688 c 4,35,36
 231.533203125 323.76171875 231.533203125 323.76171875 221.450195312 315.84375 c 132,-1,37
 211.3671875 307.92578125 211.3671875 307.92578125 210.4453125 294.063476562 c 4,38,39
 206.502929688 234.721679688 206.502929688 234.721679688 209.700195312 176.828125 c 4,40,41
 210.506835938 162.2265625 210.506835938 162.2265625 221.142578125 153.775390625 c 132,-1,42
 231.778320312 145.323242188 231.778320312 145.323242188 247.180664062 145.635742188 c 4,43,44
 278.776367188 146.27734375 278.776367188 146.27734375 284.848632812 177.615234375 c 4,45,46
 285.962890625 183.361328125 285.962890625 183.361328125 288.234375 224.287109375 c 5,31,32
279.844726562 488.909179688 m 5,47,48
 280.732421875 575.74609375 280.732421875 575.74609375 280.1953125 584.51953125 c 4,49,50
 279.368164062 598.053710938 279.368164062 598.053710938 269.75 605.684570312 c 132,-1,51
 260.1328125 613.315429688 260.1328125 613.315429688 245.760742188 613.063476562 c 132,-1,52
 231.431640625 612.8125 231.431640625 612.8125 222.705078125 604.838867188 c 132,-1,53
 213.978515625 596.865234375 213.978515625 596.865234375 213.190429688 582.7109375 c 4,54,55
 211.153320312 546.163085938 211.153320312 546.163085938 212.387695312 499.387695312 c 4,56,57
 213.110351562 471.923828125 213.110351562 471.923828125 238.793945312 467.418945312 c 4,58,59
 267.017578125 462.466796875 267.017578125 462.466796875 279.844726562 488.909179688 c 5,47,48
EndSplineSet
EndChar

StartChar: nine
Encoding: 57 57 76
Width: 522
GlyphClass: 1
Flags: W
LayerCount: 2
Fore
SplineSet
360.286132812 746.525390625 m 4,0,1
 465.440429688 692.065429688 465.440429688 692.065429688 470.01953125 560.893554688 c 4,2,3
 476.065429688 387.533203125 476.065429688 387.533203125 470.076171875 206.490234375 c 4,4,5
 465.709960938 74.435546875 465.709960938 74.435546875 372 27 c 4,6,7
 240.66015625 -39.4833984375 240.66015625 -39.4833984375 120.8359375 36.533203125 c 4,8,9
 53.85546875 79.0234375 53.85546875 79.0234375 45.904296875 181.8984375 c 4,10,11
 45.650390625 185.190429688 45.650390625 185.190429688 45.650390625 245.495117188 c 5,12,-1
 218.66015625 245.495117188 l 5,13,14
 218.66015625 212.891601562 218.66015625 212.891601562 218.944335938 210.278320312 c 4,15,16
 221.37890625 187.850585938 221.37890625 187.850585938 226.645507812 177.37109375 c 4,17,18
 235.21484375 160.313476562 235.21484375 160.313476562 255.501953125 160.301757812 c 132,-1,19
 275.788085938 160.291015625 275.788085938 160.291015625 284.315429688 177.508789062 c 4,20,21
 292.6484375 194.416992188 292.6484375 194.416992188 293.498046875 218.809570312 c 4,22,23
 293.913085938 230.6953125 293.913085938 230.6953125 293.913085938 329.087890625 c 5,24,25
 268.48828125 310.287109375 268.48828125 310.287109375 267.267578125 309.57421875 c 4,26,27
 236.907226562 291.833007812 236.907226562 291.833007812 196.870117188 290.591796875 c 132,-1,28
 156.833007812 289.350585938 156.833007812 289.350585938 116.475585938 312.168945312 c 132,-1,29
 76.1181640625 334.987304688 76.1181640625 334.987304688 56.3603515625 381.172851562 c 4,30,31
 39.642578125 420.249023438 39.642578125 420.249023438 38.2177734375 463.741210938 c 4,32,33
 34.9921875 562.155273438 34.9921875 562.155273438 43.685546875 611.19921875 c 4,34,35
 56.60546875 684.078125 56.60546875 684.078125 107.740234375 725.028320312 c 132,-1,36
 158.875976562 765.978515625 158.875976562 765.978515625 237.569335938 768.509765625 c 4,37,38
 311.620117188 770.889648438 311.620117188 770.889648438 360.286132812 746.525390625 c 4,0,1
288.248046875 579.487304688 m 5,39,40
 278.875976562 607.830078125 278.875976562 607.830078125 249.05078125 604.317382812 c 4,41,42
 220.51953125 600.956054688 220.51953125 600.956054688 219.069335938 570.670898438 c 4,43,44
 216.110351562 508.780273438 216.110351562 508.780273438 219.209960938 457.96484375 c 4,45,46
 221.28125 423.985351562 221.28125 423.985351562 255.528320312 423.775390625 c 4,47,48
 270.8125 423.681640625 270.8125 423.681640625 280.512695312 432.720703125 c 132,-1,49
 290.211914062 441.760742188 290.211914062 441.760742188 290.875 458.7421875 c 4,50,51
 292.247070312 493.943359375 292.247070312 493.943359375 288.248046875 579.487304688 c 5,39,40
EndSplineSet
EndChar

StartChar: Aogonek
Encoding: 260 260 96
Width: 524
GlyphClass: 2
Flags: W
AnchorPoint: "Anchor-18" 249 744 basechar 0
AnchorPoint: "Anchor-17" 519 0 basechar 0
AnchorPoint: "Anchor-16" 262 188 basechar 0
AnchorPoint: "Anchor-15" 249 0 basechar 0
LayerCount: 2
Fore
SplineSet
560 -71 m 1,0,1
 562 -131 562 -131 534 -159.5 c 128,-1,2
 506 -188 506 -188 440 -188 c 0,3,4
 390 -188 390 -188 362 -168 c 128,-1,5
 334 -148 334 -148 334 -110 c 0,6,7
 334 -75 334 -75 360.5 -45.5 c 128,-1,8
 387 -16 387 -16 437 0 c 1,9,-1
 335 0 l 1,10,-1
 320 111 l 1,11,-1
 204 111 l 1,12,-1
 189 0 l 1,13,-1
 3 0 l 1,14,-1
 140 744 l 1,15,-1
 384 744 l 1,16,-1
 521 0 l 1,17,-1
 519 0 l 1,18,19
 477 -23 477 -23 456.5 -47 c 128,-1,20
 436 -71 436 -71 436 -94 c 0,21,22
 436 -102 436 -102 440.5 -106.5 c 128,-1,23
 445 -111 445 -111 452 -111 c 0,24,25
 464 -111 464 -111 469 -103 c 128,-1,26
 474 -95 474 -95 474 -71 c 1,27,-1
 560 -71 l 1,0,1
256 496 m 1,28,-1
 224 261 l 1,29,-1
 300 261 l 1,30,-1
 268 496 l 1,31,-1
 263 550 l 1,32,-1
 261 550 l 1,33,-1
 256 496 l 1,28,-1
EndSplineSet
Substitution2: "'c2sc' Capitals to Small Capitals in Latin lookup 16 subtable" aogonek.sc
Substitution2: "'aalt' Access All Alternates in Latin lookup 0 subtable" aogonek.sc
EndChar

StartChar: Ccedilla
Encoding: 199 199 103
Width: 495
GlyphClass: 2
Flags: W
AnchorPoint: "Anchor-18" 250 744 basechar 0
AnchorPoint: "Anchor-15" 248 -185 basechar 0
LayerCount: 2
Fore
SplineSet
475 443 m 1,0,-1
 293 443 l 1,1,-1
 293 531 l 2,2,3
 293 564 293 564 283.5 580.5 c 128,-1,4
 274 597 274 597 250 597 c 0,5,6
 207 597 207 597 207 531 c 2,7,-1
 207 213 l 2,8,9
 207 147 207 147 250 147 c 0,10,11
 272 147 272 147 282.5 162.5 c 128,-1,12
 293 178 293 178 293 212 c 2,13,-1
 293 312 l 1,14,-1
 475 312 l 1,15,-1
 475 239 l 2,16,17
 475 118 475 118 428 55.5 c 128,-1,18
 381 -7 381 -7 278 -14 c 1,19,-1
 271 -34 l 1,20,21
 283 -32 283 -32 288 -32 c 0,22,23
 316 -32 316 -32 334 -49.5 c 128,-1,24
 352 -67 352 -67 352 -98 c 0,25,26
 352 -137 352 -137 325.5 -161.5 c 128,-1,27
 299 -186 299 -186 247 -186 c 0,28,29
 141 -186 141 -186 141 -93 c 1,30,-1
 218 -93 l 1,31,32
 219 -110 219 -110 225 -116 c 128,-1,33
 231 -122 231 -122 242 -122 c 0,34,35
 262 -122 262 -122 262 -97 c 0,36,37
 262 -83 262 -83 256.5 -76.5 c 128,-1,38
 251 -70 251 -70 242 -70 c 0,39,40
 238 -70 238 -70 232 -72 c 1,41,-1
 194 -50 l 1,42,-1
 205 -12 l 1,43,44
 25 12 25 12 25 242 c 2,45,-1
 25 500 l 2,46,47
 25 758 25 758 250 758 c 0,48,49
 364 758 364 758 419.5 694.5 c 128,-1,50
 475 631 475 631 475 505 c 2,51,-1
 475 443 l 1,0,-1
EndSplineSet
Substitution2: "'c2sc' Capitals to Small Capitals in Latin lookup 16 subtable" ccedilla.sc
Substitution2: "'aalt' Access All Alternates in Latin lookup 0 subtable" ccedilla.sc
EndChar

StartChar: Eogonek
Encoding: 280 280 125
Width: 420
GlyphClass: 2
Flags: W
AnchorPoint: "Anchor-18" 213 744 basechar 0
AnchorPoint: "Anchor-17" 401 0 basechar 0
AnchorPoint: "Anchor-15" 223 0 basechar 0
LayerCount: 2
Fore
SplineSet
442 -71 m 1,0,1
 444 -131 444 -131 416 -159.5 c 128,-1,2
 388 -188 388 -188 322 -188 c 0,3,4
 272 -188 272 -188 244 -168 c 128,-1,5
 216 -148 216 -148 216 -110 c 0,6,7
 216 -75 216 -75 242.5 -45.5 c 128,-1,8
 269 -16 269 -16 319 0 c 1,9,-1
 33 0 l 1,10,-1
 33 744 l 1,11,-1
 394 744 l 1,12,-1
 394 584 l 1,13,-1
 215 584 l 1,14,-1
 215 454 l 1,15,-1
 374 454 l 1,16,-1
 374 302 l 1,17,-1
 215 302 l 1,18,-1
 215 163 l 1,19,-1
 401 163 l 1,20,-1
 401 0 l 1,21,22
 359 -23 359 -23 338.5 -47 c 128,-1,23
 318 -71 318 -71 318 -94 c 0,24,25
 318 -102 318 -102 322.5 -106.5 c 128,-1,26
 327 -111 327 -111 334 -111 c 0,27,28
 346 -111 346 -111 351 -103 c 128,-1,29
 356 -95 356 -95 356 -71 c 1,30,-1
 442 -71 l 1,0,1
EndSplineSet
Substitution2: "'c2sc' Capitals to Small Capitals in Latin lookup 16 subtable" eogonek.sc
Substitution2: "'aalt' Access All Alternates in Latin lookup 0 subtable" eogonek.sc
EndChar

StartChar: Hbar
Encoding: 294 294 133
Width: 516
GlyphClass: 2
Flags: W
AnchorPoint: "Anchor-18" 258 744 basechar 0
AnchorPoint: "Anchor-16" 258 592 basechar 0
AnchorPoint: "Anchor-15" 258 0 basechar 0
LayerCount: 2
Fore
SplineSet
482 626 m 1,0,-1
 511 626 l 1,1,-1
 511 561 l 1,2,-1
 482 561 l 1,3,-1
 482 0 l 1,4,-1
 300 0 l 1,5,-1
 300 296 l 1,6,-1
 215 296 l 1,7,-1
 215 0 l 1,8,-1
 33 0 l 1,9,-1
 33 561 l 1,10,-1
 15 561 l 1,11,-1
 15 626 l 1,12,-1
 33 626 l 1,13,-1
 33 744 l 1,14,-1
 215 744 l 1,15,-1
 215 626 l 1,16,-1
 300 626 l 1,17,-1
 300 744 l 1,18,-1
 482 744 l 1,19,-1
 482 626 l 1,0,-1
215 457 m 1,20,-1
 300 457 l 1,21,-1
 300 561 l 1,22,-1
 215 561 l 1,23,-1
 215 457 l 1,20,-1
EndSplineSet
Substitution2: "'c2sc' Capitals to Small Capitals in Latin lookup 16 subtable" hbar.sc
Substitution2: "'aalt' Access All Alternates in Latin lookup 0 subtable" hbar.sc
EndChar

StartChar: Iogonek
Encoding: 302 302 148
Width: 248
GlyphClass: 2
Flags: W
AnchorPoint: "Anchor-18" 124 744 basechar 0
AnchorPoint: "Anchor-17" 181 0 basechar 0
AnchorPoint: "Anchor-15" 124 0 basechar 0
LayerCount: 2
Fore
SplineSet
222 -71 m 1,0,1
 224 -131 224 -131 196 -159.5 c 128,-1,2
 168 -188 168 -188 102 -188 c 0,3,4
 52 -188 52 -188 24 -168 c 128,-1,5
 -4 -148 -4 -148 -4 -110 c 0,6,7
 -4 -75 -4 -75 22.5 -45.5 c 128,-1,8
 49 -16 49 -16 99 0 c 1,9,-1
 33 0 l 1,10,-1
 33 744 l 1,11,-1
 215 744 l 1,12,-1
 215 0 l 1,13,-1
 181 0 l 1,14,15
 139 -23 139 -23 118.5 -47 c 128,-1,16
 98 -71 98 -71 98 -94 c 0,17,18
 98 -102 98 -102 102.5 -106.5 c 128,-1,19
 107 -111 107 -111 114 -111 c 0,20,21
 126 -111 126 -111 131 -103 c 128,-1,22
 136 -95 136 -95 136 -71 c 1,23,-1
 222 -71 l 1,0,1
EndSplineSet
Substitution2: "'ss03' Style Set 3 in Latin lookup 23 subtable" Iogonek.ss03
Substitution2: "'c2sc' Capitals to Small Capitals in Latin lookup 16 subtable" iogonek.sc
AlternateSubs2: "'aalt' Access All Alternates in Latin lookup 1 subtable" iogonek.sc Iogonek.ss03
EndChar

StartChar: Ldot
Encoding: 319 319 155
Width: 416
GlyphClass: 2
Flags: W
AnchorPoint: "Anchor-19" 266 744 basechar 0
AnchorPoint: "Anchor-18" 131 744 basechar 0
AnchorPoint: "Anchor-16" 134 384 basechar 0
AnchorPoint: "Anchor-15" 198 0 basechar 0
LayerCount: 2
Fore
SplineSet
379 0 m 1,0,-1
 33 0 l 1,1,-1
 33 744 l 1,2,-1
 215 744 l 1,3,-1
 215 167 l 1,4,-1
 379 167 l 1,5,-1
 379 0 l 1,0,-1
256 440 m 0,7,8
 256 506 256 506 332 506 c 256,9,10
 408 506 408 506 408 440 c 0,11,12
 408 375 408 375 332 375 c 256,13,6
 256 375 256 375 256 440 c 0,7,8
EndSplineSet
Ligature2: "Ligature Substitution lookup 26 subtable" L periodcentered
Substitution2: "'c2sc' Capitals to Small Capitals in Latin lookup 16 subtable" ldot.sc
Substitution2: "'aalt' Access All Alternates in Latin lookup 0 subtable" ldot.sc
EndChar

StartChar: Lslash
Encoding: 321 321 159
Width: 408
GlyphClass: 2
Flags: W
AnchorPoint: "Anchor-19" 284 744 basechar 0
AnchorPoint: "Anchor-18" 149 744 basechar 0
AnchorPoint: "Anchor-16" 153 384 basechar 0
AnchorPoint: "Anchor-15" 216 0 basechar 0
LayerCount: 2
Fore
SplineSet
234 377 m 1,0,-1
 234 167 l 1,1,-1
 398 167 l 1,2,-1
 398 0 l 1,3,-1
 52 0 l 1,4,-1
 52 292 l 1,5,-1
 42 287 l 1,6,-1
 8 352 l 1,7,-1
 52 373 l 1,8,-1
 52 744 l 1,9,-1
 234 744 l 1,10,-1
 234 459 l 1,11,-1
 282 482 l 1,12,-1
 317 416 l 1,13,-1
 234 377 l 1,0,-1
EndSplineSet
Substitution2: "'c2sc' Capitals to Small Capitals in Latin lookup 16 subtable" lslash.sc
Substitution2: "'aalt' Access All Alternates in Latin lookup 0 subtable" lslash.sc
EndChar

StartChar: Eng
Encoding: 330 330 166
Width: 533
GlyphClass: 2
Flags: W
AnchorPoint: "Anchor-18" 266 744 basechar 0
AnchorPoint: "Anchor-15" 266 0 basechar 0
LayerCount: 2
Fore
SplineSet
321 744 m 1,0,-1
 500 744 l 1,1,-1
 500 0 l 2,2,3
 500 -96 500 -96 436.5 -136.5 c 128,-1,4
 373 -177 373 -177 255 -177 c 1,5,-1
 255 -69 l 1,6,7
 300 -69 300 -69 323 -51.5 c 128,-1,8
 346 -34 346 -34 346 0 c 1,9,-1
 324 0 l 1,10,-1
 225 302 l 1,11,-1
 210 363 l 1,12,-1
 208 363 l 1,13,-1
 212 292 l 1,14,-1
 212 0 l 1,15,-1
 33 0 l 1,16,-1
 33 744 l 1,17,-1
 209 744 l 1,18,-1
 308 436 l 1,19,-1
 323 375 l 1,20,-1
 325 375 l 1,21,-1
 321 447 l 1,22,-1
 321 744 l 1,0,-1
EndSplineSet
EndChar

StartChar: uni019D
Encoding: 413 413 167
Width: 533
GlyphClass: 2
Flags: W
AnchorPoint: "Anchor-18" 266 744 basechar 0
AnchorPoint: "Anchor-15" 266 0 basechar 0
LayerCount: 2
Fore
SplineSet
321 744 m 1,0,-1
 500 744 l 1,1,-1
 500 0 l 1,2,-1
 324 0 l 1,3,-1
 225 302 l 1,4,-1
 210 363 l 1,5,-1
 208 363 l 1,6,-1
 212 292 l 1,7,-1
 212 0 l 1,8,-1
 211 0 l 1,9,10
 211 -177 211 -177 -11 -177 c 1,11,-1
 -11 -69 l 1,12,13
 13 -69 13 -69 23 -53 c 128,-1,14
 33 -37 33 -37 33 0 c 2,15,-1
 33 744 l 1,16,-1
 209 744 l 1,17,-1
 308 436 l 1,18,-1
 323 375 l 1,19,-1
 325 375 l 1,20,-1
 321 447 l 1,21,-1
 321 744 l 1,0,-1
EndSplineSet
EndChar

StartChar: Ohorn
Encoding: 416 416 183
Width: 501
GlyphClass: 2
Flags: W
AnchorPoint: "Anchor-19" 488 760 basechar 0
AnchorPoint: "Anchor-18" 243 744 basechar 0
AnchorPoint: "Anchor-17" 366 10 basechar 0
AnchorPoint: "Anchor-16" 254 372 basechar 0
AnchorPoint: "Anchor-15" 243 0 basechar 0
LayerCount: 2
Fore
SplineSet
476 501 m 2,1,-1
 476 242 l 2,2,3
 476 115 476 115 419 50 c 128,-1,4
 362 -15 362 -15 251 -15 c 0,5,6
 139 -15 139 -15 82 50 c 128,-1,7
 25 115 25 115 25 242 c 2,8,-1
 25 501 l 2,9,10
 25 628 25 628 82 693 c 128,-1,11
 139 758 139 758 250 758 c 0,12,13
 279 758 279 758 309 753 c 1,14,15
 363 753 363 753 363 813 c 0,16,17
 363 835 363 835 358 855 c 1,18,-1
 457 860 l 1,19,20
 463 833 463 833 463 811 c 0,21,22
 463 739 463 739 403 709 c 1,23,0
 476 645 476 645 476 501 c 2,1,-1
294 530 m 2,24,25
 294 597 294 597 251 597 c 0,26,27
 207 597 207 597 207 530 c 2,28,-1
 207 213 l 2,29,30
 207 147 207 147 251 147 c 0,31,32
 294 147 294 147 294 213 c 2,33,-1
 294 530 l 2,24,25
EndSplineSet
EndChar

StartChar: uni1EE0
Encoding: 7904 7904 188
Width: 501
GlyphClass: 2
Flags: W
AnchorPoint: "Anchor-19" 488 760 basechar 0
AnchorPoint: "Anchor-18" 243 909 basechar 0
AnchorPoint: "Anchor-17" 366 10 basechar 0
AnchorPoint: "Anchor-16" 254 372 basechar 0
AnchorPoint: "Anchor-15" 243 0 basechar 0
LayerCount: 2
Fore
SplineSet
476 501 m 2,1,-1
 476 242 l 2,2,3
 476 115 476 115 419 50 c 128,-1,4
 362 -15 362 -15 251 -15 c 0,5,6
 139 -15 139 -15 82 50 c 128,-1,7
 25 115 25 115 25 242 c 2,8,-1
 25 501 l 2,9,10
 25 628 25 628 82 693 c 128,-1,11
 139 758 139 758 250 758 c 0,12,13
 279 758 279 758 309 753 c 1,14,15
 360 753 360 753 363 807 c 1,16,17
 344 785 344 785 305 785 c 0,18,19
 281 785 281 785 263 789.5 c 128,-1,20
 245 794 245 794 225 802 c 0,21,22
 207 810 207 810 199 810 c 0,23,24
 180 810 180 810 183 782 c 1,25,-1
 99 793 l 1,26,27
 95 851 95 851 116.5 880.5 c 128,-1,28
 138 910 138 910 181 910 c 0,29,30
 219 910 219 910 260 892 c 0,31,32
 282 884 282 884 287 884 c 0,33,34
 304 884 304 884 303 913 c 1,35,-1
 386 902 l 1,36,-1
 387 884 l 2,37,38
 387 870 387 870 384 856 c 1,39,-1
 457 860 l 1,40,41
 463 833 463 833 463 811 c 0,42,43
 463 739 463 739 403 709 c 1,44,0
 476 645 476 645 476 501 c 2,1,-1
294 530 m 2,45,46
 294 597 294 597 251 597 c 0,47,48
 207 597 207 597 207 530 c 2,49,-1
 207 213 l 2,50,51
 207 147 207 147 251 147 c 0,52,53
 294 147 294 147 294 213 c 2,54,-1
 294 530 l 2,45,46
EndSplineSet
EndChar

StartChar: uni01EA
Encoding: 490 490 191
Width: 501
GlyphClass: 2
Flags: W
AnchorPoint: "Anchor-19" 308 753 basechar 0
AnchorPoint: "Anchor-18" 254 744 basechar 0
AnchorPoint: "Anchor-17" 366 10 basechar 0
AnchorPoint: "Anchor-16" 254 372 basechar 0
AnchorPoint: "Anchor-15" 254 0 basechar 0
LayerCount: 2
Fore
SplineSet
419 693 m 128,-1,1
 476 628 476 628 476 501 c 2,2,-1
 476 242 l 2,3,4
 476 65 476 65 366 9 c 0,5,6
 324 -14 324 -14 303.5 -38 c 128,-1,7
 283 -62 283 -62 283 -85 c 0,8,9
 283 -93 283 -93 287.5 -97.5 c 128,-1,10
 292 -102 292 -102 299 -102 c 0,11,12
 311 -102 311 -102 316 -94 c 128,-1,13
 321 -86 321 -86 321 -62 c 1,14,-1
 407 -62 l 1,15,16
 409 -122 409 -122 381 -150.5 c 128,-1,17
 353 -179 353 -179 287 -179 c 0,18,19
 237 -179 237 -179 209 -159 c 128,-1,20
 181 -139 181 -139 181 -101 c 0,21,22
 181 -77 181 -77 194.5 -54.5 c 128,-1,23
 208 -32 208 -32 234 -15 c 1,24,25
 130 -10 130 -10 77.5 55 c 128,-1,26
 25 120 25 120 25 242 c 2,27,-1
 25 501 l 2,28,29
 25 628 25 628 82 693 c 128,-1,30
 139 758 139 758 250 758 c 0,31,0
 362 758 362 758 419 693 c 128,-1,1
207 213 m 2,32,33
 207 147 207 147 251 147 c 0,34,35
 294 147 294 147 294 213 c 2,36,-1
 294 530 l 2,37,38
 294 597 294 597 251 597 c 0,39,40
 207 597 207 597 207 530 c 2,41,-1
 207 213 l 2,32,33
EndSplineSet
EndChar

StartChar: Oslash
Encoding: 216 216 192
Width: 501
GlyphClass: 2
Flags: W
AnchorPoint: "Anchor-19" 308 753 basechar 0
AnchorPoint: "Anchor-18" 254 744 basechar 0
AnchorPoint: "Anchor-17" 366 10 basechar 0
AnchorPoint: "Anchor-16" 254 372 basechar 0
AnchorPoint: "Anchor-15" 254 0 basechar 0
LayerCount: 2
Fore
SplineSet
418 694 m 1,0,1
 476 630 476 630 476 501 c 2,2,-1
 476 242 l 2,3,4
 476 115 476 115 419 50 c 128,-1,5
 362 -15 362 -15 251 -15 c 0,6,7
 184 -15 184 -15 139 7 c 1,8,-1
 107 -72 l 1,9,-1
 49 -46 l 1,10,-1
 86 45 l 1,11,12
 25 111 25 111 25 242 c 2,13,-1
 25 501 l 2,14,15
 25 628 25 628 82 693 c 128,-1,16
 139 758 139 758 250 758 c 0,17,18
 318 758 318 758 366 734 c 1,19,-1
 399 816 l 1,20,-1
 458 791 l 1,21,-1
 418 694 l 1,0,1
207 343 m 1,22,-1
 292 554 l 1,23,24
 286 597 286 597 251 597 c 0,25,26
 207 597 207 597 207 530 c 2,27,-1
 207 343 l 1,22,-1
294 213 m 2,29,-1
 294 388 l 1,30,-1
 210 182 l 1,31,32
 218 147 218 147 251 147 c 0,33,28
 294 147 294 147 294 213 c 2,29,-1
EndSplineSet
Substitution2: "'c2sc' Capitals to Small Capitals in Latin lookup 16 subtable" oslash.sc
Substitution2: "'aalt' Access All Alternates in Latin lookup 0 subtable" oslash.sc
EndChar

StartChar: Scedilla
Encoding: 350 350 202
Width: 479
GlyphClass: 2
Flags: W
AnchorPoint: "Anchor-18" 240 744 basechar 0
AnchorPoint: "Anchor-15" 238 -185 basechar 0
LayerCount: 2
Fore
SplineSet
386.5 392 m 128,-1,1
 428 361 428 361 446 322 c 128,-1,2
 464 283 464 283 464 226 c 2,3,-1
 464 178 l 2,4,5
 464 94 464 94 410.5 43.5 c 128,-1,6
 357 -7 357 -7 268 -14 c 1,7,-1
 261 -34 l 1,8,9
 273 -32 273 -32 278 -32 c 0,10,11
 306 -32 306 -32 324 -49.5 c 128,-1,12
 342 -67 342 -67 342 -98 c 0,13,14
 342 -137 342 -137 315 -161.5 c 128,-1,15
 288 -186 288 -186 237 -186 c 0,16,17
 131 -186 131 -186 131 -93 c 1,18,-1
 208 -93 l 1,19,20
 208 -110 208 -110 214 -116 c 128,-1,21
 220 -122 220 -122 231 -122 c 0,22,23
 251 -122 251 -122 251 -97 c 0,24,25
 251 -83 251 -83 245.5 -76.5 c 128,-1,26
 240 -70 240 -70 231 -70 c 0,27,28
 228 -70 228 -70 222 -72 c 1,29,-1
 183 -50 l 1,30,-1
 195 -12 l 1,31,32
 15 8 15 8 15 202 c 2,33,-1
 15 247 l 1,34,-1
 193 247 l 1,35,-1
 193 202 l 2,36,37
 193 140 193 140 241 140 c 0,38,39
 259 140 259 140 269.5 151.5 c 128,-1,40
 280 163 280 163 280 181 c 2,41,-1
 280 228 l 2,42,43
 280 248 280 248 272.5 260 c 128,-1,44
 265 272 265 272 248 282 c 128,-1,45
 231 292 231 292 189 312 c 2,46,-1
 171 321 l 2,47,48
 113 349 113 349 80.5 375.5 c 128,-1,49
 48 402 48 402 34 437 c 128,-1,50
 20 472 20 472 19 524 c 2,51,-1
 19 567 l 2,52,53
 19 659 19 659 79 708.5 c 128,-1,54
 139 758 139 758 239 758 c 0,55,56
 345 758 345 758 401.5 701.5 c 128,-1,57
 458 645 458 645 456 541 c 2,58,-1
 456 500 l 1,59,-1
 285 500 l 1,60,-1
 285 541 l 2,61,62
 285 603 285 603 239 603 c 0,63,64
 220 603 220 603 211 593 c 128,-1,65
 202 583 202 583 202 566 c 2,66,-1
 202 524 l 2,67,68
 202 500 202 500 217.5 486 c 128,-1,69
 233 472 233 472 271 455 c 0,70,0
 345 423 345 423 386.5 392 c 128,-1,1
EndSplineSet
Substitution2: "'c2sc' Capitals to Small Capitals in Latin lookup 16 subtable" scedilla.sc
Substitution2: "'locl' Localized Forms in Latin lookup 7 subtable" uni0218
AlternateSubs2: "'aalt' Access All Alternates in Latin lookup 1 subtable" uni0218 scedilla.sc
EndChar

StartChar: uni018F
Encoding: 399 399 207
Width: 483
GlyphClass: 1
Flags: W
LayerCount: 2
Fore
SplineSet
67.5 53.5 m 128,-1,1
 16 121 16 121 16 270 c 2,2,-1
 16 422 l 1,3,-1
 284 422 l 1,4,-1
 284 514 l 2,5,6
 284 555 284 555 274 576 c 128,-1,7
 264 597 264 597 240 597 c 0,8,9
 215 597 215 597 204.5 579 c 128,-1,10
 194 561 194 561 194 517 c 2,11,-1
 194 478 l 1,12,-1
 18 478 l 1,13,-1
 18 516 l 2,14,15
 18 630 18 630 72 694 c 128,-1,16
 126 758 126 758 241 758 c 0,17,18
 466 758 466 758 466 500 c 2,19,-1
 466 243 l 2,20,21
 466 114 466 114 411 50 c 128,-1,22
 356 -14 356 -14 240 -14 c 0,23,0
 119 -14 119 -14 67.5 53.5 c 128,-1,1
274 166 m 128,-1,25
 284 185 284 185 284 219 c 2,26,-1
 284 303 l 1,27,-1
 195 303 l 1,28,-1
 195 216 l 2,29,30
 195 179 195 179 206 163 c 128,-1,31
 217 147 217 147 239 147 c 0,32,24
 264 147 264 147 274 166 c 128,-1,25
EndSplineSet
EndChar

StartChar: Tbar
Encoding: 358 358 208
Width: 419
GlyphClass: 2
Flags: W
AnchorPoint: "Anchor-18" 210 744 basechar 0
AnchorPoint: "Anchor-16" 210 372 basechar 0
AnchorPoint: "Anchor-15" 209 -1 basechar 0
LayerCount: 2
Fore
SplineSet
411 744 m 1,0,-1
 411 577 l 1,1,-1
 301 577 l 1,2,-1
 301 414 l 1,3,-1
 378 414 l 1,4,-1
 378 325 l 1,5,-1
 301 325 l 1,6,-1
 301 0 l 1,7,-1
 118 0 l 1,8,-1
 118 325 l 1,9,-1
 44 325 l 1,10,-1
 44 414 l 1,11,-1
 118 414 l 1,12,-1
 118 577 l 1,13,-1
 8 577 l 1,14,-1
 8 744 l 1,15,-1
 411 744 l 1,0,-1
EndSplineSet
Substitution2: "'c2sc' Capitals to Small Capitals in Latin lookup 16 subtable" tbar.sc
Substitution2: "'aalt' Access All Alternates in Latin lookup 0 subtable" tbar.sc
EndChar

StartChar: uni0162
Encoding: 354 354 210
Width: 419
GlyphClass: 2
Flags: W
AnchorPoint: "Anchor-18" 210 744 basechar 0
AnchorPoint: "Anchor-16" 210 372 basechar 0
AnchorPoint: "Anchor-15" 207 -186 basechar 0
LayerCount: 2
Fore
SplineSet
301 0 m 1,0,-1
 242 0 l 1,1,-1
 230 -35 l 1,2,3
 242 -33 242 -33 247 -33 c 0,4,5
 275 -33 275 -33 293 -50.5 c 128,-1,6
 311 -68 311 -68 311 -99 c 0,7,8
 311 -138 311 -138 284.5 -162.5 c 128,-1,9
 258 -187 258 -187 206 -187 c 0,10,11
 100 -187 100 -187 100 -94 c 1,12,-1
 177 -94 l 1,13,14
 178 -111 178 -111 184 -117 c 128,-1,15
 190 -123 190 -123 201 -123 c 0,16,17
 221 -123 221 -123 221 -98 c 0,18,19
 221 -84 221 -84 215.5 -77.5 c 128,-1,20
 210 -71 210 -71 201 -71 c 0,21,22
 197 -71 197 -71 191 -73 c 1,23,-1
 153 -51 l 1,24,-1
 168 0 l 1,25,-1
 118 0 l 1,26,-1
 118 577 l 1,27,-1
 8 577 l 1,28,-1
 8 744 l 1,29,-1
 411 744 l 1,30,-1
 411 577 l 1,31,-1
 301 577 l 1,32,-1
 301 0 l 1,0,-1
EndSplineSet
Substitution2: "'locl' Localized Forms in Latin lookup 7 subtable" uni021A
Substitution2: "'aalt' Access All Alternates in Latin lookup 0 subtable" uni021A
EndChar

StartChar: Uhorn
Encoding: 431 431 226
Width: 515
GlyphClass: 2
Flags: W
AnchorPoint: "Anchor-19" 573 750 basechar 0
AnchorPoint: "Anchor-18" 248 744 basechar 0
AnchorPoint: "Anchor-17" 370 10 basechar 0
AnchorPoint: "Anchor-15" 248 0 basechar 0
LayerCount: 2
Fore
SplineSet
542 851 m 1,0,1
 548 824 548 824 548 802 c 0,2,3
 548 721 548 721 476 694 c 1,4,-1
 476 232 l 2,5,6
 476 104 476 104 422 44.5 c 128,-1,7
 368 -15 368 -15 251 -15 c 0,8,9
 135 -15 135 -15 81 44 c 128,-1,10
 27 103 27 103 27 231 c 2,11,-1
 27 744 l 1,12,-1
 209 744 l 1,13,-1
 209 211 l 2,14,15
 209 147 209 147 251 147 c 0,16,17
 272 147 272 147 283 163 c 128,-1,18
 294 179 294 179 294 211 c 2,19,-1
 294 744 l 1,20,-1
 406 744 l 1,21,22
 448 751 448 751 448 804 c 0,23,24
 448 819 448 819 443 846 c 1,25,-1
 542 851 l 1,0,1
EndSplineSet
EndChar

StartChar: Uogonek
Encoding: 370 370 234
Width: 503
GlyphClass: 2
Flags: W
AnchorPoint: "Anchor-19" 393 744 basechar 0
AnchorPoint: "Anchor-18" 248 744 basechar 0
AnchorPoint: "Anchor-17" 370 10 basechar 0
AnchorPoint: "Anchor-15" 248 0 basechar 0
LayerCount: 2
Fore
SplineSet
294 744 m 1,0,-1
 476 744 l 1,1,-1
 476 232 l 2,2,3
 476 136 476 136 445.5 79 c 128,-1,4
 415 22 415 22 352 0 c 1,5,6
 287 -41 287 -41 287 -84 c 0,7,8
 287 -92 287 -92 291.5 -96.5 c 128,-1,9
 296 -101 296 -101 303 -101 c 0,10,11
 315 -101 315 -101 320 -93 c 128,-1,12
 325 -85 325 -85 325 -61 c 1,13,-1
 411 -61 l 1,14,15
 413 -121 413 -121 385 -149.5 c 128,-1,16
 357 -178 357 -178 291 -178 c 0,17,18
 241 -178 241 -178 213 -158 c 128,-1,19
 185 -138 185 -138 185 -100 c 0,20,21
 185 -76 185 -76 198 -54 c 128,-1,22
 211 -32 211 -32 236 -15 c 1,23,24
 128 -11 128 -11 77.5 48 c 128,-1,25
 27 107 27 107 27 231 c 2,26,-1
 27 744 l 1,27,-1
 209 744 l 1,28,-1
 209 211 l 2,29,30
 209 147 209 147 251 147 c 0,31,32
 272 147 272 147 283 163 c 128,-1,33
 294 179 294 179 294 211 c 2,34,-1
 294 744 l 1,0,-1
EndSplineSet
Substitution2: "'c2sc' Capitals to Small Capitals in Latin lookup 16 subtable" uogonek.sc
Substitution2: "'aalt' Access All Alternates in Latin lookup 0 subtable" uogonek.sc
EndChar

StartChar: G.ss03
Encoding: 65537 -1 254
Width: 494
GlyphClass: 2
Flags: W
AnchorPoint: "Anchor-18" 250 744 basechar 0
AnchorPoint: "Anchor-15" 250 0 basechar 0
LayerCount: 2
Fore
SplineSet
25 235 m 2,1,-1
 25 505 l 2,2,3
 25 631 25 631 80.5 694.5 c 128,-1,4
 136 758 136 758 250 758 c 0,5,6
 370 758 370 758 421.5 698.5 c 128,-1,7
 473 639 473 639 473 506 c 2,8,-1
 473 464 l 1,9,-1
 293 464 l 1,10,-1
 293 537 l 2,11,12
 293 566 293 566 283.5 581.5 c 128,-1,13
 274 597 274 597 251 597 c 0,14,15
 230 597 230 597 218.5 580.5 c 128,-1,16
 207 564 207 564 207 533 c 2,17,-1
 207 222 l 2,18,19
 207 175 207 175 218 155.5 c 128,-1,20
 229 136 229 136 257 136 c 0,21,22
 281 136 281 136 293.5 153.5 c 128,-1,23
 306 171 306 171 306 205 c 2,24,-1
 306 258 l 1,25,-1
 258 258 l 1,26,-1
 258 391 l 1,27,-1
 474 391 l 1,28,-1
 474 -1 l 1,29,-1
 362 -1 l 1,30,-1
 362 44 l 1,31,-1
 370 99 l 1,32,-1
 366 99 l 1,33,34
 348 45 348 45 313 15.5 c 128,-1,35
 278 -14 278 -14 214 -14 c 0,36,0
 25 -14 25 -14 25 235 c 2,1,-1
EndSplineSet
EndChar

StartChar: I.ss03
Encoding: 65544 -1 261
Width: 290
GlyphClass: 2
Flags: W
AnchorPoint: "Anchor-18" 145 744 basechar 0
AnchorPoint: "Anchor-17" 268 0 basechar 0
AnchorPoint: "Anchor-15" 145 0 basechar 0
LayerCount: 2
Fore
SplineSet
282 744 m 1,0,-1
 282 582 l 1,1,-1
 229 582 l 1,2,-1
 229 162 l 1,3,-1
 282 162 l 1,4,-1
 282 0 l 1,5,-1
 8 0 l 1,6,-1
 8 162 l 1,7,-1
 61 162 l 1,8,-1
 61 582 l 1,9,-1
 8 582 l 1,10,-1
 8 744 l 1,11,-1
 282 744 l 1,0,-1
EndSplineSet
EndChar

StartChar: Iogonek.ss03
Encoding: 65555 -1 272
Width: 290
GlyphClass: 2
Flags: W
AnchorPoint: "Anchor-18" 145 744 basechar 0
AnchorPoint: "Anchor-17" 268 0 basechar 0
AnchorPoint: "Anchor-15" 145 0 basechar 0
LayerCount: 2
Fore
SplineSet
309 -71 m 1,0,1
 311 -131 311 -131 283 -159.5 c 128,-1,2
 255 -188 255 -188 189 -188 c 0,3,4
 139 -188 139 -188 111 -168 c 128,-1,5
 83 -148 83 -148 83 -110 c 0,6,7
 83 -75 83 -75 109.5 -45.5 c 128,-1,8
 136 -16 136 -16 186 0 c 1,9,-1
 8 0 l 1,10,-1
 8 162 l 1,11,-1
 61 162 l 1,12,-1
 61 582 l 1,13,-1
 8 582 l 1,14,-1
 8 744 l 1,15,-1
 282 744 l 1,16,-1
 282 582 l 1,17,-1
 229 582 l 1,18,-1
 229 162 l 1,19,-1
 282 162 l 1,20,-1
 282 0 l 1,21,-1
 268 0 l 1,22,23
 226 -23 226 -23 205.5 -47 c 128,-1,24
 185 -71 185 -71 185 -94 c 0,25,26
 185 -102 185 -102 189.5 -106.5 c 128,-1,27
 194 -111 194 -111 201 -111 c 0,28,29
 213 -111 213 -111 218 -103 c 128,-1,30
 223 -95 223 -95 223 -71 c 1,31,-1
 309 -71 l 1,0,1
EndSplineSet
EndChar

StartChar: J.ss03
Encoding: 65557 -1 274
Width: 495
GlyphClass: 2
Flags: W
AnchorPoint: "Anchor-18" 290 744 basechar 0
AnchorPoint: "Anchor-15" 243 0 basechar 0
LayerCount: 2
Fore
SplineSet
72.5 46.5 m 128,-1,1
 18 108 18 108 18 216 c 2,2,-1
 18 296 l 1,3,-1
 200 296 l 1,4,-1
 200 215 l 2,5,6
 200 177 200 177 210 162 c 128,-1,7
 220 147 220 147 243 147 c 0,8,9
 265 147 265 147 275.5 163 c 128,-1,10
 286 179 286 179 286 218 c 2,11,-1
 286 582 l 1,12,-1
 122 582 l 1,13,-1
 122 744 l 1,14,-1
 468 744 l 1,15,-1
 468 232 l 2,16,17
 468 105 468 105 412.5 45 c 128,-1,18
 357 -15 357 -15 242 -15 c 256,19,0
 127 -15 127 -15 72.5 46.5 c 128,-1,1
EndSplineSet
EndChar

StartChar: K.ss03
Encoding: 65559 -1 276
Width: 511
GlyphClass: 2
Flags: W
AnchorPoint: "Anchor-18" 257 744 basechar 0
AnchorPoint: "Anchor-15" 257 0 basechar 0
LayerCount: 2
Fore
SplineSet
215 0 m 1,0,-1
 33 0 l 1,1,-1
 33 744 l 1,2,-1
 215 744 l 1,3,-1
 215 460 l 1,4,-1
 218 460 l 1,5,-1
 231 508 l 1,6,-1
 304 744 l 1,7,-1
 497 744 l 1,8,-1
 371 417 l 1,9,-1
 508 0 l 1,10,-1
 315 0 l 1,11,-1
 261 206 l 1,12,-1
 250 260 l 1,13,-1
 247 260 l 1,14,-1
 215 191 l 1,15,-1
 215 0 l 1,0,-1
EndSplineSet
EndChar

StartChar: Q.ss03
Encoding: 65561 -1 278
Width: 501
GlyphClass: 2
Flags: W
AnchorPoint: "Anchor-18" 251 744 basechar 0
AnchorPoint: "Anchor-15" 251 0 basechar 0
LayerCount: 2
Fore
SplineSet
476 237 m 2,0,1
 476 178 476 178 463.5 141 c 128,-1,2
 451 104 451 104 419 83 c 1,3,-1
 419 77 l 1,4,5
 468 31 468 31 468 -70 c 2,6,-1
 468 -94 l 1,7,-1
 286 -94 l 1,8,-1
 286 -62 l 2,9,10
 286 -38 286 -38 278 -26.5 c 128,-1,11
 270 -15 270 -15 251 -15 c 0,12,13
 134 -15 134 -15 79.5 46 c 128,-1,14
 25 107 25 107 25 236 c 2,15,-1
 25 507 l 2,16,17
 25 637 25 637 79 697.5 c 128,-1,18
 133 758 133 758 250 758 c 256,19,20
 367 758 367 758 421.5 697 c 128,-1,21
 476 636 476 636 476 507 c 2,22,-1
 476 237 l 2,0,1
207 216 m 2,23,24
 207 181 207 181 218 164 c 128,-1,25
 229 147 229 147 251 147 c 0,26,27
 275 147 275 147 284.5 164.5 c 128,-1,28
 294 182 294 182 294 215 c 2,29,-1
 294 528 l 2,30,31
 294 597 294 597 251 597 c 0,32,33
 229 597 229 597 218 580 c 128,-1,34
 207 563 207 563 207 528 c 2,35,-1
 207 216 l 2,23,24
EndSplineSet
EndChar

StartChar: R.ss03
Encoding: 65562 -1 279
Width: 484
GlyphClass: 2
Flags: W
AnchorPoint: "Anchor-18" 253 744 basechar 0
AnchorPoint: "Anchor-15" 253 0 basechar 0
LayerCount: 2
Fore
SplineSet
33 0 m 1,0,-1
 33 744 l 1,1,-1
 265 744 l 2,2,3
 368 744 368 744 423 693.5 c 128,-1,4
 478 643 478 643 478 548 c 2,5,-1
 478 486 l 2,6,7
 478 427 478 427 455 388 c 128,-1,8
 432 349 432 349 387 334 c 1,9,-1
 387 331 l 1,10,11
 421 322 421 322 439.5 292 c 128,-1,12
 458 262 458 262 464 201 c 2,13,-1
 478 0 l 1,14,-1
 292 0 l 1,15,-1
 283 189 l 2,16,17
 281 226 281 226 269 241.5 c 128,-1,18
 257 257 257 257 231 257 c 2,19,-1
 215 257 l 1,20,-1
 215 0 l 1,21,-1
 33 0 l 1,0,-1
244 390 m 2,22,23
 269 390 269 390 282 405.5 c 128,-1,24
 295 421 295 421 295 463 c 2,25,-1
 295 524 l 2,26,27
 295 563 295 563 282.5 578.5 c 128,-1,28
 270 594 270 594 245 594 c 2,29,-1
 215 594 l 1,30,-1
 215 390 l 1,31,-1
 244 390 l 2,22,23
EndSplineSet
EndChar

StartChar: J.ss04
Encoding: 65569 -1 286
Width: 395
GlyphClass: 2
Flags: W
AnchorPoint: "Anchor-18" 276 744 basechar 0
AnchorPoint: "Anchor-15" 193 0 basechar 0
LayerCount: 2
Fore
SplineSet
186 744 m 1,0,-1
 368 744 l 1,1,-1
 368 204 l 2,2,3
 368 93 368 93 316 39 c 128,-1,4
 264 -15 264 -15 160 -15 c 0,5,6
 82 -15 82 -15 11 15 c 1,7,-1
 43 165 l 1,8,9
 99 147 99 147 129 147 c 0,10,11
 158 147 158 147 172 163 c 128,-1,12
 186 179 186 179 186 213 c 2,13,-1
 186 583 l 1,14,-1
 46 583 l 1,15,-1
 46 743 l 1,16,-1
 186 743 l 1,17,-1
 186 744 l 1,0,-1
EndSplineSet
EndChar

StartChar: aogonek
Encoding: 261 261 306
Width: 468
GlyphClass: 2
Flags: W
AnchorPoint: "Anchor-18" 233 595 basechar 0
AnchorPoint: "Anchor-17" 440 0 basechar 0
AnchorPoint: "Anchor-15" 232 0 basechar 0
LayerCount: 2
Fore
SplineSet
481 -71 m 1,0,1
 483 -131 483 -131 455 -159.5 c 128,-1,2
 427 -188 427 -188 361 -188 c 0,3,4
 311 -188 311 -188 283 -168 c 128,-1,5
 255 -148 255 -148 255 -110 c 0,6,7
 255 -75 255 -75 281.5 -45.5 c 128,-1,8
 308 -16 308 -16 358 0 c 1,9,-1
 265 0 l 1,10,-1
 265 28 l 1,11,-1
 268 59 l 1,12,-1
 266 59 l 1,13,14
 232 -15 232 -15 157 -15 c 0,15,16
 92 -15 92 -15 54.5 27 c 128,-1,17
 17 69 17 69 17 144 c 2,18,-1
 17 186 l 2,19,20
 17 263 17 263 60.5 305 c 128,-1,21
 104 347 104 347 191 347 c 0,22,23
 228 347 228 347 264 335 c 1,24,-1
 264 418 l 2,25,26
 264 469 264 469 229 469 c 0,27,28
 212 469 212 469 203.5 455.5 c 128,-1,29
 195 442 195 442 195 421 c 2,30,-1
 195 382 l 1,31,-1
 25 382 l 1,32,-1
 25 407 l 2,33,34
 25 502 25 502 76 556 c 128,-1,35
 127 610 127 610 230 610 c 0,36,37
 440 610 440 610 440 408 c 2,38,-1
 440 0 l 1,39,40
 398 -23 398 -23 377.5 -47 c 128,-1,41
 357 -71 357 -71 357 -94 c 0,42,43
 357 -102 357 -102 361.5 -106.5 c 128,-1,44
 366 -111 366 -111 373 -111 c 0,45,46
 385 -111 385 -111 390 -103 c 128,-1,47
 395 -95 395 -95 395 -71 c 1,48,-1
 481 -71 l 1,0,1
255.5 145 m 128,-1,50
 264 163 264 163 264 198 c 2,51,-1
 264 260 l 1,52,53
 248 270 248 270 228 270 c 0,54,55
 189 270 189 270 189 217 c 2,56,-1
 189 175 l 2,57,58
 189 149 189 149 197.5 138 c 128,-1,59
 206 127 206 127 225 127 c 0,60,49
 247 127 247 127 255.5 145 c 128,-1,50
EndSplineSet
Substitution2: "'ss01' Style Set 1 in Latin lookup 21 subtable" aogonek.ss01
Substitution2: "'salt' Stylistic Alternatives in Latin lookup 20 subtable" aogonek.ss01
Substitution2: "'smcp' Lowercase to Small Capitals in Latin lookup 17 subtable" aogonek.sc
AlternateSubs2: "'aalt' Access All Alternates in Latin lookup 1 subtable" aogonek.sc aogonek.ss01
EndChar

StartChar: ccedilla
Encoding: 231 231 313
Width: 445
GlyphClass: 2
Flags: W
AnchorPoint: "Anchor-18" 226 595 basechar 0
AnchorPoint: "Anchor-16" 229 298 basechar 0
AnchorPoint: "Anchor-15" 223 -185 basechar 0
LayerCount: 2
Fore
SplineSet
430 344 m 1,0,-1
 265 344 l 1,1,-1
 265 415 l 2,2,3
 265 442 265 442 257 455.5 c 128,-1,4
 249 469 249 469 231 469 c 0,5,6
 195 469 195 469 195 412 c 2,7,-1
 195 186 l 2,8,9
 195 126 195 126 231 126 c 0,10,11
 265 126 265 126 265 183 c 2,12,-1
 265 259 l 1,13,-1
 430 259 l 1,14,-1
 430 218 l 2,15,16
 430 2 430 2 253 -13 c 1,17,-1
 246 -34 l 1,18,19
 258 -32 258 -32 263 -32 c 0,20,21
 291 -32 291 -32 309 -49.5 c 128,-1,22
 327 -67 327 -67 327 -98 c 0,23,24
 327 -137 327 -137 300.5 -161.5 c 128,-1,25
 274 -186 274 -186 222 -186 c 0,26,27
 116 -186 116 -186 116 -93 c 1,28,-1
 193 -93 l 1,29,30
 194 -110 194 -110 200 -116 c 128,-1,31
 206 -122 206 -122 217 -122 c 0,32,33
 237 -122 237 -122 237 -97 c 0,34,35
 237 -83 237 -83 231.5 -76.5 c 128,-1,36
 226 -70 226 -70 217 -70 c 0,37,38
 213 -70 213 -70 207 -72 c 1,39,-1
 169 -50 l 1,40,-1
 181 -11 l 1,41,42
 20 16 20 16 20 228 c 2,43,-1
 20 371 l 2,44,45
 20 489 20 489 72.5 549.5 c 128,-1,46
 125 610 125 610 230 610 c 0,47,48
 323 610 323 610 376.5 553.5 c 128,-1,49
 430 497 430 497 430 382 c 2,50,-1
 430 344 l 1,0,-1
EndSplineSet
Substitution2: "'smcp' Lowercase to Small Capitals in Latin lookup 17 subtable" ccedilla.sc
Substitution2: "'aalt' Access All Alternates in Latin lookup 0 subtable" ccedilla.sc
EndChar

StartChar: dcroat
Encoding: 273 273 317
Width: 473
GlyphClass: 2
Flags: W
AnchorPoint: "Anchor-19" 465 766 basechar 0
AnchorPoint: "Anchor-18" 233 766 basechar 0
AnchorPoint: "Anchor-16" 303 688 basechar 0
AnchorPoint: "Anchor-15" 233 0 basechar 0
LayerCount: 2
Fore
SplineSet
469 730 m 1,0,-1
 469 641 l 1,1,-1
 445 641 l 1,2,-1
 445 0 l 1,3,-1
 270 0 l 1,4,-1
 270 24 l 1,5,-1
 274 62 l 1,6,-1
 271 62 l 1,7,8
 256 25 256 25 225.5 5 c 128,-1,9
 195 -15 195 -15 157 -15 c 0,10,11
 83 -15 83 -15 51.5 43 c 128,-1,12
 20 101 20 101 20 233 c 2,13,-1
 20 369 l 2,14,15
 20 496 20 496 52 553 c 128,-1,16
 84 610 84 610 158 610 c 0,17,18
 195 610 195 610 225 590.5 c 128,-1,19
 255 571 255 571 271 534 c 1,20,-1
 273 534 l 1,21,-1
 269 576 l 1,22,-1
 269 641 l 1,23,-1
 135 641 l 1,24,-1
 135 730 l 1,25,-1
 269 730 l 1,26,-1
 269 766 l 1,27,-1
 445 766 l 1,28,-1
 445 730 l 1,29,-1
 469 730 l 1,0,-1
260.5 144.5 m 128,-1,31
 269 162 269 162 269 192 c 2,32,-1
 269 400 l 2,33,34
 269 432 269 432 261 450.5 c 128,-1,35
 253 469 253 469 232 469 c 0,36,37
 210 469 210 469 202.5 450 c 128,-1,38
 195 431 195 431 195 397 c 2,39,-1
 195 195 l 2,40,41
 195 160 195 160 202 143.5 c 128,-1,42
 209 127 209 127 231 127 c 0,43,30
 252 127 252 127 260.5 144.5 c 128,-1,31
EndSplineSet
Substitution2: "'smcp' Lowercase to Small Capitals in Latin lookup 17 subtable" dcroat.sc
Substitution2: "'aalt' Access All Alternates in Latin lookup 0 subtable" dcroat.sc
EndChar

StartChar: eogonek
Encoding: 281 281 335
Width: 448
GlyphClass: 2
Flags: W
AnchorPoint: "Anchor-18" 224 595 basechar 0
AnchorPoint: "Anchor-17" 329 8 basechar 0
AnchorPoint: "Anchor-15" 224 0 basechar 0
LayerCount: 2
Fore
SplineSet
429 252 m 1,0,-1
 195 252 l 1,1,-1
 195 187 l 2,2,3
 195 155 195 155 203 138 c 128,-1,4
 211 121 211 121 230 121 c 256,5,6
 249 121 249 121 257 134.5 c 128,-1,7
 265 148 265 148 265 177 c 2,8,-1
 265 209 l 1,9,-1
 428 209 l 1,10,-1
 428 178 l 2,11,12
 427 111 427 111 397.5 65 c 128,-1,13
 368 19 368 19 314 -1 c 1,14,15
 246 -42 246 -42 246 -86 c 0,16,17
 246 -94 246 -94 250.5 -98.5 c 128,-1,18
 255 -103 255 -103 262 -103 c 0,19,20
 274 -103 274 -103 279 -95 c 128,-1,21
 284 -87 284 -87 284 -63 c 1,22,-1
 370 -63 l 1,23,24
 372 -123 372 -123 344 -151.5 c 128,-1,25
 316 -180 316 -180 250 -180 c 0,26,27
 200 -180 200 -180 172 -160 c 128,-1,28
 144 -140 144 -140 144 -102 c 0,29,30
 144 -77 144 -77 158.5 -54 c 128,-1,31
 173 -31 173 -31 200 -14 c 1,32,33
 111 -6 111 -6 65.5 57 c 128,-1,34
 20 120 20 120 20 227 c 2,35,-1
 20 371 l 2,36,37
 20 485 20 485 73 547.5 c 128,-1,38
 126 610 126 610 228 610 c 0,39,40
 325 610 325 610 377 554 c 128,-1,41
 429 498 429 498 429 392 c 2,42,-1
 429 252 l 1,0,-1
203 460 m 128,-1,44
 195 444 195 444 195 411 c 2,45,-1
 195 350 l 1,46,-1
 265 350 l 1,47,-1
 265 410 l 2,48,49
 266 444 266 444 257.5 460 c 128,-1,50
 249 476 249 476 230 476 c 256,51,43
 211 476 211 476 203 460 c 128,-1,44
EndSplineSet
Substitution2: "'ss03' Style Set 3 in Latin lookup 23 subtable" eogonek.ss03
Substitution2: "'smcp' Lowercase to Small Capitals in Latin lookup 17 subtable" eogonek.sc
AlternateSubs2: "'aalt' Access All Alternates in Latin lookup 1 subtable" eogonek.sc eogonek.ss03
EndChar

StartChar: uni0259
Encoding: 601 601 337
Width: 448
GlyphClass: 2
Flags: W
AnchorPoint: "Anchor-18" 224 595 basechar 0
AnchorPoint: "Anchor-17" 119 587 basechar 0
AnchorPoint: "Anchor-15" 224 0 basechar 0
LayerCount: 2
Fore
SplineSet
376 546.5 m 128,-1,1
 428 483 428 483 428 368 c 2,2,-1
 428 224 l 2,3,4
 428 110 428 110 375 47.5 c 128,-1,5
 322 -15 322 -15 220 -15 c 0,6,7
 123 -15 123 -15 71 41 c 128,-1,8
 19 97 19 97 19 203 c 2,9,-1
 19 343 l 1,10,-1
 253 343 l 1,11,-1
 253 408 l 2,12,13
 253 440 253 440 245 457 c 128,-1,14
 237 474 237 474 218 474 c 256,15,16
 199 474 199 474 191 460.5 c 128,-1,17
 183 447 183 447 183 418 c 2,18,-1
 183 386 l 1,19,-1
 20 386 l 1,20,-1
 20 417 l 2,21,22
 22 509 22 509 75 559.5 c 128,-1,23
 128 610 128 610 222 610 c 0,24,0
 324 610 324 610 376 546.5 c 128,-1,1
245 135 m 128,-1,26
 253 151 253 151 253 184 c 2,27,-1
 253 245 l 1,28,-1
 183 245 l 1,29,-1
 183 185 l 2,30,31
 182 151 182 151 190.5 135 c 128,-1,32
 199 119 199 119 218 119 c 256,33,25
 237 119 237 119 245 135 c 128,-1,26
EndSplineSet
EndChar

StartChar: hbar
Encoding: 295 295 344
Width: 490
GlyphClass: 2
Flags: W
AnchorPoint: "Anchor-18" 124 743 basechar 0
AnchorPoint: "Anchor-16" 172 686 basechar 0
AnchorPoint: "Anchor-15" 247 0 basechar 0
LayerCount: 2
Fore
SplineSet
462 442 m 2,1,-1
 462 0 l 1,2,-1
 286 0 l 1,3,-1
 286 417 l 2,4,5
 286 441 286 441 277 453.5 c 128,-1,6
 268 466 268 466 252 466 c 0,7,8
 233 466 233 466 223 449 c 128,-1,9
 213 432 213 432 213 405 c 2,10,-1
 213 0 l 1,11,-1
 38 0 l 1,12,-1
 38 639 l 1,13,-1
 4 639 l 1,14,-1
 4 728 l 1,15,-1
 38 728 l 1,16,-1
 38 766 l 1,17,-1
 213 766 l 1,18,-1
 213 728 l 1,19,-1
 339 728 l 1,20,-1
 339 639 l 1,21,-1
 213 639 l 1,22,-1
 213 571 l 1,23,-1
 210 534 l 1,24,-1
 212 534 l 1,25,26
 229 572 229 572 259 591 c 128,-1,27
 289 610 289 610 327 610 c 0,28,0
 462 610 462 610 462 442 c 2,1,-1
EndSplineSet
Substitution2: "'smcp' Lowercase to Small Capitals in Latin lookup 17 subtable" hbar.sc
Substitution2: "'aalt' Access All Alternates in Latin lookup 0 subtable" hbar.sc
EndChar

StartChar: iogonek
Encoding: 303 303 359
Width: 233
GlyphClass: 2
Flags: W
AnchorPoint: "Anchor-18" 116 595 basechar 0
AnchorPoint: "Anchor-17" 169 0 basechar 0
AnchorPoint: "Anchor-15" 116 0 basechar 0
LayerCount: 2
Fore
SplineSet
43 659 m 128,-1,1
 20 679 20 679 20 724 c 0,2,3
 20 770 20 770 43 790.5 c 128,-1,4
 66 811 66 811 117 811 c 256,5,6
 168 811 168 811 191 790.5 c 128,-1,7
 214 770 214 770 214 724 c 0,8,9
 214 679 214 679 191 659 c 128,-1,10
 168 639 168 639 117 639 c 256,11,0
 66 639 66 639 43 659 c 128,-1,1
210 -71 m 1,12,13
 212 -131 212 -131 183.5 -159.5 c 128,-1,14
 155 -188 155 -188 89 -188 c 0,15,16
 40 -188 40 -188 12 -168 c 128,-1,17
 -16 -148 -16 -148 -16 -110 c 0,18,19
 -16 -76 -16 -76 11 -46 c 128,-1,20
 38 -16 38 -16 88 0 c 1,21,-1
 28 0 l 1,22,-1
 28 595 l 1,23,-1
 204 595 l 1,24,-1
 204 0 l 1,25,26
 137 -14 137 -14 111.5 -36.5 c 128,-1,27
 86 -59 86 -59 86 -95 c 0,28,29
 86 -102 86 -102 90.5 -106.5 c 128,-1,30
 95 -111 95 -111 102 -111 c 0,31,32
 114 -111 114 -111 119 -103 c 128,-1,33
 124 -95 124 -95 124 -71 c 1,34,-1
 210 -71 l 1,12,13
EndSplineSet
Substitution2: "'ss03' Style Set 3 in Latin lookup 23 subtable" iogonek.ss03
Substitution2: "'smcp' Lowercase to Small Capitals in Latin lookup 17 subtable" iogonek.sc
AlternateSubs2: "'aalt' Access All Alternates in Latin lookup 1 subtable" iogonek.sc iogonek.ss03
EndChar

StartChar: kgreenlandic
Encoding: 312 312 363
Width: 484
GlyphClass: 2
Flags: W
AnchorPoint: "Anchor-18" 243 766 basechar 0
AnchorPoint: "Anchor-15" 243 0 basechar 0
LayerCount: 2
Fore
SplineSet
205 0 m 1,0,-1
 28 0 l 1,1,-1
 28 595 l 1,2,-1
 205 595 l 1,3,-1
 205 376 l 1,4,-1
 226 376 l 1,5,-1
 281 595 l 1,6,-1
 471 595 l 1,7,-1
 379 302 l 1,8,-1
 486 0 l 1,9,-1
 290 0 l 1,10,-1
 226 234 l 1,11,-1
 205 234 l 1,12,-1
 205 0 l 1,0,-1
EndSplineSet
EndChar

StartChar: ldot
Encoding: 320 320 367
Width: 335
GlyphClass: 2
Flags: W
AnchorPoint: "Anchor-19" 222 766 basechar 0
AnchorPoint: "Anchor-18" 116 743 basechar 0
AnchorPoint: "Anchor-16" 116 383 basechar 0
AnchorPoint: "Anchor-15" 116 0 basechar 0
LayerCount: 2
Fore
SplineSet
204 0 m 1,0,-1
 28 0 l 1,1,-1
 28 766 l 1,2,-1
 204 766 l 1,3,-1
 204 0 l 1,0,-1
229 394 m 0,5,6
 229 442 229 442 285 442 c 0,7,8
 342 442 342 442 342 394 c 0,9,10
 342 345 342 345 285 345 c 0,11,4
 229 345 229 345 229 394 c 0,5,6
EndSplineSet
Ligature2: "Ligature Substitution lookup 26 subtable" l periodcentered
Substitution2: "'ss03' Style Set 3 in Latin lookup 23 subtable" ldot.ss03
Substitution2: "'smcp' Lowercase to Small Capitals in Latin lookup 17 subtable" ldot.sc
AlternateSubs2: "'aalt' Access All Alternates in Latin lookup 1 subtable" ldot.sc ldot.ss03
EndChar

StartChar: lslash
Encoding: 322 322 371
Width: 310
GlyphClass: 2
Flags: W
AnchorPoint: "Anchor-19" 259 766 basechar 0
AnchorPoint: "Anchor-18" 154 743 basechar 0
AnchorPoint: "Anchor-16" 154 383 basechar 0
AnchorPoint: "Anchor-15" 154 0 basechar 0
LayerCount: 2
Fore
SplineSet
275 482 m 1,0,-1
 309 417 l 1,1,-1
 241 385 l 1,2,-1
 241 0 l 1,3,-1
 66 0 l 1,4,-1
 66 303 l 1,5,-1
 34 288 l 1,6,-1
 0 353 l 1,7,-1
 66 384 l 1,8,-1
 66 766 l 1,9,-1
 241 766 l 1,10,-1
 241 466 l 1,11,-1
 275 482 l 1,0,-1
EndSplineSet
Substitution2: "'ss03' Style Set 3 in Latin lookup 23 subtable" lslash.ss03
Substitution2: "'smcp' Lowercase to Small Capitals in Latin lookup 17 subtable" lslash.sc
AlternateSubs2: "'aalt' Access All Alternates in Latin lookup 1 subtable" lslash.sc lslash.ss03
EndChar

StartChar: eng
Encoding: 331 331 378
Width: 480
GlyphClass: 2
Flags: W
AnchorPoint: "Anchor-18" 238 595 basechar 0
AnchorPoint: "Anchor-15" 238 0 basechar 0
LayerCount: 2
Fore
SplineSet
452 441 m 2,1,-1
 452 0 l 2,2,3
 452 -95 452 -95 380 -136 c 128,-1,4
 308 -177 308 -177 186 -177 c 1,5,-1
 186 -69 l 1,6,7
 231 -69 231 -69 254 -51.5 c 128,-1,8
 277 -34 277 -34 277 0 c 2,9,-1
 277 417 l 2,10,11
 277 441 277 441 268 453.5 c 128,-1,12
 259 466 259 466 243 466 c 0,13,14
 224 466 224 466 214 449 c 128,-1,15
 204 432 204 432 204 405 c 2,16,-1
 204 0 l 1,17,-1
 28 0 l 1,18,-1
 28 595 l 1,19,-1
 203 595 l 1,20,-1
 203 572 l 1,21,-1
 200 533 l 1,22,-1
 202 533 l 1,23,24
 220 571 220 571 249.5 590.5 c 128,-1,25
 279 610 279 610 318 610 c 0,26,0
 452 610 452 610 452 441 c 2,1,-1
EndSplineSet
EndChar

StartChar: uni0272
Encoding: 626 626 379
Width: 480
GlyphClass: 2
Flags: W
AnchorPoint: "Anchor-18" 238 595 basechar 0
AnchorPoint: "Anchor-15" 238 0 basechar 0
LayerCount: 2
Fore
SplineSet
452 441 m 2,1,-1
 452 0 l 1,2,-1
 277 0 l 1,3,-1
 277 417 l 2,4,5
 277 441 277 441 268 453.5 c 128,-1,6
 259 466 259 466 243 466 c 0,7,8
 224 466 224 466 214 449 c 128,-1,9
 204 432 204 432 204 405 c 2,10,-1
 204 0 l 2,11,12
 204 -95 204 -95 131.5 -136 c 128,-1,13
 59 -177 59 -177 -62 -177 c 1,14,-1
 -62 -69 l 1,15,16
 28 -69 28 -69 28 0 c 2,17,-1
 28 595 l 1,18,-1
 203 595 l 1,19,-1
 203 572 l 1,20,-1
 200 533 l 1,21,-1
 202 533 l 1,22,23
 220 571 220 571 249.5 590.5 c 128,-1,24
 279 610 279 610 318 610 c 0,25,0
 452 610 452 610 452 441 c 2,1,-1
EndSplineSet
EndChar

StartChar: ohorn
Encoding: 417 417 395
Width: 465
GlyphClass: 2
Flags: W
AnchorPoint: "Anchor-19" 412 617 basechar 0
AnchorPoint: "Anchor-18" 228 595 basechar 0
AnchorPoint: "Anchor-17" 351 13 basechar 0
AnchorPoint: "Anchor-16" 232 298 basechar 0
AnchorPoint: "Anchor-15" 228 0 basechar 0
LayerCount: 2
Fore
SplineSet
445 371 m 2,1,-1
 445 226 l 2,2,3
 445 107 445 107 391.5 46 c 128,-1,4
 338 -15 338 -15 232 -15 c 256,5,6
 126 -15 126 -15 73 46.5 c 128,-1,7
 20 108 20 108 20 226 c 2,8,-1
 20 371 l 2,9,10
 20 489 20 489 73.5 549.5 c 128,-1,11
 127 610 127 610 232 610 c 2,12,-1
 233 610 l 1,13,-1
 233 610 l 1,14,15
 287 610 287 610 287 670 c 0,16,17
 287 692 287 692 282 712 c 1,18,-1
 381 717 l 1,19,20
 387 692 387 692 387 669 c 0,21,22
 387 613 387 613 351 582 c 1,23,0
 445 528 445 528 445 371 c 2,1,-1
269 410 m 2,24,25
 269 469 269 469 232 469 c 256,26,27
 195 469 195 469 195 410 c 2,28,-1
 195 186 l 2,29,30
 195 126 195 126 232 126 c 256,31,32
 269 126 269 126 269 186 c 2,33,-1
 269 410 l 2,24,25
EndSplineSet
EndChar

StartChar: uni1EDB
Encoding: 7899 7899 396
Width: 465
GlyphClass: 2
Flags: W
AnchorPoint: "Anchor-19" 412 617 basechar 0
AnchorPoint: "Anchor-18" 228 822 basechar 0
AnchorPoint: "Anchor-17" 351 13 basechar 0
AnchorPoint: "Anchor-16" 232 298 basechar 0
AnchorPoint: "Anchor-15" 228 0 basechar 0
LayerCount: 2
Fore
SplineSet
445 371 m 2,1,-1
 445 226 l 2,2,3
 445 107 445 107 391.5 46 c 128,-1,4
 338 -15 338 -15 232 -15 c 256,5,6
 126 -15 126 -15 73 46.5 c 128,-1,7
 20 108 20 108 20 226 c 2,8,-1
 20 371 l 2,9,10
 20 489 20 489 73.5 549.5 c 128,-1,11
 127 610 127 610 232 610 c 2,12,-1
 233 610 l 1,13,-1
 233 610 l 1,14,15
 287 610 287 610 287 670 c 0,16,17
 287 683 287 683 284 701 c 1,18,-1
 252 657 l 1,19,-1
 151 657 l 1,20,-1
 202 800 l 1,21,-1
 356 800 l 1,22,-1
 292 713 l 1,23,-1
 381 717 l 1,24,25
 387 692 387 692 387 669 c 0,26,27
 387 613 387 613 351 582 c 1,28,0
 445 528 445 528 445 371 c 2,1,-1
269 410 m 2,29,30
 269 469 269 469 232 469 c 256,31,32
 195 469 195 469 195 410 c 2,33,-1
 195 186 l 2,34,35
 195 126 195 126 232 126 c 256,36,37
 269 126 269 126 269 186 c 2,38,-1
 269 410 l 2,29,30
EndSplineSet
EndChar

StartChar: uni1EDD
Encoding: 7901 7901 398
Width: 465
GlyphClass: 2
Flags: W
AnchorPoint: "Anchor-19" 412 617 basechar 0
AnchorPoint: "Anchor-18" 228 822 basechar 0
AnchorPoint: "Anchor-17" 351 13 basechar 0
AnchorPoint: "Anchor-16" 232 298 basechar 0
AnchorPoint: "Anchor-15" 228 0 basechar 0
LayerCount: 2
Fore
SplineSet
445 371 m 2,1,-1
 445 226 l 2,2,3
 445 107 445 107 391.5 46 c 128,-1,4
 338 -15 338 -15 232 -15 c 256,5,6
 126 -15 126 -15 73 46.5 c 128,-1,7
 20 108 20 108 20 226 c 2,8,-1
 20 371 l 2,9,10
 20 489 20 489 73.5 549.5 c 128,-1,11
 127 610 127 610 232 610 c 2,12,-1
 233 610 l 1,13,-1
 233 610 l 1,14,15
 280 610 280 610 287 657 c 1,16,-1
 204 657 l 1,17,-1
 100 800 l 1,18,-1
 253 800 l 1,19,-1
 285 712 l 1,20,-1
 381 717 l 1,21,22
 387 692 387 692 387 669 c 0,23,24
 387 613 387 613 351 582 c 1,25,0
 445 528 445 528 445 371 c 2,1,-1
269 410 m 2,26,27
 269 469 269 469 232 469 c 256,28,29
 195 469 195 469 195 410 c 2,30,-1
 195 186 l 2,31,32
 195 126 195 126 232 126 c 256,33,34
 269 126 269 126 269 186 c 2,35,-1
 269 410 l 2,26,27
EndSplineSet
EndChar

StartChar: uni1EDF
Encoding: 7903 7903 399
Width: 465
GlyphClass: 2
Flags: W
AnchorPoint: "Anchor-19" 412 617 basechar 0
AnchorPoint: "Anchor-18" 228 825 basechar 0
AnchorPoint: "Anchor-17" 351 13 basechar 0
AnchorPoint: "Anchor-16" 232 298 basechar 0
AnchorPoint: "Anchor-15" 228 0 basechar 0
LayerCount: 2
Fore
SplineSet
445 371 m 2,1,-1
 445 226 l 2,2,3
 445 107 445 107 391.5 46 c 128,-1,4
 338 -15 338 -15 232 -15 c 256,5,6
 126 -15 126 -15 73 46.5 c 128,-1,7
 20 108 20 108 20 226 c 2,8,-1
 20 371 l 2,9,10
 20 489 20 489 73.5 549.5 c 128,-1,11
 127 610 127 610 232 610 c 2,12,-1
 233 610 l 1,13,-1
 233 610 l 1,14,15
 259 610 259 610 273.5 625 c 128,-1,16
 288 640 288 640 287 674 c 1,17,18
 286 671 286 671 273 651 c 1,19,-1
 197 651 l 1,20,21
 235 711 235 711 235 732 c 0,22,23
 235 743 235 743 224 743 c 0,24,25
 217 743 217 743 213.5 738 c 128,-1,26
 210 733 210 733 211 719 c 1,27,-1
 142 719 l 1,28,29
 140 768 140 768 164 791 c 128,-1,30
 188 814 188 814 232 814 c 0,31,32
 272 814 272 814 293 795 c 128,-1,33
 314 776 314 776 314 747 c 0,34,35
 314 734 314 734 307 713 c 1,36,-1
 381 717 l 1,37,38
 387 692 387 692 387 669 c 0,39,40
 387 613 387 613 351 582 c 1,41,0
 445 528 445 528 445 371 c 2,1,-1
269 410 m 2,42,43
 269 469 269 469 232 469 c 256,44,45
 195 469 195 469 195 410 c 2,46,-1
 195 186 l 2,47,48
 195 126 195 126 232 126 c 256,49,50
 269 126 269 126 269 186 c 2,51,-1
 269 410 l 2,42,43
EndSplineSet
EndChar

StartChar: uni1EE1
Encoding: 7905 7905 400
Width: 465
GlyphClass: 2
Flags: W
AnchorPoint: "Anchor-19" 412 617 basechar 0
AnchorPoint: "Anchor-18" 229 794 basechar 0
AnchorPoint: "Anchor-17" 351 13 basechar 0
AnchorPoint: "Anchor-16" 232 298 basechar 0
AnchorPoint: "Anchor-15" 228 0 basechar 0
LayerCount: 2
Fore
SplineSet
445 371 m 2,1,-1
 445 226 l 2,2,3
 445 107 445 107 391.5 46 c 128,-1,4
 338 -15 338 -15 232 -15 c 256,5,6
 126 -15 126 -15 73 46.5 c 128,-1,7
 20 108 20 108 20 226 c 2,8,-1
 20 371 l 2,9,10
 20 489 20 489 73.5 549.5 c 128,-1,11
 127 610 127 610 232 610 c 2,12,-1
 233 610 l 1,13,-1
 233 610 l 1,14,15
 276 610 276 610 285 648 c 1,16,17
 263 649 263 649 247.5 653.5 c 128,-1,18
 232 658 232 658 210 666 c 0,19,20
 194 674 194 674 185 674 c 0,21,22
 166 674 166 674 169 645 c 1,23,-1
 85 656 l 1,24,25
 81 715 81 715 102.5 744.5 c 128,-1,26
 124 774 124 774 167 774 c 0,27,28
 206 774 206 774 246 756 c 0,29,30
 268 748 268 748 273 748 c 0,31,32
 290 748 290 748 289 776 c 1,33,-1
 372 765 l 1,34,35
 373 740 373 740 370 716 c 1,36,-1
 381 717 l 1,37,38
 387 692 387 692 387 669 c 0,39,40
 387 613 387 613 351 582 c 1,41,0
 445 528 445 528 445 371 c 2,1,-1
269 410 m 2,42,43
 269 469 269 469 232 469 c 256,44,45
 195 469 195 469 195 410 c 2,46,-1
 195 186 l 2,47,48
 195 126 195 126 232 126 c 256,49,50
 269 126 269 126 269 186 c 2,51,-1
 269 410 l 2,42,43
EndSplineSet
EndChar

StartChar: uni01EB
Encoding: 491 491 403
Width: 465
GlyphClass: 2
Flags: W
AnchorPoint: "Anchor-19" 232 610 basechar 0
AnchorPoint: "Anchor-18" 232 595 basechar 0
AnchorPoint: "Anchor-17" 351 13 basechar 0
AnchorPoint: "Anchor-16" 232 298 basechar 0
AnchorPoint: "Anchor-15" 232 0 basechar 0
LayerCount: 2
Fore
SplineSet
445 226 m 2,0,1
 445 67 445 67 351 13 c 1,2,-1
 352 13 l 1,3,4
 310 -10 310 -10 289.5 -34 c 128,-1,5
 269 -58 269 -58 269 -81 c 0,6,7
 269 -89 269 -89 273.5 -93.5 c 128,-1,8
 278 -98 278 -98 285 -98 c 0,9,10
 297 -98 297 -98 302 -90 c 128,-1,11
 307 -82 307 -82 307 -58 c 1,12,-1
 393 -58 l 1,13,14
 395 -118 395 -118 367 -146.5 c 128,-1,15
 339 -175 339 -175 273 -175 c 0,16,17
 223 -175 223 -175 195 -155 c 128,-1,18
 167 -135 167 -135 167 -97 c 0,19,20
 167 -74 167 -74 179 -52.5 c 128,-1,21
 191 -31 191 -31 215 -15 c 1,22,23
 118 -10 118 -10 69 51.5 c 128,-1,24
 20 113 20 113 20 226 c 2,25,-1
 20 371 l 2,26,27
 20 489 20 489 73.5 549.5 c 128,-1,28
 127 610 127 610 232 610 c 0,29,30
 338 610 338 610 391.5 549.5 c 128,-1,31
 445 489 445 489 445 371 c 2,32,-1
 445 226 l 2,0,1
195 186 m 2,33,34
 195 126 195 126 232 126 c 256,35,36
 269 126 269 126 269 186 c 2,37,-1
 269 410 l 2,38,39
 269 469 269 469 232 469 c 256,40,41
 195 469 195 469 195 410 c 2,42,-1
 195 186 l 2,33,34
EndSplineSet
EndChar

StartChar: oslash
Encoding: 248 248 404
Width: 465
GlyphClass: 2
Flags: W
AnchorPoint: "Anchor-19" 232 610 basechar 0
AnchorPoint: "Anchor-18" 228 595 basechar 0
AnchorPoint: "Anchor-17" 351 13 basechar 0
AnchorPoint: "Anchor-16" 232 298 basechar 0
AnchorPoint: "Anchor-15" 232 0 basechar 0
LayerCount: 2
Fore
SplineSet
363 575 m 1,0,1
 445 518 445 518 445 371 c 2,2,-1
 445 226 l 2,3,4
 445 107 445 107 391.5 46 c 128,-1,5
 338 -15 338 -15 232 -15 c 0,6,7
 191 -15 191 -15 153 -4 c 1,8,-1
 130 -69 l 1,9,-1
 77 -50 l 1,10,-1
 102 20 l 1,11,12
 20 78 20 78 20 226 c 2,13,-1
 20 371 l 2,14,15
 20 489 20 489 73.5 549.5 c 128,-1,16
 127 610 127 610 232 610 c 0,17,18
 274 610 274 610 312 599 c 1,19,-1
 335 663 l 1,20,-1
 388 644 l 1,21,-1
 363 575 l 1,0,1
195 276 m 1,22,-1
 260 454 l 1,23,24
 250 469 250 469 232 469 c 0,25,26
 195 469 195 469 195 410 c 2,27,-1
 195 276 l 1,22,-1
269 186 m 2,29,-1
 269 315 l 1,30,-1
 205 140 l 1,31,32
 216 126 216 126 232 126 c 0,33,28
 269 126 269 126 269 186 c 2,29,-1
EndSplineSet
Substitution2: "'smcp' Lowercase to Small Capitals in Latin lookup 17 subtable" oslash.sc
Substitution2: "'aalt' Access All Alternates in Latin lookup 0 subtable" oslash.sc
EndChar

StartChar: scedilla
Encoding: 351 351 415
Width: 449
GlyphClass: 2
Flags: W
AnchorPoint: "Anchor-18" 225 595 basechar 0
AnchorPoint: "Anchor-15" 223 -185 basechar 0
LayerCount: 2
Fore
SplineSet
393.5 303 m 128,-1,1
 434 262 434 262 434 188 c 2,2,-1
 434 149 l 2,3,4
 434 75 434 75 388 33.5 c 128,-1,5
 342 -8 342 -8 253 -13 c 1,6,-1
 246 -34 l 1,7,8
 258 -32 258 -32 263 -32 c 0,9,10
 291 -32 291 -32 309 -49.5 c 128,-1,11
 327 -67 327 -67 327 -98 c 0,12,13
 327 -137 327 -137 300.5 -161.5 c 128,-1,14
 274 -186 274 -186 222 -186 c 0,15,16
 116 -186 116 -186 116 -93 c 1,17,-1
 193 -93 l 1,18,19
 193 -122 193 -122 216 -122 c 0,20,21
 236 -122 236 -122 236 -97 c 0,22,23
 236 -83 236 -83 230.5 -76.5 c 128,-1,24
 225 -70 225 -70 216 -70 c 0,25,26
 213 -70 213 -70 207 -72 c 1,27,-1
 169 -50 l 1,28,-1
 180 -12 l 1,29,30
 98 -2 98 -2 56.5 45 c 128,-1,31
 15 92 15 92 15 174 c 2,32,-1
 15 208 l 1,33,-1
 185 208 l 1,34,-1
 185 173 l 2,35,36
 185 116 185 116 228 116 c 0,37,38
 243 116 243 116 251.5 125.5 c 128,-1,39
 260 135 260 135 260 151 c 2,40,-1
 260 189 l 2,41,42
 260 210 260 210 247.5 221.5 c 128,-1,43
 235 233 235 233 198 244 c 0,44,45
 100 271 100 271 62 312.5 c 128,-1,46
 24 354 24 354 24 424 c 2,47,-1
 24 456 l 2,48,49
 24 610 24 610 219 610 c 0,50,51
 321 610 321 610 370 567 c 128,-1,52
 419 524 419 524 419 437 c 2,53,-1
 419 411 l 1,54,-1
 261 411 l 1,55,-1
 261 438 l 2,56,57
 261 480 261 480 228 480 c 0,58,59
 197 480 197 480 197 450 c 2,60,-1
 197 419 l 2,61,62
 197 400 197 400 210 389 c 128,-1,63
 223 378 223 378 261 368 c 0,64,0
 353 344 353 344 393.5 303 c 128,-1,1
EndSplineSet
Substitution2: "'smcp' Lowercase to Small Capitals in Latin lookup 17 subtable" scedilla.sc
Substitution2: "'locl' Localized Forms in Latin lookup 7 subtable" uni0219
AlternateSubs2: "'aalt' Access All Alternates in Latin lookup 1 subtable" uni0219 scedilla.sc
EndChar

StartChar: tbar
Encoding: 359 359 420
Width: 337
GlyphClass: 2
Flags: W
AnchorPoint: "Anchor-19" 250 889 basechar 0
AnchorPoint: "Anchor-18" 149 688 basechar 0
AnchorPoint: "Anchor-16" 154 298 basechar 0
AnchorPoint: "Anchor-15" 197 0 basechar 0
LayerCount: 2
Fore
SplineSet
331 149 m 1,1,-1
 331 1 l 1,2,3
 278 -15 278 -15 213 -15 c 0,4,5
 56 -15 56 -15 56 164 c 2,6,-1
 56 250 l 1,7,-1
 8 250 l 1,8,-1
 8 339 l 1,9,-1
 56 339 l 1,10,-1
 56 454 l 1,11,-1
 5 454 l 1,12,-1
 5 595 l 1,13,-1
 56 595 l 1,14,-1
 56 722 l 1,15,-1
 231 722 l 1,16,-1
 231 595 l 1,17,-1
 326 595 l 1,18,-1
 326 454 l 1,19,-1
 231 454 l 1,20,-1
 231 339 l 1,21,-1
 298 339 l 1,22,-1
 298 250 l 1,23,-1
 231 250 l 1,24,-1
 231 209 l 2,25,26
 231 175 231 175 242.5 159.5 c 128,-1,27
 254 144 254 144 280 144 c 0,28,0
 302 144 302 144 331 149 c 1,1,-1
EndSplineSet
Substitution2: "'smcp' Lowercase to Small Capitals in Latin lookup 17 subtable" tbar.sc
Substitution2: "'aalt' Access All Alternates in Latin lookup 0 subtable" tbar.sc
EndChar

StartChar: tcaron
Encoding: 357 357 421
Width: 337
GlyphClass: 2
Flags: W
AnchorPoint: "Anchor-19" 250 889 basechar 0
AnchorPoint: "Anchor-18" 149 688 basechar 0
AnchorPoint: "Anchor-16" 154 298 basechar 0
AnchorPoint: "Anchor-15" 197 0 basechar 0
LayerCount: 2
Fore
SplineSet
263 670 m 1,0,-1
 251 888 l 1,1,-1
 363 888 l 1,2,-1
 348 670 l 1,3,-1
 263 670 l 1,0,-1
231 209 m 2,4,5
 231 175 231 175 242.5 159.5 c 128,-1,6
 254 144 254 144 280 144 c 0,7,8
 302 144 302 144 331 149 c 1,9,-1
 331 1 l 1,10,11
 278 -15 278 -15 213 -15 c 0,12,13
 56 -15 56 -15 56 164 c 2,14,-1
 56 454 l 1,15,-1
 5 454 l 1,16,-1
 5 595 l 1,17,-1
 56 595 l 1,18,-1
 56 722 l 1,19,-1
 231 722 l 1,20,-1
 231 595 l 1,21,-1
 326 595 l 1,22,-1
 326 454 l 1,23,-1
 231 454 l 1,24,-1
 231 209 l 2,4,5
EndSplineSet
Substitution2: "'smcp' Lowercase to Small Capitals in Latin lookup 17 subtable" tcaron.sc
Substitution2: "'aalt' Access All Alternates in Latin lookup 0 subtable" tcaron.sc
EndChar

StartChar: uni0163
Encoding: 355 355 422
Width: 337
GlyphClass: 2
Flags: W
AnchorPoint: "Anchor-19" 250 889 basechar 0
AnchorPoint: "Anchor-18" 149 688 basechar 0
AnchorPoint: "Anchor-16" 154 298 basechar 0
AnchorPoint: "Anchor-15" 195 -185 basechar 0
LayerCount: 2
Fore
SplineSet
331 1 m 1,0,1
 283 -13 283 -13 225 -15 c 1,2,-1
 218 -34 l 1,3,4
 230 -32 230 -32 235 -32 c 0,5,6
 263 -32 263 -32 281 -49.5 c 128,-1,7
 299 -67 299 -67 299 -98 c 0,8,9
 299 -137 299 -137 272.5 -161.5 c 128,-1,10
 246 -186 246 -186 194 -186 c 0,11,12
 88 -186 88 -186 88 -93 c 1,13,-1
 165 -93 l 1,14,15
 166 -110 166 -110 172 -116 c 128,-1,16
 178 -122 178 -122 189 -122 c 0,17,18
 209 -122 209 -122 209 -97 c 0,19,20
 209 -83 209 -83 203.5 -76.5 c 128,-1,21
 198 -70 198 -70 189 -70 c 0,22,23
 185 -70 185 -70 179 -72 c 1,24,-1
 141 -50 l 1,25,-1
 154 -7 l 1,26,27
 56 23 56 23 56 164 c 2,28,-1
 56 454 l 1,29,-1
 5 454 l 1,30,-1
 5 595 l 1,31,-1
 56 595 l 1,32,-1
 56 722 l 1,33,-1
 231 722 l 1,34,-1
 231 595 l 1,35,-1
 326 595 l 1,36,-1
 326 454 l 1,37,-1
 231 454 l 1,38,-1
 231 209 l 2,39,40
 231 175 231 175 242.5 159.5 c 128,-1,41
 254 144 254 144 280 144 c 0,42,43
 302 144 302 144 331 149 c 1,44,-1
 331 1 l 1,0,1
EndSplineSet
Substitution2: "'locl' Localized Forms in Latin lookup 7 subtable" uni021B
Substitution2: "'aalt' Access All Alternates in Latin lookup 0 subtable" uni021B
EndChar

StartChar: uhorn
Encoding: 432 432 438
Width: 515
GlyphClass: 2
Flags: W
AnchorPoint: "Anchor-19" 541 602 basechar 0
AnchorPoint: "Anchor-18" 235 595 basechar 0
AnchorPoint: "Anchor-17" 452 0 basechar 0
AnchorPoint: "Anchor-15" 235 0 basechar 0
LayerCount: 2
Fore
SplineSet
510 702 m 1,0,1
 515 674 515 674 515 655 c 0,2,3
 515 578 515 578 452 550 c 1,4,-1
 452 0 l 1,5,-1
 277 0 l 1,6,-1
 277 23 l 1,7,-1
 280 62 l 1,8,-1
 278 62 l 1,9,10
 260 24 260 24 230.5 4.5 c 128,-1,11
 201 -15 201 -15 163 -15 c 0,12,13
 28 -15 28 -15 28 154 c 2,14,-1
 28 595 l 1,15,-1
 203 595 l 1,16,-1
 203 178 l 2,17,18
 203 154 203 154 212 141.5 c 128,-1,19
 221 129 221 129 237 129 c 0,20,21
 256 129 256 129 266 146 c 128,-1,22
 276 163 276 163 276 190 c 2,23,-1
 276 595 l 1,24,-1
 361 595 l 2,25,26
 415 595 415 595 415 655 c 0,27,28
 415 677 415 677 410 697 c 1,29,-1
 510 702 l 1,0,1
EndSplineSet
EndChar

StartChar: uogonek
Encoding: 371 371 446
Width: 480
GlyphClass: 2
Flags: W
AnchorPoint: "Anchor-19" 361 595 basechar 0
AnchorPoint: "Anchor-18" 240 595 basechar 0
AnchorPoint: "Anchor-17" 452 0 basechar 0
AnchorPoint: "Anchor-15" 238 0 basechar 0
LayerCount: 2
Fore
SplineSet
493 -71 m 1,0,1
 495 -131 495 -131 467 -159.5 c 128,-1,2
 439 -188 439 -188 373 -188 c 0,3,4
 323 -188 323 -188 295 -168 c 128,-1,5
 267 -148 267 -148 267 -110 c 0,6,7
 267 -75 267 -75 293.5 -45.5 c 128,-1,8
 320 -16 320 -16 370 0 c 1,9,-1
 277 0 l 1,10,-1
 277 23 l 1,11,-1
 280 62 l 1,12,-1
 278 62 l 1,13,14
 260 24 260 24 230.5 4.5 c 128,-1,15
 201 -15 201 -15 163 -15 c 0,16,17
 28 -15 28 -15 28 154 c 2,18,-1
 28 595 l 1,19,-1
 203 595 l 1,20,-1
 203 178 l 2,21,22
 203 154 203 154 212 141.5 c 128,-1,23
 221 129 221 129 237 129 c 0,24,25
 256 129 256 129 266 146 c 128,-1,26
 276 163 276 163 276 190 c 2,27,-1
 276 595 l 1,28,-1
 452 595 l 1,29,-1
 452 0 l 1,30,31
 410 -23 410 -23 389.5 -47 c 128,-1,32
 369 -71 369 -71 369 -94 c 0,33,34
 369 -102 369 -102 373.5 -106.5 c 128,-1,35
 378 -111 378 -111 385 -111 c 0,36,37
 397 -111 397 -111 402 -103 c 128,-1,38
 407 -95 407 -95 407 -71 c 1,39,-1
 493 -71 l 1,0,1
EndSplineSet
Substitution2: "'smcp' Lowercase to Small Capitals in Latin lookup 17 subtable" uogonek.sc
Substitution2: "'aalt' Access All Alternates in Latin lookup 0 subtable" uogonek.sc
EndChar

StartChar: f.calt
Encoding: 65571 -1 466
Width: 330
GlyphClass: 2
Flags: W
AnchorPoint: "Anchor-18" 161 766 basechar 0
AnchorPoint: "Anchor-15" 161 0 basechar 0
LayerCount: 2
Fore
SplineSet
242 648 m 128,-1,1
 230 635 230 635 229 595 c 1,2,-1
 331 595 l 1,3,-1
 331 454 l 1,4,-1
 229 454 l 1,5,-1
 229 0 l 1,6,-1
 53 0 l 1,7,-1
 53 454 l 1,8,-1
 2 454 l 1,9,-1
 2 595 l 1,10,-1
 54 595 l 1,11,12
 58 700 58 700 104 743 c 128,-1,13
 150 786 150 786 249 786 c 0,14,15
 281 786 281 786 337 777 c 1,16,-1
 330 658 l 1,17,18
 309 661 309 661 292 661 c 0,19,0
 254 661 254 661 242 648 c 128,-1,1
EndSplineSet
EndChar

StartChar: j.calt
Encoding: 65572 -1 467
Width: 234
GlyphClass: 2
Flags: W
AnchorPoint: "Anchor-18" 118 595 basechar 0
AnchorPoint: "Anchor-15" 118 -163 basechar 0
LayerCount: 2
Fore
SplineSet
44 659 m 128,-1,1
 21 679 21 679 21 725 c 0,2,3
 21 770 21 770 44 790.5 c 128,-1,4
 67 811 67 811 118 811 c 256,5,6
 169 811 169 811 192 790.5 c 128,-1,7
 215 770 215 770 215 725 c 0,8,9
 215 679 215 679 192 659 c 128,-1,10
 169 639 169 639 118 639 c 256,11,0
 67 639 67 639 44 659 c 128,-1,1
-93 -170 m 1,13,-1
 -87 -40 l 1,14,15
 -66 -44 -66 -44 -42 -44 c 0,16,17
 -4 -44 -4 -44 13 -28.5 c 128,-1,18
 30 -13 30 -13 30 31 c 2,19,-1
 30 595 l 1,20,-1
 205 595 l 1,21,-1
 205 43 l 2,22,23
 205 -68 205 -68 152 -123.5 c 128,-1,24
 99 -179 99 -179 -17 -179 c 0,25,12
 -49 -179 -49 -179 -93 -170 c 1,13,-1
EndSplineSet
EndChar

StartChar: uni0237.calt
Encoding: 65573 -1 468
Width: 234
GlyphClass: 2
Flags: W
AnchorPoint: "Anchor-18" 118 595 basechar 0
AnchorPoint: "Anchor-15" 118 -163 basechar 0
LayerCount: 2
Fore
SplineSet
-93 -170 m 1,1,-1
 -87 -40 l 1,2,3
 -66 -44 -66 -44 -42 -44 c 0,4,5
 -4 -44 -4 -44 13 -28.5 c 128,-1,6
 30 -13 30 -13 30 31 c 2,7,-1
 30 595 l 1,8,-1
 205 595 l 1,9,-1
 205 43 l 2,10,11
 205 -68 205 -68 152 -123.5 c 128,-1,12
 99 -179 99 -179 -17 -179 c 0,13,0
 -49 -179 -49 -179 -93 -170 c 1,1,-1
EndSplineSet
EndChar

StartChar: a.ss01
Encoding: 65574 -1 469
Width: 473
GlyphClass: 2
Flags: W
AnchorPoint: "Anchor-18" 232 595 basechar 0
AnchorPoint: "Anchor-17" 443 0 basechar 0
AnchorPoint: "Anchor-15" 232 0 basechar 0
LayerCount: 2
Fore
SplineSet
270 595 m 1,0,-1
 445 595 l 1,1,-1
 445 0 l 1,2,-1
 270 0 l 1,3,-1
 270 24 l 1,4,-1
 275 62 l 1,5,-1
 271 62 l 1,6,7
 254 25 254 25 223 5 c 128,-1,8
 192 -15 192 -15 155 -15 c 0,9,10
 82 -15 82 -15 51 41.5 c 128,-1,11
 20 98 20 98 20 226 c 2,12,-1
 20 363 l 2,13,14
 20 495 20 495 50.5 552.5 c 128,-1,15
 81 610 81 610 155 610 c 0,16,17
 192 610 192 610 223.5 590 c 128,-1,18
 255 570 255 570 271 534 c 1,19,-1
 275 534 l 1,20,-1
 270 571 l 1,21,-1
 270 595 l 1,0,-1
260.5 144 m 128,-1,23
 269 162 269 162 269 193 c 2,24,-1
 269 400 l 2,25,26
 269 433 269 433 260.5 451 c 128,-1,27
 252 469 252 469 232 469 c 0,28,29
 209 469 209 469 202 451 c 128,-1,30
 195 433 195 433 195 398 c 2,31,-1
 195 195 l 2,32,33
 195 160 195 160 202 143 c 128,-1,34
 209 126 209 126 231 126 c 0,35,22
 252 126 252 126 260.5 144 c 128,-1,23
EndSplineSet
EndChar

StartChar: aogonek.ss01
Encoding: 65594 -1 489
Width: 473
GlyphClass: 2
Flags: W
AnchorPoint: "Anchor-18" 232 595 basechar 0
AnchorPoint: "Anchor-17" 443 0 basechar 0
AnchorPoint: "Anchor-15" 232 0 basechar 0
LayerCount: 2
Fore
SplineSet
484 -71 m 1,0,1
 486 -131 486 -131 458 -159.5 c 128,-1,2
 430 -188 430 -188 364 -188 c 0,3,4
 314 -188 314 -188 286 -168 c 128,-1,5
 258 -148 258 -148 258 -110 c 0,6,7
 258 -75 258 -75 284.5 -45.5 c 128,-1,8
 311 -16 311 -16 361 0 c 1,9,-1
 270 0 l 1,10,-1
 270 24 l 1,11,-1
 275 62 l 1,12,-1
 271 62 l 1,13,14
 254 25 254 25 223 5 c 128,-1,15
 192 -15 192 -15 155 -15 c 0,16,17
 82 -15 82 -15 51 41.5 c 128,-1,18
 20 98 20 98 20 226 c 2,19,-1
 20 363 l 2,20,21
 20 495 20 495 50.5 552.5 c 128,-1,22
 81 610 81 610 155 610 c 0,23,24
 192 610 192 610 223.5 590 c 128,-1,25
 255 570 255 570 271 534 c 1,26,-1
 275 534 l 1,27,-1
 270 571 l 1,28,-1
 270 595 l 1,29,-1
 445 595 l 1,30,-1
 445 0 l 1,31,-1
 443 0 l 1,32,33
 401 -23 401 -23 380.5 -47 c 128,-1,34
 360 -71 360 -71 360 -94 c 0,35,36
 360 -102 360 -102 364.5 -106.5 c 128,-1,37
 369 -111 369 -111 376 -111 c 0,38,39
 388 -111 388 -111 393 -103 c 128,-1,40
 398 -95 398 -95 398 -71 c 1,41,-1
 484 -71 l 1,0,1
260.5 144 m 128,-1,43
 269 162 269 162 269 193 c 2,44,-1
 269 400 l 2,45,46
 269 433 269 433 260.5 451 c 128,-1,47
 252 469 252 469 232 469 c 0,48,49
 209 469 209 469 202 451 c 128,-1,50
 195 433 195 433 195 398 c 2,51,-1
 195 195 l 2,52,53
 195 160 195 160 202 143 c 128,-1,54
 209 126 209 126 231 126 c 0,55,42
 252 126 252 126 260.5 144 c 128,-1,43
EndSplineSet
EndChar

StartChar: g.ss02
Encoding: 65598 -1 493
Width: 456
GlyphClass: 2
Flags: W
AnchorPoint: "Anchor-18" 228 595 basechar 0
AnchorPoint: "Anchor-15" 228 -178 basechar 0
LayerCount: 2
Fore
SplineSet
449 610 m 1,0,-1
 449 486 l 1,1,2
 419 495 419 495 394 501 c 1,3,4
 412 467 412 467 412 419 c 2,5,-1
 412 351 l 2,6,7
 412 256 412 256 363.5 205 c 128,-1,8
 315 154 315 154 223 154 c 0,9,10
 192 154 192 154 171 158 c 1,11,12
 165 152 165 152 165 141 c 0,13,14
 165 125 165 125 192 122 c 2,15,-1
 279 113 l 2,16,17
 353 107 353 107 398.5 71.5 c 128,-1,18
 444 36 444 36 444 -29 c 2,19,-1
 444 -52 l 2,20,21
 444 -125 444 -125 383.5 -158 c 128,-1,22
 323 -191 323 -191 224 -191 c 0,23,24
 131 -191 131 -191 73.5 -159 c 128,-1,25
 16 -127 16 -127 16 -67 c 2,26,-1
 16 -48 l 2,27,28
 16 1 16 1 61 38 c 1,29,30
 24 66 24 66 24 117 c 0,31,32
 24 163 24 163 75 205 c 1,33,34
 24 256 24 256 24 351 c 2,35,-1
 24 421 l 2,36,37
 24 509 24 509 75 559 c 128,-1,38
 126 609 126 609 220 610 c 2,39,-1
 449 610 l 1,0,-1
255 442 m 2,40,41
 255 488 255 488 223 488 c 0,42,43
 208 488 208 488 199 476.5 c 128,-1,44
 190 465 190 465 190 442 c 2,45,-1
 190 319 l 2,46,47
 190 296 190 296 199 284 c 128,-1,48
 208 272 208 272 223 272 c 256,49,50
 238 272 238 272 246.5 284 c 128,-1,51
 255 296 255 296 255 318 c 2,52,-1
 255 442 l 2,40,41
275 -37 m 2,53,54
 275 -22 275 -22 262.5 -15 c 128,-1,55
 250 -8 250 -8 218 -3 c 2,56,-1
 182 2 l 1,57,58
 170 -18 170 -18 170 -33 c 2,59,-1
 170 -55 l 2,60,61
 170 -73 170 -73 181 -80.5 c 128,-1,62
 192 -88 192 -88 219 -88 c 0,63,64
 248 -88 248 -88 261.5 -82 c 128,-1,65
 275 -76 275 -76 275 -61 c 2,66,-1
 275 -37 l 2,53,54
EndSplineSet
EndChar

StartChar: e.ss03
Encoding: 65605 -1 500
Width: 444
GlyphClass: 2
Flags: W
AnchorPoint: "Anchor-18" 224 595 basechar 0
AnchorPoint: "Anchor-17" 329 8 basechar 0
AnchorPoint: "Anchor-15" 224 0 basechar 0
LayerCount: 2
Fore
SplineSet
377 555 m 128,-1,1
 429 500 429 500 429 396 c 2,2,-1
 429 274 l 1,3,-1
 195 248 l 1,4,-1
 195 179 l 2,5,6
 195 148 195 148 203.5 134.5 c 128,-1,7
 212 121 212 121 231 121 c 0,8,9
 249 121 249 121 257 134.5 c 128,-1,10
 265 148 265 148 265 177 c 2,11,-1
 265 214 l 1,12,-1
 428 214 l 1,13,-1
 428 183 l 2,14,15
 428 87 428 87 375.5 36 c 128,-1,16
 323 -15 323 -15 229 -15 c 0,17,18
 126 -15 126 -15 73 47 c 128,-1,19
 20 109 20 109 20 228 c 2,20,-1
 20 370 l 2,21,22
 20 488 20 488 74 549 c 128,-1,23
 128 610 128 610 228 610 c 0,24,0
 325 610 325 610 377 555 c 128,-1,1
195 345 m 1,25,-1
 265 353 l 1,26,-1
 265 419 l 2,27,28
 265 474 265 474 232 474 c 0,29,30
 195 474 195 474 195 419 c 2,31,-1
 195 345 l 1,25,-1
EndSplineSet
EndChar

StartChar: eogonek.ss03
Encoding: 65621 -1 516
Width: 444
GlyphClass: 2
Flags: W
AnchorPoint: "Anchor-18" 224 595 basechar 0
AnchorPoint: "Anchor-17" 329 8 basechar 0
AnchorPoint: "Anchor-15" 224 0 basechar 0
LayerCount: 2
Fore
SplineSet
377 555 m 128,-1,1
 429 500 429 500 429 396 c 2,2,-1
 429 274 l 1,3,-1
 195 248 l 1,4,-1
 195 179 l 2,5,6
 195 148 195 148 203.5 134.5 c 128,-1,7
 212 121 212 121 231 121 c 0,8,9
 249 121 249 121 257 134.5 c 128,-1,10
 265 148 265 148 265 177 c 2,11,-1
 265 214 l 1,12,-1
 428 214 l 1,13,-1
 428 183 l 2,14,15
 428 110 428 110 397.5 63 c 128,-1,16
 367 16 367 16 310 -3 c 1,17,18
 246 -44 246 -44 246 -86 c 0,19,20
 246 -94 246 -94 250.5 -98.5 c 128,-1,21
 255 -103 255 -103 262 -103 c 0,22,23
 274 -103 274 -103 279 -95 c 128,-1,24
 284 -87 284 -87 284 -63 c 1,25,-1
 370 -63 l 1,26,27
 372 -123 372 -123 344 -151.5 c 128,-1,28
 316 -180 316 -180 250 -180 c 0,29,30
 200 -180 200 -180 172 -160 c 128,-1,31
 144 -140 144 -140 144 -102 c 0,32,33
 144 -77 144 -77 158.5 -54 c 128,-1,34
 173 -31 173 -31 200 -14 c 1,35,36
 111 -5 111 -5 65.5 56.5 c 128,-1,37
 20 118 20 118 20 228 c 2,38,-1
 20 370 l 2,39,40
 20 488 20 488 74 549 c 128,-1,41
 128 610 128 610 228 610 c 0,42,0
 325 610 325 610 377 555 c 128,-1,1
195 345 m 1,43,-1
 265 353 l 1,44,-1
 265 419 l 2,45,46
 265 474 265 474 232 474 c 0,47,48
 195 474 195 474 195 419 c 2,49,-1
 195 345 l 1,43,-1
EndSplineSet
EndChar

StartChar: i.ss03
Encoding: 65623 -1 518
Width: 262
GlyphClass: 2
Flags: W
AnchorPoint: "Anchor-18" 139 595 basechar 0
AnchorPoint: "Anchor-17" 229 7 basechar 0
AnchorPoint: "Anchor-15" 146 0 basechar 0
LayerCount: 2
Fore
SplineSet
66 659 m 128,-1,1
 43 679 43 679 43 725 c 0,2,3
 43 770 43 770 66 790.5 c 128,-1,4
 89 811 89 811 140 811 c 256,5,6
 191 811 191 811 214 790.5 c 128,-1,7
 237 770 237 770 237 725 c 0,8,9
 237 679 237 679 214 659 c 128,-1,10
 191 639 191 639 140 639 c 256,11,0
 89 639 89 639 66 659 c 128,-1,1
4 595 m 1,12,-1
 234 595 l 1,13,-1
 234 0 l 1,14,-1
 59 0 l 1,15,-1
 59 454 l 1,16,-1
 4 454 l 1,17,-1
 4 595 l 1,12,-1
EndSplineSet
EndChar

StartChar: dotlessi.ss03
Encoding: 65624 -1 519
Width: 262
GlyphClass: 2
Flags: W
AnchorPoint: "Anchor-18" 139 595 basechar 0
AnchorPoint: "Anchor-17" 229 7 basechar 0
AnchorPoint: "Anchor-15" 146 0 basechar 0
LayerCount: 2
Fore
SplineSet
234 595 m 1,0,-1
 234 0 l 1,1,-1
 59 0 l 1,2,-1
 59 454 l 1,3,-1
 4 454 l 1,4,-1
 4 595 l 1,5,-1
 234 595 l 1,0,-1
EndSplineSet
EndChar

StartChar: iogonek.ss03
Encoding: 65635 -1 530
Width: 262
GlyphClass: 2
Flags: W
AnchorPoint: "Anchor-18" 139 813 basechar 0
AnchorPoint: "Anchor-17" 229 7 basechar 0
AnchorPoint: "Anchor-15" 146 0 basechar 0
LayerCount: 2
Fore
SplineSet
71.5 676.5 m 128,-1,1
 51 693 51 693 51 729 c 256,2,3
 51 765 51 765 72 782 c 128,-1,4
 93 799 93 799 138 799 c 0,5,6
 184 799 184 799 205 782 c 128,-1,7
 226 765 226 765 226 729 c 256,8,9
 226 693 226 693 205 676.5 c 128,-1,10
 184 660 184 660 138 660 c 256,11,0
 92 660 92 660 71.5 676.5 c 128,-1,1
270 -64 m 1,12,13
 272 -124 272 -124 244 -152.5 c 128,-1,14
 216 -181 216 -181 150 -181 c 0,15,16
 100 -181 100 -181 72 -161 c 128,-1,17
 44 -141 44 -141 44 -103 c 0,18,19
 44 -72 44 -72 66 -44.5 c 128,-1,20
 88 -17 88 -17 129 0 c 1,21,-1
 59 0 l 1,22,-1
 59 454 l 1,23,-1
 4 454 l 1,24,-1
 4 595 l 1,25,-1
 234 595 l 1,26,-1
 234 0 l 1,27,-1
 217 0 l 1,28,29
 146 -42 146 -42 146 -87 c 0,30,31
 146 -95 146 -95 150.5 -99.5 c 128,-1,32
 155 -104 155 -104 162 -104 c 0,33,34
 174 -104 174 -104 179 -96 c 128,-1,35
 184 -88 184 -88 184 -64 c 1,36,-1
 270 -64 l 1,12,13
EndSplineSet
EndChar

StartChar: j.ss03
Encoding: 65637 -1 532
Width: 254
GlyphClass: 2
Flags: W
AnchorPoint: "Anchor-18" 141 595 basechar 0
AnchorPoint: "Anchor-15" 148 -163 basechar 0
LayerCount: 2
Fore
SplineSet
68 659 m 128,-1,1
 45 679 45 679 45 725 c 0,2,3
 45 770 45 770 68 790.5 c 128,-1,4
 91 811 91 811 142 811 c 256,5,6
 193 811 193 811 216 790.5 c 128,-1,7
 239 770 239 770 239 725 c 0,8,9
 239 679 239 679 216 659 c 128,-1,10
 193 639 193 639 142 639 c 256,11,0
 91 639 91 639 68 659 c 128,-1,1
226 595 m 1,12,-1
 226 43 l 2,13,14
 226 -68 226 -68 173 -123.5 c 128,-1,15
 120 -179 120 -179 4 -179 c 0,16,17
 -27 -179 -27 -179 -72 -170 c 1,18,-1
 -66 -40 l 1,19,20
 -45 -44 -45 -44 -21 -44 c 0,21,22
 17 -44 17 -44 34 -28.5 c 128,-1,23
 51 -13 51 -13 51 31 c 2,24,-1
 51 454 l 1,25,-1
 -3 454 l 1,26,-1
 -3 595 l 1,27,-1
 226 595 l 1,12,-1
EndSplineSet
EndChar

StartChar: uni0237.ss03
Encoding: 65638 -1 533
Width: 254
GlyphClass: 2
Flags: W
AnchorPoint: "Anchor-18" 141 595 basechar 0
AnchorPoint: "Anchor-15" 148 -163 basechar 0
LayerCount: 2
Fore
SplineSet
226 43 m 2,0,1
 226 -68 226 -68 173 -123.5 c 128,-1,2
 120 -179 120 -179 4 -179 c 0,3,4
 -27 -179 -27 -179 -72 -170 c 1,5,-1
 -66 -40 l 1,6,7
 -45 -44 -45 -44 -21 -44 c 0,8,9
 17 -44 17 -44 34 -28.5 c 128,-1,10
 51 -13 51 -13 51 31 c 2,11,-1
 51 454 l 1,12,-1
 -3 454 l 1,13,-1
 -3 595 l 1,14,-1
 226 595 l 1,15,-1
 226 43 l 2,0,1
EndSplineSet
EndChar

StartChar: k.ss03
Encoding: 65640 -1 535
Width: 484
GlyphClass: 2
Flags: W
AnchorPoint: "Anchor-18" 244 766 basechar 0
AnchorPoint: "Anchor-15" 244 0 basechar 0
LayerCount: 2
Fore
SplineSet
486 0 m 1,0,-1
 290 0 l 1,1,-1
 242 168 l 1,2,-1
 204 117 l 1,3,-1
 204 0 l 1,4,-1
 28 0 l 1,5,-1
 28 766 l 1,6,-1
 204 766 l 1,7,-1
 204 379 l 1,8,-1
 283 595 l 1,9,-1
 475 595 l 1,10,-1
 364 338 l 1,11,-1
 486 0 l 1,0,-1
EndSplineSet
EndChar

StartChar: l.ss03
Encoding: 65642 -1 537
Width: 262
GlyphClass: 2
Flags: W
AnchorPoint: "Anchor-19" 242 766 basechar 0
AnchorPoint: "Anchor-18" 131 766 basechar 0
AnchorPoint: "Anchor-16" 144 383 basechar 0
AnchorPoint: "Anchor-15" 131 0 basechar 0
LayerCount: 2
Fore
SplineSet
234 766 m 1,0,-1
 234 0 l 1,1,-1
 59 0 l 1,2,-1
 59 624 l 1,3,-1
 4 624 l 1,4,-1
 4 766 l 1,5,-1
 234 766 l 1,0,-1
EndSplineSet
EndChar

StartChar: lslash.ss03
Encoding: 65650 -1 545
Width: 262
GlyphClass: 2
Flags: W
AnchorPoint: "Anchor-19" 242 766 basechar 0
AnchorPoint: "Anchor-18" 131 766 basechar 0
AnchorPoint: "Anchor-16" 144 383 basechar 0
AnchorPoint: "Anchor-15" 131 0 basechar 0
LayerCount: 2
Fore
SplineSet
264 482 m 1,0,-1
 299 417 l 1,1,-1
 234 387 l 1,2,-1
 234 0 l 1,3,-1
 59 0 l 1,4,-1
 59 304 l 1,5,-1
 24 288 l 1,6,-1
 -10 353 l 1,7,-1
 59 385 l 1,8,-1
 59 624 l 1,9,-1
 4 624 l 1,10,-1
 4 766 l 1,11,-1
 234 766 l 1,12,-1
 234 468 l 1,13,-1
 264 482 l 1,0,-1
EndSplineSet
EndChar

StartChar: f_f
Encoding: 65651 -1 546
Width: 623
GlyphClass: 3
Flags: W
LayerCount: 2
Fore
SplineSet
543.5 655.5 m 128,-1,1
 531 650 531 650 526.5 636.5 c 128,-1,2
 522 623 522 623 521 595 c 1,3,-1
 623 595 l 1,4,-1
 623 454 l 1,5,-1
 521 454 l 1,6,-1
 521 0 l 1,7,-1
 346 0 l 1,8,-1
 346 454 l 1,9,-1
 229 454 l 1,10,-1
 229 0 l 1,11,-1
 53 0 l 1,12,-1
 53 454 l 1,13,-1
 2 454 l 1,14,-1
 2 595 l 1,15,-1
 54 595 l 1,16,17
 58 700 58 700 104 743 c 128,-1,18
 150 786 150 786 249 786 c 0,19,20
 278 786 278 786 305 782 c 128,-1,21
 332 778 332 778 336 777 c 1,22,-1
 328 658 l 1,23,24
 308 661 308 661 291 661 c 0,25,26
 264 661 264 661 251.5 655.5 c 128,-1,27
 239 650 239 650 234.5 636.5 c 128,-1,28
 230 623 230 623 229 595 c 1,29,-1
 347 595 l 1,30,31
 351 700 351 700 397 743 c 128,-1,32
 443 786 443 786 541 786 c 0,33,34
 572 786 572 786 628 777 c 1,35,-1
 621 658 l 1,36,37
 600 661 600 661 583 661 c 0,38,0
 556 661 556 661 543.5 655.5 c 128,-1,1
EndSplineSet
Ligature2: "'liga' Standard Ligatures in Latin lookup 19 subtable" f f
EndChar

StartChar: a.sc
Encoding: 65652 -1 547
Width: 448
GlyphClass: 2
Flags: W
AnchorPoint: "Anchor-18" 224 594 basechar 0
AnchorPoint: "Anchor-17" 451 0 basechar 0
AnchorPoint: "Anchor-16" 224 147 basechar 0
AnchorPoint: "Anchor-15" 224 0 basechar 0
LayerCount: 2
Fore
SplineSet
451 0 m 1,0,-1
 278 0 l 1,1,-1
 267 72 l 1,2,-1
 181 72 l 1,3,-1
 170 0 l 1,4,-1
 -4 0 l 1,5,-1
 88 594 l 1,6,-1
 360 594 l 1,7,-1
 451 0 l 1,0,-1
214 289 m 1,8,-1
 201 205 l 1,9,-1
 247 205 l 1,10,-1
 234 289 l 1,11,-1
 226 450 l 1,12,-1
 222 450 l 1,13,-1
 214 289 l 1,8,-1
EndSplineSet
EndChar

StartChar: aogonek.sc
Encoding: 65659 -1 554
Width: 448
GlyphClass: 2
Flags: W
AnchorPoint: "Anchor-18" 224 594 basechar 0
AnchorPoint: "Anchor-17" 451 0 basechar 0
AnchorPoint: "Anchor-16" 224 147 basechar 0
AnchorPoint: "Anchor-15" 224 0 basechar 0
LayerCount: 2
Fore
SplineSet
493 -71 m 1,0,1
 495 -131 495 -131 467 -159.5 c 128,-1,2
 439 -188 439 -188 373 -188 c 0,3,4
 323 -188 323 -188 295 -168 c 128,-1,5
 267 -148 267 -148 267 -110 c 0,6,7
 267 -75 267 -75 293.5 -45.5 c 128,-1,8
 320 -16 320 -16 370 0 c 1,9,-1
 278 0 l 1,10,-1
 267 72 l 1,11,-1
 181 72 l 1,12,-1
 170 0 l 1,13,-1
 -4 0 l 1,14,-1
 88 594 l 1,15,-1
 360 594 l 1,16,-1
 451 0 l 1,17,-1
 452 0 l 1,18,19
 410 -23 410 -23 389.5 -47 c 128,-1,20
 369 -71 369 -71 369 -94 c 0,21,22
 369 -102 369 -102 373.5 -106.5 c 128,-1,23
 378 -111 378 -111 385 -111 c 0,24,25
 397 -111 397 -111 402 -103 c 128,-1,26
 407 -95 407 -95 407 -71 c 1,27,-1
 493 -71 l 1,0,1
214 289 m 1,28,-1
 201 205 l 1,29,-1
 247 205 l 1,30,-1
 234 289 l 1,31,-1
 226 450 l 1,32,-1
 222 450 l 1,33,-1
 214 289 l 1,28,-1
EndSplineSet
EndChar

StartChar: ae.sc
Encoding: 65662 -1 557
Width: 600
GlyphClass: 2
Flags: W
AnchorPoint: "Anchor-18" 319 595 basechar 0
AnchorPoint: "Anchor-15" 296 0 basechar 0
LayerCount: 2
Fore
SplineSet
582 595 m 1,0,-1
 582 452 l 1,1,-1
 425 452 l 1,2,-1
 425 364 l 1,3,-1
 572 364 l 1,4,-1
 572 242 l 1,5,-1
 425 242 l 1,6,-1
 425 144 l 1,7,-1
 582 144 l 1,8,-1
 582 0 l 1,9,-1
 249 0 l 1,10,-1
 249 102 l 1,11,-1
 190 102 l 1,12,-1
 171 0 l 1,13,-1
 -4 0 l 1,14,-1
 111 595 l 1,15,-1
 582 595 l 1,0,-1
236 357 m 1,16,-1
 211 221 l 1,17,-1
 249 221 l 1,18,-1
 249 449 l 1,19,-1
 246 449 l 1,20,-1
 236 357 l 1,16,-1
EndSplineSet
EndChar

StartChar: b.sc
Encoding: 65664 -1 559
Width: 452
GlyphClass: 2
Flags: W
AnchorPoint: "Anchor-18" 217 595 basechar 0
AnchorPoint: "Anchor-15" 217 0 basechar 0
LayerCount: 2
Fore
SplineSet
19 0 m 1,0,-1
 19 595 l 1,1,-1
 253 595 l 2,2,3
 328 595 328 595 372 559 c 128,-1,4
 416 523 416 523 416 466 c 2,5,-1
 416 426 l 2,6,7
 416 386 416 386 395.5 356.5 c 128,-1,8
 375 327 375 327 345 318 c 1,9,-1
 345 317 l 1,10,11
 382 308 382 308 407 275 c 128,-1,12
 432 242 432 242 432 197 c 2,13,-1
 432 149 l 2,14,15
 432 82 432 82 387 41 c 128,-1,16
 342 0 342 0 253 0 c 2,17,-1
 19 0 l 1,0,-1
224 359 m 2,18,19
 241 359 241 359 250.5 367.5 c 128,-1,20
 260 376 260 376 260 392 c 2,21,-1
 260 428 l 2,22,23
 260 459 260 459 223 459 c 2,24,-1
 188 459 l 1,25,-1
 188 359 l 1,26,-1
 224 359 l 2,18,19
220 135 m 2,27,28
 241 135 241 135 252 143.5 c 128,-1,29
 263 152 263 152 263 173 c 2,30,-1
 263 218 l 2,31,32
 263 254 263 254 220 254 c 2,33,-1
 188 254 l 1,34,-1
 188 135 l 1,35,-1
 220 135 l 2,27,28
EndSplineSet
EndChar

StartChar: ccedilla.sc
Encoding: 65668 -1 563
Width: 445
GlyphClass: 2
Flags: W
AnchorPoint: "Anchor-18" 221 594 basechar 0
AnchorPoint: "Anchor-16" 229 298 basechar 0
AnchorPoint: "Anchor-15" 219 -185 basechar 0
LayerCount: 2
Fore
SplineSet
430 344 m 1,0,-1
 265 344 l 1,1,-1
 265 415 l 2,2,3
 265 442 265 442 257 455.5 c 128,-1,4
 249 469 249 469 231 469 c 0,5,6
 195 469 195 469 195 412 c 2,7,-1
 195 186 l 2,8,9
 195 126 195 126 231 126 c 0,10,11
 265 126 265 126 265 183 c 2,12,-1
 265 259 l 1,13,-1
 430 259 l 1,14,-1
 430 218 l 2,15,16
 430 0 430 0 249 -13 c 1,17,-1
 242 -34 l 1,18,19
 254 -32 254 -32 259 -32 c 0,20,21
 287 -32 287 -32 305 -49.5 c 128,-1,22
 323 -67 323 -67 323 -98 c 0,23,24
 323 -137 323 -137 296.5 -161.5 c 128,-1,25
 270 -186 270 -186 218 -186 c 0,26,27
 112 -186 112 -186 112 -93 c 1,28,-1
 189 -93 l 1,29,30
 189 -122 189 -122 213 -122 c 0,31,32
 233 -122 233 -122 233 -97 c 0,33,34
 233 -83 233 -83 227.5 -76.5 c 128,-1,35
 222 -70 222 -70 213 -70 c 0,36,37
 209 -70 209 -70 203 -72 c 1,38,-1
 165 -50 l 1,39,-1
 177 -10 l 1,40,41
 20 18 20 18 20 228 c 2,42,-1
 20 371 l 2,43,44
 20 489 20 489 72.5 549.5 c 128,-1,45
 125 610 125 610 230 610 c 0,46,47
 323 610 323 610 376.5 553.5 c 128,-1,48
 430 497 430 497 430 382 c 2,49,-1
 430 344 l 1,0,-1
EndSplineSet
EndChar

StartChar: d.sc
Encoding: 65671 -1 566
Width: 456
GlyphClass: 2
Flags: W
AnchorPoint: "Anchor-18" 221 594 basechar 0
AnchorPoint: "Anchor-16" 111 297 basechar 0
AnchorPoint: "Anchor-15" 221 0 basechar 0
LayerCount: 2
Fore
SplineSet
19 0 m 1,0,-1
 19 595 l 1,1,-1
 222 595 l 2,2,3
 337 595 337 595 386.5 540 c 128,-1,4
 436 485 436 485 436 369 c 2,5,-1
 436 226 l 2,6,7
 436 110 436 110 386.5 55 c 128,-1,8
 337 0 337 0 223 0 c 2,9,-1
 19 0 l 1,0,-1
218 138 m 2,10,11
 240 138 240 138 250.5 150.5 c 128,-1,12
 261 163 261 163 261 192 c 2,13,-1
 261 402 l 2,14,15
 261 432 261 432 250.5 445 c 128,-1,16
 240 458 240 458 218 458 c 2,17,-1
 195 458 l 1,18,-1
 195 138 l 1,19,-1
 218 138 l 2,10,11
EndSplineSet
EndChar

StartChar: eth.sc
Encoding: 65672 -1 567
Width: 470
GlyphClass: 2
Flags: W
AnchorPoint: "Anchor-18" 236 594 basechar 0
AnchorPoint: "Anchor-16" 125 297 basechar 0
AnchorPoint: "Anchor-15" 236 0 basechar 0
LayerCount: 2
Fore
SplineSet
236 595 m 2,0,1
 351 595 351 595 400.5 540 c 128,-1,2
 450 485 450 485 450 369 c 2,3,-1
 450 226 l 2,4,5
 450 110 450 110 400.5 55 c 128,-1,6
 351 0 351 0 237 0 c 2,7,-1
 33 0 l 1,8,-1
 33 250 l 1,9,-1
 8 250 l 1,10,-1
 8 339 l 1,11,-1
 33 339 l 1,12,-1
 33 595 l 1,13,-1
 236 595 l 2,0,1
275 402 m 2,14,15
 275 432 275 432 264.5 445 c 128,-1,16
 254 458 254 458 232 458 c 2,17,-1
 209 458 l 1,18,-1
 209 339 l 1,19,-1
 239 339 l 1,20,-1
 239 250 l 1,21,-1
 209 250 l 1,22,-1
 209 138 l 1,23,-1
 232 138 l 2,24,25
 254 138 254 138 264.5 150.5 c 128,-1,26
 275 163 275 163 275 192 c 2,27,-1
 275 402 l 2,14,15
EndSplineSet
EndChar

StartChar: e.sc
Encoding: 65675 -1 570
Width: 370
GlyphClass: 2
Flags: W
AnchorPoint: "Anchor-18" 186 595 basechar 0
AnchorPoint: "Anchor-17" 352 0 basechar 0
AnchorPoint: "Anchor-15" 187 0 basechar 0
LayerCount: 2
Fore
SplineSet
352 0 m 1,0,-1
 19 0 l 1,1,-1
 19 595 l 1,2,-1
 352 595 l 1,3,-1
 352 452 l 1,4,-1
 195 452 l 1,5,-1
 195 365 l 1,6,-1
 343 365 l 1,7,-1
 343 242 l 1,8,-1
 195 242 l 1,9,-1
 195 144 l 1,10,-1
 352 144 l 1,11,-1
 352 0 l 1,0,-1
EndSplineSet
EndChar

StartChar: eogonek.sc
Encoding: 65684 -1 579
Width: 370
GlyphClass: 2
Flags: W
AnchorPoint: "Anchor-18" 186 595 basechar 0
AnchorPoint: "Anchor-17" 352 0 basechar 0
AnchorPoint: "Anchor-15" 187 0 basechar 0
LayerCount: 2
Fore
SplineSet
394 -71 m 1,0,1
 396 -131 396 -131 368 -159.5 c 128,-1,2
 340 -188 340 -188 274 -188 c 0,3,4
 224 -188 224 -188 196 -168 c 128,-1,5
 168 -148 168 -148 168 -110 c 0,6,7
 168 -75 168 -75 194.5 -45.5 c 128,-1,8
 221 -16 221 -16 271 0 c 1,9,-1
 19 0 l 1,10,-1
 19 595 l 1,11,-1
 352 595 l 1,12,-1
 352 452 l 1,13,-1
 195 452 l 1,14,-1
 195 365 l 1,15,-1
 343 365 l 1,16,-1
 343 242 l 1,17,-1
 195 242 l 1,18,-1
 195 144 l 1,19,-1
 352 144 l 1,20,-1
 352 0 l 1,21,-1
 353 0 l 1,22,23
 311 -23 311 -23 290.5 -47 c 128,-1,24
 270 -71 270 -71 270 -94 c 0,25,26
 270 -102 270 -102 274.5 -106.5 c 128,-1,27
 279 -111 279 -111 286 -111 c 0,28,29
 298 -111 298 -111 303 -103 c 128,-1,30
 308 -95 308 -95 308 -71 c 1,31,-1
 394 -71 l 1,0,1
EndSplineSet
EndChar

StartChar: f.sc
Encoding: 65685 -1 580
Width: 350
GlyphClass: 2
Flags: W
AnchorPoint: "Anchor-18" 180 595 basechar 0
AnchorPoint: "Anchor-15" 111 0 basechar 0
LayerCount: 2
Fore
SplineSet
195 0 m 1,0,-1
 19 0 l 1,1,-1
 19 595 l 1,2,-1
 341 595 l 1,3,-1
 341 451 l 1,4,-1
 195 451 l 1,5,-1
 195 358 l 1,6,-1
 324 358 l 1,7,-1
 324 215 l 1,8,-1
 195 215 l 1,9,-1
 195 0 l 1,0,-1
EndSplineSet
EndChar

StartChar: g.sc
Encoding: 65686 -1 581
Width: 450
GlyphClass: 2
Flags: W
AnchorPoint: "Anchor-18" 225 594 basechar 0
AnchorPoint: "Anchor-15" 225 0 basechar 0
LayerCount: 2
Fore
SplineSet
430 356 m 1,0,-1
 265 356 l 1,1,-1
 265 390 l 2,2,3
 264 438 264 438 257 453.5 c 128,-1,4
 250 469 250 469 230 469 c 0,5,6
 195 469 195 469 195 410 c 2,7,-1
 195 183 l 2,8,9
 195 126 195 126 231 126 c 0,10,11
 251 126 251 126 260 140.5 c 128,-1,12
 269 155 269 155 269 192 c 2,13,-1
 269 212 l 1,14,-1
 226 212 l 1,15,-1
 226 322 l 1,16,-1
 430 322 l 1,17,-1
 430 213 l 2,18,19
 430 102 430 102 375.5 44 c 128,-1,20
 321 -14 321 -14 230 -14 c 0,21,22
 121 -14 121 -14 70.5 44 c 128,-1,23
 20 102 20 102 20 217 c 2,24,-1
 20 382 l 2,25,26
 20 497 20 497 71 553.5 c 128,-1,27
 122 610 122 610 230 610 c 0,28,29
 323 610 323 610 376.5 555 c 128,-1,30
 430 500 430 500 430 389 c 2,31,-1
 430 356 l 1,0,-1
EndSplineSet
EndChar

StartChar: h.sc
Encoding: 65691 -1 586
Width: 453
GlyphClass: 2
Flags: W
AnchorPoint: "Anchor-18" 227 595 basechar 0
AnchorPoint: "Anchor-16" 227 481 basechar 0
AnchorPoint: "Anchor-15" 227 0 basechar 0
LayerCount: 2
Fore
SplineSet
258 380 m 1,0,-1
 258 595 l 1,1,-1
 434 595 l 1,2,-1
 434 0 l 1,3,-1
 258 0 l 1,4,-1
 258 225 l 1,5,-1
 195 225 l 1,6,-1
 195 0 l 1,7,-1
 19 0 l 1,8,-1
 19 595 l 1,9,-1
 195 595 l 1,10,-1
 195 380 l 1,11,-1
 258 380 l 1,0,-1
EndSplineSet
EndChar

StartChar: hbar.sc
Encoding: 65692 -1 587
Width: 495
GlyphClass: 2
Flags: W
AnchorPoint: "Anchor-18" 247 595 basechar 0
AnchorPoint: "Anchor-16" 247 481 basechar 0
AnchorPoint: "Anchor-15" 248 0 basechar 0
LayerCount: 2
Fore
SplineSet
454 514 m 1,0,-1
 489 514 l 1,1,-1
 489 449 l 1,2,-1
 454 449 l 1,3,-1
 454 0 l 1,4,-1
 279 0 l 1,5,-1
 279 225 l 1,6,-1
 215 225 l 1,7,-1
 215 0 l 1,8,-1
 40 0 l 1,9,-1
 40 449 l 1,10,-1
 7 449 l 1,11,-1
 7 514 l 1,12,-1
 40 514 l 1,13,-1
 40 595 l 1,14,-1
 215 595 l 1,15,-1
 215 514 l 1,16,-1
 279 514 l 1,17,-1
 279 595 l 1,18,-1
 454 595 l 1,19,-1
 454 514 l 1,0,-1
215 380 m 1,20,-1
 279 380 l 1,21,-1
 279 449 l 1,22,-1
 215 449 l 1,23,-1
 215 380 l 1,20,-1
EndSplineSet
EndChar

StartChar: i.sc
Encoding: 65694 -1 589
Width: 214
GlyphClass: 2
Flags: W
AnchorPoint: "Anchor-18" 107 595 basechar 0
AnchorPoint: "Anchor-17" 195 0 basechar 0
AnchorPoint: "Anchor-15" 107 0 basechar 0
LayerCount: 2
Fore
SplineSet
195 0 m 1,0,-1
 19 0 l 1,1,-1
 19 595 l 1,2,-1
 195 595 l 1,3,-1
 195 0 l 1,0,-1
EndSplineSet
EndChar

StartChar: iogonek.sc
Encoding: 65703 -1 598
Width: 214
GlyphClass: 2
Flags: W
AnchorPoint: "Anchor-18" 107 595 basechar 0
AnchorPoint: "Anchor-17" 195 0 basechar 0
AnchorPoint: "Anchor-15" 107 0 basechar 0
LayerCount: 2
Fore
SplineSet
236 -71 m 1,0,1
 238 -131 238 -131 210 -159.5 c 128,-1,2
 182 -188 182 -188 116 -188 c 0,3,4
 66 -188 66 -188 38 -168 c 128,-1,5
 10 -148 10 -148 10 -110 c 0,6,7
 10 -75 10 -75 36.5 -45.5 c 128,-1,8
 63 -16 63 -16 113 0 c 1,9,-1
 19 0 l 1,10,-1
 19 595 l 1,11,-1
 195 595 l 1,12,-1
 195 0 l 1,13,14
 153 -23 153 -23 132.5 -47 c 128,-1,15
 112 -71 112 -71 112 -94 c 0,16,17
 112 -102 112 -102 116.5 -106.5 c 128,-1,18
 121 -111 121 -111 128 -111 c 0,19,20
 140 -111 140 -111 145 -103 c 128,-1,21
 150 -95 150 -95 150 -71 c 1,22,-1
 236 -71 l 1,0,1
EndSplineSet
EndChar

StartChar: j.sc
Encoding: 65705 -1 600
Width: 351
GlyphClass: 2
Flags: W
AnchorPoint: "Anchor-18" 172 595 basechar 0
AnchorPoint: "Anchor-15" 172 0 basechar 0
LayerCount: 2
Fore
SplineSet
62 -1.5 m 128,-1,1
 20 12 20 12 -1 31 c 1,2,-1
 74 165 l 1,3,4
 102 148 102 148 126 148 c 0,5,6
 162 148 162 148 162 188 c 2,7,-1
 162 439 l 1,8,-1
 50 439 l 1,9,-1
 50 595 l 1,10,-1
 337 595 l 1,11,-1
 337 180 l 2,12,13
 337 -15 337 -15 149 -15 c 0,14,0
 104 -15 104 -15 62 -1.5 c 128,-1,1
EndSplineSet
EndChar

StartChar: k.sc
Encoding: 65707 -1 602
Width: 458
GlyphClass: 2
Flags: W
AnchorPoint: "Anchor-18" 226 594 basechar 0
AnchorPoint: "Anchor-15" 226 0 basechar 0
LayerCount: 2
Fore
SplineSet
458 0 m 1,0,-1
 273 0 l 1,1,-1
 215 229 l 1,2,-1
 195 229 l 1,3,-1
 195 0 l 1,4,-1
 19 0 l 1,5,-1
 19 595 l 1,6,-1
 195 595 l 1,7,-1
 195 390 l 1,8,-1
 211 390 l 1,9,-1
 264 595 l 1,10,-1
 448 595 l 1,11,-1
 356 312 l 1,12,-1
 458 0 l 1,0,-1
EndSplineSet
EndChar

StartChar: l.sc
Encoding: 65709 -1 604
Width: 341
GlyphClass: 2
Flags: W
AnchorPoint: "Anchor-19" 231 595 basechar 0
AnchorPoint: "Anchor-18" 115 595 basechar 0
AnchorPoint: "Anchor-16" 115 309 basechar 0
AnchorPoint: "Anchor-15" 172 0 basechar 0
LayerCount: 2
Fore
SplineSet
332 0 m 1,0,-1
 19 0 l 1,1,-1
 19 595 l 1,2,-1
 195 595 l 1,3,-1
 195 162 l 1,4,-1
 332 162 l 1,5,-1
 332 0 l 1,0,-1
EndSplineSet
EndChar

StartChar: ldot.sc
Encoding: 65713 -1 608
Width: 341
GlyphClass: 2
Flags: W
AnchorPoint: "Anchor-19" 231 595 basechar 0
AnchorPoint: "Anchor-18" 115 595 basechar 0
AnchorPoint: "Anchor-16" 115 309 basechar 0
AnchorPoint: "Anchor-15" 172 0 basechar 0
LayerCount: 2
Fore
SplineSet
332 0 m 1,0,-1
 19 0 l 1,1,-1
 19 595 l 1,2,-1
 195 595 l 1,3,-1
 195 162 l 1,4,-1
 332 162 l 1,5,-1
 332 0 l 1,0,-1
237 347 m 256,7,8
 237 391 237 391 283 391 c 0,9,10
 330 391 330 391 330 347 c 256,11,12
 330 303 330 303 283 303 c 0,13,6
 237 303 237 303 237 347 c 256,7,8
EndSplineSet
EndChar

StartChar: lslash.sc
Encoding: 65714 -1 609
Width: 385
GlyphClass: 2
Flags: W
AnchorPoint: "Anchor-19" 273 595 basechar 0
AnchorPoint: "Anchor-18" 157 595 basechar 0
AnchorPoint: "Anchor-16" 157 309 basechar 0
AnchorPoint: "Anchor-15" 214 0 basechar 0
LayerCount: 2
Fore
SplineSet
237 307 m 1,0,-1
 237 162 l 1,1,-1
 374 162 l 1,2,-1
 374 0 l 1,3,-1
 61 0 l 1,4,-1
 61 225 l 1,5,-1
 38 214 l 1,6,-1
 4 279 l 1,7,-1
 61 306 l 1,8,-1
 61 595 l 1,9,-1
 237 595 l 1,10,-1
 237 388 l 1,11,-1
 279 408 l 1,12,-1
 313 343 l 1,13,-1
 237 307 l 1,0,-1
EndSplineSet
EndChar

StartChar: m.sc
Encoding: 65715 -1 610
Width: 599
GlyphClass: 2
Flags: W
AnchorPoint: "Anchor-18" 299 595 basechar 0
AnchorPoint: "Anchor-15" 300 0 basechar 0
LayerCount: 2
Fore
SplineSet
195 0 m 1,0,-1
 19 0 l 1,1,-1
 19 595 l 1,2,-1
 253 595 l 1,3,-1
 292 385 l 1,4,-1
 298 327 l 1,5,-1
 302 327 l 1,6,-1
 308 385 l 1,7,-1
 347 595 l 1,8,-1
 580 595 l 1,9,-1
 580 0 l 1,10,-1
 405 0 l 1,11,-1
 408 254 l 1,12,-1
 411 320 l 1,13,-1
 407 320 l 1,14,-1
 399 264 l 1,15,-1
 360 64 l 1,16,-1
 240 64 l 1,17,-1
 200 264 l 1,18,-1
 193 320 l 1,19,-1
 188 320 l 1,20,-1
 192 254 l 1,21,-1
 195 0 l 1,0,-1
EndSplineSet
EndChar

StartChar: n.sc
Encoding: 65716 -1 611
Width: 459
GlyphClass: 2
Flags: W
AnchorPoint: "Anchor-18" 230 595 basechar 0
AnchorPoint: "Anchor-15" 230 0 basechar 0
LayerCount: 2
Fore
SplineSet
184 0 m 1,0,-1
 20 0 l 1,1,-1
 19 595 l 1,2,-1
 191 595 l 1,3,-1
 273 377 l 1,4,-1
 286 327 l 1,5,-1
 291 327 l 1,6,-1
 276 404 l 1,7,-1
 276 595 l 1,8,-1
 440 595 l 1,9,-1
 440 0 l 1,10,-1
 268 1 l 1,11,-1
 191 206 l 1,12,-1
 175 269 l 1,13,-1
 170 269 l 1,14,-1
 181 197 l 1,15,-1
 184 0 l 1,0,-1
EndSplineSet
EndChar

StartChar: oslash.sc
Encoding: 65729 -1 624
Width: 465
GlyphClass: 2
Flags: W
AnchorPoint: "Anchor-19" 286 602 basechar 0
AnchorPoint: "Anchor-18" 229 594 basechar 0
AnchorPoint: "Anchor-17" 353 18 basechar 0
AnchorPoint: "Anchor-16" 229 297 basechar 0
AnchorPoint: "Anchor-15" 229 0 basechar 0
LayerCount: 2
Fore
SplineSet
360 577 m 1,0,1
 445 520 445 520 445 371 c 2,2,-1
 445 226 l 2,3,4
 445 107 445 107 391.5 46 c 128,-1,5
 338 -15 338 -15 232 -15 c 0,6,7
 186 -15 186 -15 150 -3 c 1,8,-1
 126 -70 l 1,9,-1
 73 -51 l 1,10,-1
 100 22 l 1,11,12
 20 80 20 80 20 226 c 2,13,-1
 20 371 l 2,14,15
 20 489 20 489 73.5 549.5 c 128,-1,16
 127 610 127 610 232 610 c 0,17,18
 276 610 276 610 309 600 c 1,19,-1
 331 662 l 1,20,-1
 384 643 l 1,21,-1
 360 577 l 1,0,1
195 286 m 1,22,-1
 257 458 l 1,23,24
 248 469 248 469 232 469 c 0,25,26
 195 469 195 469 195 410 c 2,27,-1
 195 286 l 1,22,-1
269 186 m 2,29,-1
 269 325 l 1,30,-1
 203 143 l 1,31,32
 212 126 212 126 232 126 c 0,33,28
 269 126 269 126 269 186 c 2,29,-1
EndSplineSet
EndChar

StartChar: oe.sc
Encoding: 65732 -1 627
Width: 620
GlyphClass: 2
Flags: W
AnchorPoint: "Anchor-19" 286 602 basechar 0
AnchorPoint: "Anchor-18" 310 586 basechar 0
AnchorPoint: "Anchor-17" 603 0 basechar 0
AnchorPoint: "Anchor-16" 229 297 basechar 0
AnchorPoint: "Anchor-15" 310 0 basechar 0
LayerCount: 2
Fore
SplineSet
445 452 m 1,0,-1
 445 365 l 1,1,-1
 593 365 l 1,2,-1
 593 242 l 1,3,-1
 445 242 l 1,4,-1
 445 144 l 1,5,-1
 603 144 l 1,6,-1
 603 0 l 1,7,-1
 324 0 l 1,8,9
 285 -15 285 -15 232 -15 c 0,10,11
 126 -15 126 -15 73 46.5 c 128,-1,12
 20 108 20 108 20 226 c 2,13,-1
 20 371 l 2,14,15
 20 489 20 489 73.5 549.5 c 128,-1,16
 127 610 127 610 232 610 c 0,17,18
 285 610 285 610 324 595 c 1,19,-1
 603 595 l 1,20,-1
 603 452 l 1,21,-1
 445 452 l 1,0,-1
269 410 m 2,22,23
 269 469 269 469 232 469 c 256,24,25
 195 469 195 469 195 410 c 2,26,-1
 195 186 l 2,27,28
 195 126 195 126 232 126 c 256,29,30
 269 126 269 126 269 186 c 2,31,-1
 269 410 l 2,22,23
EndSplineSet
EndChar

StartChar: p.sc
Encoding: 65733 -1 628
Width: 451
GlyphClass: 2
Flags: W
AnchorPoint: "Anchor-18" 217 595 basechar 0
AnchorPoint: "Anchor-15" 216 0 basechar 0
LayerCount: 2
Fore
SplineSet
19 0 m 1,0,-1
 19 595 l 1,1,-1
 248 595 l 2,2,3
 333 595 333 595 382 551.5 c 128,-1,4
 431 508 431 508 431 420 c 2,5,-1
 431 337 l 2,6,7
 431 245 431 245 384.5 202 c 128,-1,8
 338 159 338 159 256 159 c 2,9,-1
 195 159 l 1,10,-1
 195 0 l 1,11,-1
 19 0 l 1,0,-1
220 297 m 2,12,13
 256 297 256 297 256 334 c 2,14,-1
 256 423 l 2,15,16
 256 458 256 458 220 458 c 2,17,-1
 195 458 l 1,18,-1
 195 297 l 1,19,-1
 220 297 l 2,12,13
EndSplineSet
EndChar

StartChar: thorn.sc
Encoding: 65734 -1 629
Width: 451
GlyphClass: 2
Flags: W
AnchorPoint: "Anchor-18" 214 595 basechar 0
AnchorPoint: "Anchor-15" 214 0 basechar 0
LayerCount: 2
Fore
SplineSet
248 514 m 2,0,1
 333 514 333 514 382 470.5 c 128,-1,2
 431 427 431 427 431 338 c 2,3,-1
 431 257 l 2,4,5
 431 165 431 165 384.5 122.5 c 128,-1,6
 338 80 338 80 256 80 c 2,7,-1
 195 80 l 1,8,-1
 195 0 l 1,9,-1
 19 0 l 1,10,-1
 19 595 l 1,11,-1
 195 595 l 1,12,-1
 195 514 l 1,13,-1
 248 514 l 2,0,1
256 342 m 2,14,15
 256 377 256 377 222 377 c 2,16,-1
 195 377 l 1,17,-1
 195 217 l 1,18,-1
 222 217 l 2,19,20
 256 217 256 217 256 254 c 2,21,-1
 256 342 l 2,14,15
EndSplineSet
EndChar

StartChar: q.sc
Encoding: 65735 -1 630
Width: 465
GlyphClass: 2
Flags: W
AnchorPoint: "Anchor-19" 287 602 basechar 0
AnchorPoint: "Anchor-18" 225 594 basechar 0
AnchorPoint: "Anchor-17" 346 18 basechar 0
AnchorPoint: "Anchor-16" 225 297 basechar 0
AnchorPoint: "Anchor-15" 225 0 basechar 0
LayerCount: 2
Fore
SplineSet
391.5 549.5 m 128,-1,1
 445 489 445 489 445 371 c 2,2,-1
 445 226 l 2,3,4
 445 34 445 34 308 -5 c 1,5,-1
 308 -101 l 1,6,-1
 157 -101 l 1,7,-1
 157 -5 l 1,8,9
 20 34 20 34 20 226 c 2,10,-1
 20 371 l 2,11,12
 20 489 20 489 73.5 549.5 c 128,-1,13
 127 610 127 610 232 610 c 0,14,0
 338 610 338 610 391.5 549.5 c 128,-1,1
195 186 m 2,15,16
 195 126 195 126 232 126 c 256,17,18
 269 126 269 126 269 186 c 2,19,-1
 269 410 l 2,20,21
 269 469 269 469 232 469 c 256,22,23
 195 469 195 469 195 410 c 2,24,-1
 195 186 l 2,15,16
EndSplineSet
EndChar

StartChar: r.sc
Encoding: 65736 -1 631
Width: 445
GlyphClass: 2
Flags: W
AnchorPoint: "Anchor-18" 222 594 basechar 0
AnchorPoint: "Anchor-15" 222 0 basechar 0
LayerCount: 2
Fore
SplineSet
424 63 m 2,0,1
 425 41 425 41 428.5 26 c 128,-1,2
 432 11 432 11 440 0 c 1,3,-1
 259 0 l 1,4,5
 254 8 254 8 252 21.5 c 128,-1,6
 250 35 250 35 248 59 c 2,7,-1
 246 169 l 2,8,9
 245 189 245 189 235.5 198 c 128,-1,10
 226 207 226 207 207 207 c 2,11,-1
 195 207 l 1,12,-1
 195 0 l 1,13,-1
 19 0 l 1,14,-1
 19 595 l 1,15,-1
 246 595 l 2,16,17
 330 595 330 595 380.5 553 c 128,-1,18
 431 511 431 511 431 429 c 2,19,-1
 431 372 l 2,20,21
 431 293 431 293 379 249 c 1,22,23
 419 225 419 225 421 156 c 2,24,-1
 424 63 l 2,0,1
195 329 m 1,25,-1
 222 329 l 2,26,27
 256 329 256 329 256 363 c 2,28,-1
 256 427 l 2,29,30
 256 441 256 441 247.5 449.5 c 128,-1,31
 239 458 239 458 222 458 c 2,32,-1
 195 458 l 1,33,-1
 195 329 l 1,25,-1
EndSplineSet
EndChar

StartChar: scedilla.sc
Encoding: 65743 -1 638
Width: 449
GlyphClass: 2
Flags: W
AnchorPoint: "Anchor-18" 230 594 basechar 0
AnchorPoint: "Anchor-15" 227 -185 basechar 0
LayerCount: 2
Fore
SplineSet
393.5 303 m 128,-1,1
 434 262 434 262 434 188 c 2,2,-1
 434 149 l 2,3,4
 434 77 434 77 389 35.5 c 128,-1,5
 344 -6 344 -6 257 -13 c 1,6,-1
 250 -34 l 1,7,8
 262 -32 262 -32 267 -32 c 0,9,10
 295 -32 295 -32 313 -49.5 c 128,-1,11
 331 -67 331 -67 331 -98 c 0,12,13
 331 -137 331 -137 304.5 -161.5 c 128,-1,14
 278 -186 278 -186 226 -186 c 0,15,16
 120 -186 120 -186 120 -93 c 1,17,-1
 197 -93 l 1,18,19
 198 -110 198 -110 204 -116 c 128,-1,20
 210 -122 210 -122 221 -122 c 0,21,22
 241 -122 241 -122 241 -97 c 0,23,24
 241 -83 241 -83 235.5 -76.5 c 128,-1,25
 230 -70 230 -70 221 -70 c 0,26,27
 217 -70 217 -70 211 -72 c 1,28,-1
 173 -50 l 1,29,-1
 184 -12 l 1,30,31
 100 -3 100 -3 57.5 44 c 128,-1,32
 15 91 15 91 15 174 c 2,33,-1
 15 208 l 1,34,-1
 185 208 l 1,35,-1
 185 173 l 2,36,37
 185 116 185 116 228 116 c 0,38,39
 243 116 243 116 251.5 125.5 c 128,-1,40
 260 135 260 135 260 151 c 2,41,-1
 260 189 l 2,42,43
 260 210 260 210 247.5 221.5 c 128,-1,44
 235 233 235 233 198 244 c 0,45,46
 100 271 100 271 62 312.5 c 128,-1,47
 24 354 24 354 24 424 c 2,48,-1
 24 456 l 2,49,50
 24 610 24 610 219 610 c 0,51,52
 321 610 321 610 370 567 c 128,-1,53
 419 524 419 524 419 437 c 2,54,-1
 419 411 l 1,55,-1
 261 411 l 1,56,-1
 261 438 l 2,57,58
 261 480 261 480 228 480 c 0,59,60
 197 480 197 480 197 450 c 2,61,-1
 197 419 l 2,62,63
 197 400 197 400 210 389 c 128,-1,64
 223 378 223 378 261 368 c 0,65,0
 353 344 353 344 393.5 303 c 128,-1,1
EndSplineSet
EndChar

StartChar: germandbls.sc
Encoding: 65746 -1 641
Width: 453
GlyphClass: 2
Flags: W
AnchorPoint: "Anchor-18" 223 594 basechar 0
AnchorPoint: "Anchor-15" 223 0 basechar 0
LayerCount: 2
Fore
SplineSet
361 329 m 1,0,1
 433 292 433 292 433 213 c 2,2,-1
 433 152 l 2,3,4
 433 0 433 0 249 0 c 2,5,-1
 215 0 l 1,6,-1
 215 134 l 1,7,-1
 219 134 l 2,8,9
 237 134 237 134 246.5 140.5 c 128,-1,10
 256 147 256 147 256 167 c 2,11,-1
 256 223 l 2,12,13
 256 239 256 239 248.5 246 c 128,-1,14
 241 253 241 253 222 253 c 2,15,-1
 218 253 l 1,16,-1
 218 354 l 1,17,-1
 262 462 l 1,18,-1
 224 462 l 2,19,20
 195 462 195 462 195 430 c 2,21,-1
 195 0 l 1,22,-1
 19 0 l 1,23,-1
 19 390 l 2,24,25
 19 494 19 494 66 544.5 c 128,-1,26
 113 595 113 595 220 595 c 2,27,-1
 419 595 l 1,28,-1
 419 462 l 1,29,-1
 361 329 l 1,0,1
EndSplineSet
EndChar

StartChar: t.sc
Encoding: 65747 -1 642
Width: 374
GlyphClass: 2
Flags: W
AnchorPoint: "Anchor-18" 188 595 basechar 0
AnchorPoint: "Anchor-16" 188 297 basechar 0
AnchorPoint: "Anchor-15" 188 0 basechar 0
LayerCount: 2
Fore
SplineSet
275 0 m 1,0,-1
 99 0 l 1,1,-1
 99 434 l 1,2,-1
 8 434 l 1,3,-1
 8 595 l 1,4,-1
 366 595 l 1,5,-1
 366 434 l 1,6,-1
 275 434 l 1,7,-1
 275 0 l 1,0,-1
EndSplineSet
EndChar

StartChar: tbar.sc
Encoding: 65748 -1 643
Width: 374
GlyphClass: 2
Flags: W
AnchorPoint: "Anchor-18" 188 595 basechar 0
AnchorPoint: "Anchor-16" 188 297 basechar 0
AnchorPoint: "Anchor-15" 188 0 basechar 0
LayerCount: 2
Fore
SplineSet
366 595 m 1,0,-1
 366 434 l 1,1,-1
 275 434 l 1,2,-1
 275 338 l 1,3,-1
 354 338 l 1,4,-1
 354 249 l 1,5,-1
 275 249 l 1,6,-1
 275 0 l 1,7,-1
 99 0 l 1,8,-1
 99 249 l 1,9,-1
 20 249 l 1,10,-1
 20 338 l 1,11,-1
 99 338 l 1,12,-1
 99 434 l 1,13,-1
 8 434 l 1,14,-1
 8 595 l 1,15,-1
 366 595 l 1,0,-1
EndSplineSet
EndChar

StartChar: u.sc
Encoding: 65751 -1 646
Width: 441
GlyphClass: 2
Flags: W
AnchorPoint: "Anchor-19" 350 595 basechar 0
AnchorPoint: "Anchor-18" 220 595 basechar 0
AnchorPoint: "Anchor-17" 335 8 basechar 0
AnchorPoint: "Anchor-15" 220 0 basechar 0
LayerCount: 2
Fore
SplineSet
63.5 37.5 m 128,-1,1
 13 90 13 90 13 204 c 2,2,-1
 13 595 l 1,3,-1
 189 595 l 1,4,-1
 189 172 l 2,5,6
 189 127 189 127 220 127 c 256,7,8
 251 127 251 127 251 172 c 2,9,-1
 251 595 l 1,10,-1
 427 595 l 1,11,-1
 427 204 l 2,12,13
 427 94 427 94 379 39.5 c 128,-1,14
 331 -15 331 -15 220 -15 c 0,15,0
 114 -15 114 -15 63.5 37.5 c 128,-1,1
EndSplineSet
EndChar

StartChar: uogonek.sc
Encoding: 65759 -1 654
Width: 441
GlyphClass: 2
Flags: W
AnchorPoint: "Anchor-19" 350 595 basechar 0
AnchorPoint: "Anchor-18" 220 595 basechar 0
AnchorPoint: "Anchor-17" 335 8 basechar 0
AnchorPoint: "Anchor-15" 220 0 basechar 0
LayerCount: 2
Fore
SplineSet
252 -86 m 0,1,2
 252 -94 252 -94 256.5 -98.5 c 128,-1,3
 261 -103 261 -103 268 -103 c 0,4,5
 280 -103 280 -103 285 -95 c 128,-1,6
 290 -87 290 -87 290 -63 c 1,7,-1
 376 -63 l 1,8,9
 378 -123 378 -123 350 -151.5 c 128,-1,10
 322 -180 322 -180 256 -180 c 0,11,12
 206 -180 206 -180 178 -160 c 128,-1,13
 150 -140 150 -140 150 -102 c 0,14,15
 150 -78 150 -78 164 -55 c 128,-1,16
 178 -32 178 -32 205 -15 c 1,17,18
 107 -11 107 -11 60 41.5 c 128,-1,19
 13 94 13 94 13 204 c 2,20,-1
 13 595 l 1,21,-1
 189 595 l 1,22,-1
 189 172 l 2,23,24
 189 127 189 127 220 127 c 256,25,26
 251 127 251 127 251 172 c 2,27,-1
 251 595 l 1,28,-1
 427 595 l 1,29,-1
 427 204 l 2,30,31
 427 125 427 125 403 75 c 128,-1,32
 379 25 379 25 326 3 c 1,33,0
 252 -41 252 -41 252 -86 c 0,1,2
EndSplineSet
EndChar

StartChar: y.sc
Encoding: 65769 -1 664
Width: 436
GlyphClass: 2
Flags: W
AnchorPoint: "Anchor-18" 218 595 basechar 0
AnchorPoint: "Anchor-15" 218 0 basechar 0
LayerCount: 2
Fore
SplineSet
305 0 m 1,0,-1
 129 0 l 1,1,-1
 129 144 l 1,2,-1
 -4 595 l 1,3,-1
 173 595 l 1,4,-1
 209 420 l 1,5,-1
 217 317 l 1,6,-1
 220 317 l 1,7,-1
 228 421 l 1,8,-1
 268 595 l 1,9,-1
 440 595 l 1,10,-1
 305 144 l 1,11,-1
 305 0 l 1,0,-1
EndSplineSet
EndChar

StartChar: uni0411
Encoding: 1041 1041 674
Width: 489
GlyphClass: 1
Flags: W
LayerCount: 2
Fore
SplineSet
270 476 m 2,0,1
 368 476 368 476 419.5 432.5 c 128,-1,2
 471 389 471 389 471 293 c 2,3,-1
 471 179 l 2,4,5
 471 85 471 85 419.5 42.5 c 128,-1,6
 368 0 368 0 269 0 c 2,7,-1
 33 0 l 1,8,-1
 33 743 l 1,9,-1
 433 743 l 1,10,-1
 433 576 l 1,11,-1
 215 576 l 1,12,-1
 215 476 l 1,13,-1
 270 476 l 2,0,1
295 285 m 2,14,15
 295 319 295 319 284 333.5 c 128,-1,16
 273 348 273 348 246 348 c 2,17,-1
 215 348 l 1,18,-1
 215 128 l 1,19,-1
 249 128 l 2,20,21
 274 128 274 128 284.5 142.5 c 128,-1,22
 295 157 295 157 295 188 c 2,23,-1
 295 285 l 2,14,15
EndSplineSet
EndChar

StartChar: uni0413
Encoding: 1043 1043 676
Width: 382
GlyphClass: 2
Flags: W
AnchorPoint: "Anchor-8" 204 744 basechar 0
LayerCount: 2
Fore
SplineSet
215 0 m 1,0,-1
 33 0 l 1,1,-1
 33 744 l 1,2,-1
 374 744 l 1,3,-1
 374 582 l 1,4,-1
 215 582 l 1,5,-1
 215 0 l 1,0,-1
EndSplineSet
EndChar

StartChar: uni0490
Encoding: 1168 1168 678
Width: 382
GlyphClass: 2
Flags: W
AnchorPoint: "Anchor-8" 204 744 basechar 0
LayerCount: 2
Fore
SplineSet
220 744 m 1,0,-1
 220 829 l 1,1,-1
 374 829 l 1,2,-1
 374 582 l 1,3,-1
 215 582 l 1,4,-1
 215 0 l 1,5,-1
 33 0 l 1,6,-1
 33 744 l 1,7,-1
 220 744 l 1,0,-1
EndSplineSet
EndChar

StartChar: uni0414
Encoding: 1044 1044 679
Width: 579
GlyphClass: 1
Flags: W
LayerCount: 2
Fore
SplineSet
520 158 m 1,0,-1
 569 158 l 1,1,-1
 569 -85 l 1,2,-1
 413 -85 l 1,3,-1
 413 0 l 1,4,-1
 167 0 l 1,5,-1
 167 -85 l 1,6,-1
 10 -85 l 1,7,-1
 10 158 l 1,8,-1
 13 158 l 2,9,10
 54 159 54 159 70.5 199.5 c 128,-1,11
 87 240 87 240 87 306 c 2,12,-1
 87 743 l 1,13,-1
 520 743 l 1,14,-1
 520 158 l 1,0,-1
269 342 m 2,15,16
 269 281 269 281 262 236 c 128,-1,17
 255 191 255 191 237 158 c 1,18,-1
 338 158 l 1,19,-1
 338 591 l 1,20,-1
 269 591 l 1,21,-1
 269 342 l 2,15,16
EndSplineSet
EndChar

StartChar: uni0416
Encoding: 1046 1046 682
Width: 749
GlyphClass: 1
Flags: W
LayerCount: 2
Fore
SplineSet
193 0 m 1,0,-1
 3 0 l 1,1,-1
 108 396 l 1,2,-1
 19 744 l 1,3,-1
 205 744 l 1,4,-1
 259 481 l 1,5,-1
 284 481 l 1,6,-1
 284 744 l 1,7,-1
 466 744 l 1,8,-1
 466 481 l 1,9,-1
 491 481 l 1,10,-1
 544 744 l 1,11,-1
 731 744 l 1,12,-1
 641 397 l 1,13,-1
 745 0 l 1,14,-1
 555 0 l 1,15,-1
 491 312 l 1,16,-1
 466 312 l 1,17,-1
 466 0 l 1,18,-1
 284 0 l 1,19,-1
 284 312 l 1,20,-1
 259 312 l 1,21,-1
 193 0 l 1,0,-1
EndSplineSet
EndChar

StartChar: uni0417
Encoding: 1047 1047 683
Width: 495
GlyphClass: 2
Flags: W
AnchorPoint: "Anchor-8" 247 744 basechar 0
AnchorPoint: "Anchor-5" 248 0 basechar 0
LayerCount: 2
Fore
SplineSet
76 44.5 m 128,-1,1
 20 104 20 104 20 221 c 2,2,-1
 20 268 l 1,3,-1
 202 268 l 1,4,-1
 202 208 l 2,5,6
 202 147 202 147 245 147 c 0,7,8
 287 147 287 147 287 203 c 2,9,-1
 287 271 l 2,10,11
 287 300 287 300 277 312.5 c 128,-1,12
 267 325 267 325 241 325 c 2,13,-1
 182 325 l 1,14,-1
 182 434 l 1,15,-1
 236 434 l 2,16,17
 260 434 260 434 273.5 446.5 c 128,-1,18
 287 459 287 459 287 483 c 2,19,-1
 287 545 l 2,20,21
 287 570 287 570 276.5 583.5 c 128,-1,22
 266 597 266 597 246 597 c 0,23,24
 225 597 225 597 213.5 580.5 c 128,-1,25
 202 564 202 564 202 531 c 2,26,-1
 202 482 l 1,27,-1
 20 482 l 1,28,-1
 20 526 l 2,29,30
 20 638 20 638 76 698 c 128,-1,31
 132 758 132 758 248 758 c 0,32,33
 356 758 356 758 409 708 c 128,-1,34
 462 658 462 658 462 572 c 2,35,-1
 462 529 l 2,36,37
 462 419 462 419 390 387 c 1,38,39
 425 375 425 375 447.5 340.5 c 128,-1,40
 470 306 470 306 470 252 c 2,41,-1
 470 198 l 2,42,43
 470 92 470 92 411.5 38.5 c 128,-1,44
 353 -15 353 -15 250 -15 c 0,45,0
 132 -15 132 -15 76 44.5 c 128,-1,1
EndSplineSet
EndChar

StartChar: uni0418
Encoding: 1048 1048 684
Width: 533
GlyphClass: 2
Flags: W
AnchorPoint: "Anchor-8" 257 744 basechar 0
AnchorPoint: "Anchor-5" 267 0 basechar 0
LayerCount: 2
Fore
SplineSet
500 744 m 1,0,-1
 500 0 l 1,1,-1
 321 0 l 1,2,-1
 321 292 l 1,3,-1
 325 363 l 1,4,-1
 323 363 l 1,5,-1
 308 302 l 1,6,-1
 209 0 l 1,7,-1
 33 0 l 1,8,-1
 33 744 l 1,9,-1
 212 744 l 1,10,-1
 212 447 l 1,11,-1
 208 375 l 1,12,-1
 210 375 l 1,13,-1
 225 436 l 1,14,-1
 324 744 l 1,15,-1
 500 744 l 1,0,-1
EndSplineSet
EndChar

StartChar: uni041B
Encoding: 1051 1051 688
Width: 528
GlyphClass: 1
Flags: W
LayerCount: 2
Fore
SplineSet
495 0 m 1,0,-1
 313 0 l 1,1,-1
 313 574 l 1,2,-1
 243 574 l 1,3,4
 242 384 242 384 237 195 c 0,5,6
 233 80 233 80 180 32.5 c 128,-1,7
 127 -15 127 -15 10 -15 c 1,8,-1
 10 138 l 1,9,10
 34 138 34 138 43.5 152.5 c 128,-1,11
 53 167 53 167 55 201 c 0,12,13
 62 485 62 485 62 744 c 1,14,-1
 495 744 l 1,15,-1
 495 0 l 1,0,-1
EndSplineSet
EndChar

StartChar: uni0423
Encoding: 1059 1059 696
Width: 483
GlyphClass: 2
Flags: W
AnchorPoint: "Anchor-8" 246 744 basechar 0
LayerCount: 2
Fore
SplineSet
19 5 m 1,1,-1
 46 159 l 1,2,3
 74 152 74 152 92 152 c 0,4,5
 109 152 109 152 118.5 160 c 128,-1,6
 128 168 128 168 133 189 c 2,7,-1
 143 241 l 1,8,-1
 5 744 l 1,9,-1
 191 744 l 1,10,-1
 233 538 l 1,11,-1
 243 440 l 1,12,-1
 245 440 l 1,13,-1
 254 538 l 1,14,-1
 292 744 l 1,15,-1
 480 744 l 1,16,-1
 307 148 l 2,17,18
 281 68 281 68 239 28.5 c 128,-1,19
 197 -11 197 -11 133 -11 c 0,20,0
 72 -11 72 -11 19 5 c 1,1,-1
EndSplineSet
EndChar

StartChar: uni0424
Encoding: 1060 1060 698
Width: 702
GlyphClass: 1
Flags: W
LayerCount: 2
Fore
SplineSet
441 682 m 2,0,1
 559 682 559 682 618.5 619 c 128,-1,2
 678 556 678 556 678 422 c 2,3,-1
 678 325 l 2,4,5
 678 192 678 192 618 128.5 c 128,-1,6
 558 65 558 65 440 65 c 2,7,-1
 431 65 l 1,8,-1
 431 -12 l 1,9,-1
 271 -12 l 1,10,-1
 271 65 l 1,11,-1
 262 65 l 2,12,13
 144 65 144 65 84.5 128 c 128,-1,14
 25 191 25 191 25 325 c 2,15,-1
 25 422 l 2,16,17
 25 556 25 556 84.5 619 c 128,-1,18
 144 682 144 682 262 682 c 2,19,-1
 271 682 l 1,20,-1
 271 757 l 1,21,-1
 431 757 l 1,22,-1
 431 682 l 1,23,-1
 441 682 l 2,0,1
271 203 m 1,24,-1
 271 543 l 1,25,-1
 268 543 l 2,26,27
 236 541 236 541 221.5 516.5 c 128,-1,28
 207 492 207 492 207 425 c 2,29,-1
 207 321 l 2,30,31
 207 253 207 253 222 228 c 128,-1,32
 237 203 237 203 268 203 c 2,33,-1
 271 203 l 1,24,-1
495 425 m 2,34,35
 495 473 495 473 488 499 c 128,-1,36
 481 525 481 525 468 534 c 128,-1,37
 455 543 455 543 434 543 c 2,38,-1
 431 543 l 1,39,-1
 431 203 l 1,40,-1
 434 203 l 2,41,42
 465 203 465 203 480 228 c 128,-1,43
 495 253 495 253 495 321 c 2,44,-1
 495 425 l 2,34,35
EndSplineSet
EndChar

StartChar: uni0427
Encoding: 1063 1063 700
Width: 496
GlyphClass: 1
Flags: W
LayerCount: 2
Fore
SplineSet
280 744 m 1,0,-1
 463 744 l 1,1,-1
 463 0 l 1,2,-1
 280 0 l 1,3,-1
 280 263 l 1,4,5
 238 249 238 249 196 249 c 0,6,7
 104 249 104 249 60.5 303 c 128,-1,8
 17 357 17 357 17 449 c 2,9,-1
 17 744 l 1,10,-1
 199 744 l 1,11,-1
 199 469 l 2,12,13
 199 411 199 411 240 411 c 0,14,15
 263 411 263 411 280 418 c 1,16,-1
 280 744 l 1,0,-1
EndSplineSet
EndChar

StartChar: uni0426
Encoding: 1062 1062 701
Width: 534
GlyphClass: 1
Flags: W
LayerCount: 2
Fore
SplineSet
476 744 m 1,0,-1
 476 161 l 1,1,-1
 524 161 l 1,2,-1
 524 -84 l 1,3,-1
 368 -84 l 1,4,-1
 368 0 l 1,5,-1
 33 0 l 1,6,-1
 33 744 l 1,7,-1
 215 744 l 1,8,-1
 215 161 l 1,9,-1
 294 161 l 1,10,-1
 294 744 l 1,11,-1
 476 744 l 1,0,-1
EndSplineSet
EndChar

